G04 (created by PCBNEW (2013-mar-13)-testing) date Tue 07 May 2013 10:03:09 PM CEST*
%MOIN*%
G04 Gerber Fmt 3.4, Leading zero omitted, Abs format*
%FSLAX34Y34*%
G01*
G70*
G90*
G04 APERTURE LIST*
%ADD10C,2.3622e-06*%
%ADD11C,0.0026*%
%ADD12C,0.008*%
%ADD13C,0.002*%
%ADD14C,0.004*%
%ADD15C,0.0078*%
%ADD16C,0.006*%
%ADD17C,0.005*%
%ADD18C,0.0059*%
%ADD19C,0.0035*%
%ADD20R,0.0708661X0.0590551*%
%ADD21C,0.551181*%
%ADD22O,0.165X0.0825*%
%ADD23C,0.0787*%
%ADD24C,0.0906*%
%ADD25C,0.2*%
%ADD26C,0.0859*%
%ADD27C,0.06*%
%ADD28R,0.06X0.06*%
%ADD29R,0.062X0.062*%
%ADD30C,0.062*%
%ADD31C,0.1575*%
%ADD32O,0.112X0.056*%
%ADD33R,0.0433X0.0354*%
%ADD34C,0.1*%
%ADD35O,0.104X0.052*%
%ADD36R,0.0236X0.0866*%
%ADD37R,0.0393X0.0433*%
%ADD38C,0.2362*%
%ADD39R,0.0551X0.0393*%
%ADD40R,0.0433X0.0393*%
%ADD41R,0.0354X0.0394*%
%ADD42C,0.01*%
G04 APERTURE END LIST*
G54D10*
G54D11*
X68384Y-47200D02*
X68904Y-47200D01*
X68904Y-47200D02*
X68904Y-47350D01*
X68384Y-47350D02*
X68904Y-47350D01*
X68384Y-47200D02*
X68384Y-47350D01*
X68384Y-46200D02*
X68904Y-46200D01*
X68904Y-46200D02*
X68904Y-46350D01*
X68384Y-46350D02*
X68904Y-46350D01*
X68384Y-46200D02*
X68384Y-46350D01*
X70596Y-46200D02*
X71116Y-46200D01*
X71116Y-46200D02*
X71116Y-46350D01*
X70596Y-46350D02*
X71116Y-46350D01*
X70596Y-46200D02*
X70596Y-46350D01*
X70596Y-47200D02*
X71116Y-47200D01*
X71116Y-47200D02*
X71116Y-47350D01*
X70596Y-47350D02*
X71116Y-47350D01*
X70596Y-47200D02*
X70596Y-47350D01*
G54D12*
X68930Y-46065D02*
X70570Y-46065D01*
X70570Y-46065D02*
X70570Y-47485D01*
X70570Y-47485D02*
X68930Y-47485D01*
X68930Y-47485D02*
X68930Y-46065D01*
G54D13*
X69336Y-47164D02*
G75*
G03X69336Y-47164I-91J0D01*
G74*
G01*
G54D11*
X76080Y-46580D02*
X76080Y-46420D01*
X76080Y-46420D02*
X76420Y-46420D01*
X76420Y-46580D02*
X76420Y-46420D01*
X76080Y-46580D02*
X76420Y-46580D01*
X76080Y-47080D02*
X76080Y-46920D01*
X76080Y-46920D02*
X76420Y-46920D01*
X76420Y-47080D02*
X76420Y-46920D01*
X76080Y-47080D02*
X76420Y-47080D01*
X76093Y-46828D02*
X76093Y-46672D01*
X76093Y-46672D02*
X76407Y-46672D01*
X76407Y-46828D02*
X76407Y-46672D01*
X76093Y-46828D02*
X76407Y-46828D01*
G54D14*
X76110Y-46920D02*
X76110Y-46580D01*
X76390Y-46580D02*
X76390Y-46920D01*
G54D13*
X76512Y-47329D02*
X76512Y-46171D01*
X76512Y-46171D02*
X75988Y-46171D01*
X75988Y-46171D02*
X75988Y-47329D01*
X75988Y-47329D02*
X76512Y-47329D01*
G54D12*
X76562Y-47335D02*
X76562Y-46165D01*
X76562Y-46165D02*
X75938Y-46165D01*
X75938Y-46165D02*
X75938Y-47335D01*
X75938Y-47335D02*
X76562Y-47335D01*
G54D11*
X75196Y-36070D02*
X75003Y-36070D01*
X75003Y-36070D02*
X75003Y-35637D01*
X75196Y-35637D02*
X75003Y-35637D01*
X75196Y-36070D02*
X75196Y-35637D01*
X74696Y-36070D02*
X74503Y-36070D01*
X74503Y-36070D02*
X74503Y-35637D01*
X74696Y-35637D02*
X74503Y-35637D01*
X74696Y-36070D02*
X74696Y-35637D01*
X74196Y-36070D02*
X74003Y-36070D01*
X74003Y-36070D02*
X74003Y-35637D01*
X74196Y-35637D02*
X74003Y-35637D01*
X74196Y-36070D02*
X74196Y-35637D01*
X73696Y-36070D02*
X73504Y-36070D01*
X73504Y-36070D02*
X73504Y-35637D01*
X73696Y-35637D02*
X73504Y-35637D01*
X73696Y-36070D02*
X73696Y-35637D01*
X73696Y-34063D02*
X73504Y-34063D01*
X73504Y-34063D02*
X73504Y-33630D01*
X73696Y-33630D02*
X73504Y-33630D01*
X73696Y-34063D02*
X73696Y-33630D01*
X74196Y-34063D02*
X74003Y-34063D01*
X74003Y-34063D02*
X74003Y-33630D01*
X74196Y-33630D02*
X74003Y-33630D01*
X74196Y-34063D02*
X74196Y-33630D01*
X74696Y-34063D02*
X74503Y-34063D01*
X74503Y-34063D02*
X74503Y-33630D01*
X74696Y-33630D02*
X74503Y-33630D01*
X74696Y-34063D02*
X74696Y-33630D01*
X75196Y-34063D02*
X75003Y-34063D01*
X75003Y-34063D02*
X75003Y-33630D01*
X75196Y-33630D02*
X75003Y-33630D01*
X75196Y-34063D02*
X75196Y-33630D01*
X73197Y-36070D02*
X73004Y-36070D01*
X73004Y-36070D02*
X73004Y-35637D01*
X73197Y-35637D02*
X73004Y-35637D01*
X73197Y-36070D02*
X73197Y-35637D01*
X72697Y-36070D02*
X72504Y-36070D01*
X72504Y-36070D02*
X72504Y-35637D01*
X72697Y-35637D02*
X72504Y-35637D01*
X72697Y-36070D02*
X72697Y-35637D01*
X72197Y-36070D02*
X72004Y-36070D01*
X72004Y-36070D02*
X72004Y-35637D01*
X72197Y-35637D02*
X72004Y-35637D01*
X72197Y-36070D02*
X72197Y-35637D01*
X72197Y-34063D02*
X72004Y-34063D01*
X72004Y-34063D02*
X72004Y-33630D01*
X72197Y-33630D02*
X72004Y-33630D01*
X72197Y-34063D02*
X72197Y-33630D01*
X72697Y-34063D02*
X72504Y-34063D01*
X72504Y-34063D02*
X72504Y-33630D01*
X72697Y-33630D02*
X72504Y-33630D01*
X72697Y-34063D02*
X72697Y-33630D01*
X73197Y-34063D02*
X73004Y-34063D01*
X73004Y-34063D02*
X73004Y-33630D01*
X73197Y-33630D02*
X73004Y-33630D01*
X73197Y-34063D02*
X73197Y-33630D01*
G54D15*
X75527Y-33315D02*
X71673Y-33315D01*
X71673Y-36385D02*
X75527Y-36385D01*
X75527Y-36385D02*
X75527Y-33315D01*
G54D12*
X71906Y-35598D02*
X75294Y-35598D01*
X75294Y-35598D02*
X75294Y-35401D01*
X75294Y-35401D02*
X75294Y-34102D01*
X71906Y-35401D02*
X75294Y-35401D01*
X71906Y-34102D02*
X71906Y-35401D01*
X71906Y-35401D02*
X71906Y-35598D01*
G54D15*
X71673Y-33315D02*
X71673Y-36385D01*
G54D12*
X75294Y-34102D02*
X71906Y-34102D01*
G54D11*
X74520Y-37030D02*
X74680Y-37030D01*
X74680Y-37030D02*
X74680Y-37370D01*
X74520Y-37370D02*
X74680Y-37370D01*
X74520Y-37030D02*
X74520Y-37370D01*
X74020Y-37030D02*
X74180Y-37030D01*
X74180Y-37030D02*
X74180Y-37370D01*
X74020Y-37370D02*
X74180Y-37370D01*
X74020Y-37030D02*
X74020Y-37370D01*
X74272Y-37043D02*
X74428Y-37043D01*
X74428Y-37043D02*
X74428Y-37357D01*
X74272Y-37357D02*
X74428Y-37357D01*
X74272Y-37043D02*
X74272Y-37357D01*
G54D16*
X74180Y-37060D02*
X74520Y-37060D01*
X74520Y-37340D02*
X74180Y-37340D01*
G54D13*
X73771Y-37587D02*
X74929Y-37587D01*
X74929Y-37587D02*
X74929Y-36813D01*
X74929Y-36813D02*
X73771Y-36813D01*
X73771Y-36813D02*
X73771Y-37587D01*
G54D11*
X75985Y-36070D02*
X75985Y-36267D01*
X75985Y-36267D02*
X75611Y-36267D01*
X75611Y-36070D02*
X75611Y-36267D01*
X75985Y-36070D02*
X75611Y-36070D01*
X75985Y-36530D02*
X75985Y-36726D01*
X75985Y-36726D02*
X75611Y-36726D01*
X75611Y-36530D02*
X75611Y-36726D01*
X75985Y-36530D02*
X75611Y-36530D01*
X75918Y-36322D02*
X75918Y-36478D01*
X75918Y-36478D02*
X75682Y-36478D01*
X75682Y-36322D02*
X75682Y-36478D01*
X75918Y-36322D02*
X75682Y-36322D01*
G54D13*
X75413Y-35821D02*
X75413Y-36979D01*
X75413Y-36979D02*
X76187Y-36979D01*
X76187Y-36979D02*
X76187Y-35821D01*
X76187Y-35821D02*
X75413Y-35821D01*
G54D14*
X75630Y-36260D02*
X75630Y-36540D01*
X75964Y-36260D02*
X75964Y-36540D01*
G54D11*
X73720Y-44660D02*
X73720Y-44840D01*
X73720Y-44840D02*
X73491Y-44840D01*
X73491Y-44660D02*
X73491Y-44840D01*
X73720Y-44660D02*
X73491Y-44660D01*
X74509Y-45030D02*
X74509Y-45210D01*
X74509Y-45210D02*
X74280Y-45210D01*
X74280Y-45030D02*
X74280Y-45210D01*
X74509Y-45030D02*
X74280Y-45030D01*
X74509Y-44290D02*
X74509Y-44470D01*
X74509Y-44470D02*
X74280Y-44470D01*
X74280Y-44290D02*
X74280Y-44470D01*
X74509Y-44290D02*
X74280Y-44290D01*
X74118Y-44554D02*
X74118Y-44946D01*
X74118Y-44946D02*
X73882Y-44946D01*
X73882Y-44554D02*
X73882Y-44946D01*
X74118Y-44554D02*
X73882Y-44554D01*
G54D13*
X73220Y-43974D02*
X73220Y-45526D01*
X74780Y-45526D02*
X74780Y-43974D01*
X74780Y-43974D02*
X73220Y-43974D01*
X73220Y-45526D02*
X74780Y-45526D01*
G54D16*
X73741Y-45309D02*
X74259Y-45309D01*
X74259Y-45309D02*
X74259Y-44191D01*
X74259Y-44191D02*
X73741Y-44191D01*
X73741Y-44191D02*
X73741Y-45309D01*
G54D11*
X73170Y-44420D02*
X73170Y-44580D01*
X73170Y-44580D02*
X72830Y-44580D01*
X72830Y-44420D02*
X72830Y-44580D01*
X73170Y-44420D02*
X72830Y-44420D01*
X73170Y-43920D02*
X73170Y-44080D01*
X73170Y-44080D02*
X72830Y-44080D01*
X72830Y-43920D02*
X72830Y-44080D01*
X73170Y-43920D02*
X72830Y-43920D01*
X73157Y-44172D02*
X73157Y-44328D01*
X73157Y-44328D02*
X72843Y-44328D01*
X72843Y-44172D02*
X72843Y-44328D01*
X73157Y-44172D02*
X72843Y-44172D01*
G54D16*
X73140Y-44080D02*
X73140Y-44420D01*
X72860Y-44420D02*
X72860Y-44080D01*
G54D13*
X72613Y-43671D02*
X72613Y-44829D01*
X72613Y-44829D02*
X73387Y-44829D01*
X73387Y-44829D02*
X73387Y-43671D01*
X73387Y-43671D02*
X72613Y-43671D01*
G54D11*
X75420Y-44920D02*
X75420Y-45080D01*
X75420Y-45080D02*
X75080Y-45080D01*
X75080Y-44920D02*
X75080Y-45080D01*
X75420Y-44920D02*
X75080Y-44920D01*
X75420Y-44420D02*
X75420Y-44580D01*
X75420Y-44580D02*
X75080Y-44580D01*
X75080Y-44420D02*
X75080Y-44580D01*
X75420Y-44420D02*
X75080Y-44420D01*
X75407Y-44672D02*
X75407Y-44828D01*
X75407Y-44828D02*
X75093Y-44828D01*
X75093Y-44672D02*
X75093Y-44828D01*
X75407Y-44672D02*
X75093Y-44672D01*
G54D16*
X75390Y-44580D02*
X75390Y-44920D01*
X75110Y-44920D02*
X75110Y-44580D01*
G54D13*
X74863Y-44171D02*
X74863Y-45329D01*
X74863Y-45329D02*
X75637Y-45329D01*
X75637Y-45329D02*
X75637Y-44171D01*
X75637Y-44171D02*
X74863Y-44171D01*
G54D17*
X72320Y-45290D02*
X72320Y-45610D01*
X71880Y-45600D02*
X71880Y-45290D01*
X71780Y-45610D02*
X72420Y-45610D01*
X72420Y-45610D02*
X72420Y-45290D01*
X72420Y-45290D02*
X71780Y-45290D01*
X71780Y-45290D02*
X71780Y-45610D01*
G54D10*
X42930Y-28750D02*
G75*
G03X42930Y-28750I-1180J0D01*
G74*
G01*
X76680Y-28500D02*
G75*
G03X76680Y-28500I-1180J0D01*
G74*
G01*
X42930Y-53250D02*
G75*
G03X42930Y-53250I-1180J0D01*
G74*
G01*
X76430Y-53250D02*
G75*
G03X76430Y-53250I-1180J0D01*
G74*
G01*
G54D18*
X69034Y-45449D02*
X69353Y-45449D01*
X69390Y-45468D01*
X69409Y-45487D01*
X69428Y-45524D01*
X69428Y-45599D01*
X69409Y-45637D01*
X69390Y-45656D01*
X69353Y-45674D01*
X69034Y-45674D01*
X69034Y-45825D02*
X69034Y-46068D01*
X69184Y-45937D01*
X69184Y-45993D01*
X69203Y-46031D01*
X69221Y-46050D01*
X69259Y-46068D01*
X69353Y-46068D01*
X69390Y-46050D01*
X69409Y-46031D01*
X69428Y-45993D01*
X69428Y-45881D01*
X69409Y-45843D01*
X69390Y-45825D01*
X40284Y-37550D02*
X40603Y-37550D01*
X40640Y-37531D01*
X40659Y-37512D01*
X40678Y-37475D01*
X40678Y-37400D01*
X40659Y-37362D01*
X40640Y-37343D01*
X40603Y-37325D01*
X40284Y-37325D01*
X40321Y-37156D02*
X40303Y-37137D01*
X40284Y-37099D01*
X40284Y-37006D01*
X40303Y-36968D01*
X40321Y-36949D01*
X40359Y-36931D01*
X40396Y-36931D01*
X40453Y-36949D01*
X40678Y-37174D01*
X40678Y-36931D01*
X74734Y-42690D02*
X74715Y-42709D01*
X74659Y-42728D01*
X74621Y-42728D01*
X74565Y-42709D01*
X74527Y-42671D01*
X74509Y-42634D01*
X74490Y-42559D01*
X74490Y-42503D01*
X74509Y-42428D01*
X74527Y-42390D01*
X74565Y-42353D01*
X74621Y-42334D01*
X74659Y-42334D01*
X74715Y-42353D01*
X74734Y-42371D01*
X75090Y-42334D02*
X74903Y-42334D01*
X74884Y-42521D01*
X74903Y-42503D01*
X74940Y-42484D01*
X75034Y-42484D01*
X75072Y-42503D01*
X75090Y-42521D01*
X75109Y-42559D01*
X75109Y-42653D01*
X75090Y-42690D01*
X75072Y-42709D01*
X75034Y-42728D01*
X74940Y-42728D01*
X74903Y-42709D01*
X74884Y-42690D01*
G54D19*
G54D18*
X77378Y-32540D02*
X76984Y-32540D01*
X76984Y-32390D01*
X77003Y-32353D01*
X77021Y-32334D01*
X77059Y-32315D01*
X77115Y-32315D01*
X77153Y-32334D01*
X77171Y-32353D01*
X77190Y-32390D01*
X77190Y-32540D01*
X76984Y-31977D02*
X76984Y-32053D01*
X77003Y-32090D01*
X77021Y-32109D01*
X77078Y-32146D01*
X77153Y-32165D01*
X77303Y-32165D01*
X77340Y-32146D01*
X77359Y-32128D01*
X77378Y-32090D01*
X77378Y-32015D01*
X77359Y-31977D01*
X77340Y-31959D01*
X77303Y-31940D01*
X77209Y-31940D01*
X77171Y-31959D01*
X77153Y-31977D01*
X77134Y-32015D01*
X77134Y-32090D01*
X77153Y-32128D01*
X77171Y-32146D01*
X77209Y-32165D01*
X52234Y-29534D02*
X52365Y-29928D01*
X52496Y-29534D01*
X52853Y-29928D02*
X52721Y-29740D01*
X52628Y-29928D02*
X52628Y-29534D01*
X52778Y-29534D01*
X52815Y-29553D01*
X52834Y-29571D01*
X52853Y-29609D01*
X52853Y-29665D01*
X52834Y-29703D01*
X52815Y-29721D01*
X52778Y-29740D01*
X52628Y-29740D01*
X53228Y-29928D02*
X53003Y-29928D01*
X53115Y-29928D02*
X53115Y-29534D01*
X53078Y-29590D01*
X53040Y-29628D01*
X53003Y-29646D01*
X75678Y-47184D02*
X75490Y-47053D01*
X75678Y-46959D02*
X75284Y-46959D01*
X75284Y-47109D01*
X75303Y-47146D01*
X75321Y-47165D01*
X75359Y-47184D01*
X75415Y-47184D01*
X75453Y-47165D01*
X75471Y-47146D01*
X75490Y-47109D01*
X75490Y-46959D01*
X75321Y-47334D02*
X75303Y-47353D01*
X75284Y-47390D01*
X75284Y-47484D01*
X75303Y-47522D01*
X75321Y-47540D01*
X75359Y-47559D01*
X75396Y-47559D01*
X75453Y-47540D01*
X75678Y-47315D01*
X75678Y-47559D01*
X52140Y-53565D02*
X52159Y-53584D01*
X52178Y-53640D01*
X52178Y-53678D01*
X52159Y-53734D01*
X52121Y-53772D01*
X52084Y-53790D01*
X52009Y-53809D01*
X51953Y-53809D01*
X51878Y-53790D01*
X51840Y-53772D01*
X51803Y-53734D01*
X51784Y-53678D01*
X51784Y-53640D01*
X51803Y-53584D01*
X51821Y-53565D01*
X51821Y-53415D02*
X51803Y-53396D01*
X51784Y-53359D01*
X51784Y-53265D01*
X51803Y-53227D01*
X51821Y-53209D01*
X51859Y-53190D01*
X51896Y-53190D01*
X51953Y-53209D01*
X52178Y-53434D01*
X52178Y-53190D01*
X54434Y-34890D02*
X54415Y-34909D01*
X54359Y-34928D01*
X54321Y-34928D01*
X54265Y-34909D01*
X54227Y-34871D01*
X54209Y-34834D01*
X54190Y-34759D01*
X54190Y-34703D01*
X54209Y-34628D01*
X54227Y-34590D01*
X54265Y-34553D01*
X54321Y-34534D01*
X54359Y-34534D01*
X54415Y-34553D01*
X54434Y-34571D01*
X54565Y-34534D02*
X54809Y-34534D01*
X54678Y-34684D01*
X54734Y-34684D01*
X54772Y-34703D01*
X54790Y-34721D01*
X54809Y-34759D01*
X54809Y-34853D01*
X54790Y-34890D01*
X54772Y-34909D01*
X54734Y-34928D01*
X54621Y-34928D01*
X54584Y-34909D01*
X54565Y-34890D01*
X47140Y-50565D02*
X47159Y-50584D01*
X47178Y-50640D01*
X47178Y-50678D01*
X47159Y-50734D01*
X47121Y-50772D01*
X47084Y-50790D01*
X47009Y-50809D01*
X46953Y-50809D01*
X46878Y-50790D01*
X46840Y-50772D01*
X46803Y-50734D01*
X46784Y-50678D01*
X46784Y-50640D01*
X46803Y-50584D01*
X46821Y-50565D01*
X47178Y-50190D02*
X47178Y-50415D01*
X47178Y-50303D02*
X46784Y-50303D01*
X46840Y-50340D01*
X46878Y-50378D01*
X46896Y-50415D01*
X70284Y-45800D02*
X70603Y-45800D01*
X70640Y-45781D01*
X70659Y-45762D01*
X70678Y-45725D01*
X70678Y-45650D01*
X70659Y-45612D01*
X70640Y-45593D01*
X70603Y-45575D01*
X70284Y-45575D01*
X70678Y-45181D02*
X70678Y-45406D01*
X70678Y-45293D02*
X70284Y-45293D01*
X70340Y-45331D01*
X70378Y-45368D01*
X70396Y-45406D01*
X75028Y-34465D02*
X74634Y-34465D01*
X74990Y-34878D02*
X75009Y-34859D01*
X75028Y-34803D01*
X75028Y-34765D01*
X75009Y-34709D01*
X74971Y-34671D01*
X74934Y-34653D01*
X74859Y-34634D01*
X74803Y-34634D01*
X74728Y-34653D01*
X74690Y-34671D01*
X74653Y-34709D01*
X74634Y-34765D01*
X74634Y-34803D01*
X74653Y-34859D01*
X74671Y-34878D01*
X75028Y-35253D02*
X75028Y-35028D01*
X75028Y-35140D02*
X74634Y-35140D01*
X74690Y-35103D01*
X74728Y-35065D01*
X74746Y-35028D01*
X73415Y-37378D02*
X73547Y-37190D01*
X73640Y-37378D02*
X73640Y-36984D01*
X73490Y-36984D01*
X73453Y-37003D01*
X73434Y-37021D01*
X73415Y-37059D01*
X73415Y-37115D01*
X73434Y-37153D01*
X73453Y-37171D01*
X73490Y-37190D01*
X73640Y-37190D01*
X73284Y-36984D02*
X73021Y-36984D01*
X73190Y-37378D01*
X75940Y-37334D02*
X75959Y-37315D01*
X75978Y-37259D01*
X75978Y-37221D01*
X75959Y-37165D01*
X75921Y-37127D01*
X75884Y-37109D01*
X75809Y-37090D01*
X75753Y-37090D01*
X75678Y-37109D01*
X75640Y-37127D01*
X75603Y-37165D01*
X75584Y-37221D01*
X75584Y-37259D01*
X75603Y-37315D01*
X75621Y-37334D01*
X75715Y-37672D02*
X75978Y-37672D01*
X75565Y-37578D02*
X75846Y-37484D01*
X75846Y-37728D01*
X73965Y-46212D02*
X73947Y-46174D01*
X73909Y-46137D01*
X73853Y-46081D01*
X73834Y-46043D01*
X73834Y-46006D01*
X73928Y-46024D02*
X73909Y-45987D01*
X73871Y-45949D01*
X73796Y-45931D01*
X73665Y-45931D01*
X73590Y-45949D01*
X73553Y-45987D01*
X73534Y-46024D01*
X73534Y-46099D01*
X73553Y-46137D01*
X73590Y-46174D01*
X73665Y-46193D01*
X73796Y-46193D01*
X73871Y-46174D01*
X73909Y-46137D01*
X73928Y-46099D01*
X73928Y-46024D01*
X73928Y-46568D02*
X73928Y-46343D01*
X73928Y-46456D02*
X73534Y-46456D01*
X73590Y-46418D01*
X73628Y-46381D01*
X73646Y-46343D01*
X73178Y-46246D02*
X72990Y-46115D01*
X73178Y-46021D02*
X72784Y-46021D01*
X72784Y-46171D01*
X72803Y-46209D01*
X72821Y-46227D01*
X72859Y-46246D01*
X72915Y-46246D01*
X72953Y-46227D01*
X72971Y-46209D01*
X72990Y-46171D01*
X72990Y-46021D01*
X73178Y-46621D02*
X73178Y-46396D01*
X73178Y-46509D02*
X72784Y-46509D01*
X72840Y-46471D01*
X72878Y-46434D01*
X72896Y-46396D01*
X72784Y-46865D02*
X72784Y-46903D01*
X72803Y-46940D01*
X72821Y-46959D01*
X72859Y-46978D01*
X72934Y-46997D01*
X73028Y-46997D01*
X73103Y-46978D01*
X73140Y-46959D01*
X73159Y-46940D01*
X73178Y-46903D01*
X73178Y-46865D01*
X73159Y-46828D01*
X73140Y-46809D01*
X73103Y-46790D01*
X73028Y-46772D01*
X72934Y-46772D01*
X72859Y-46790D01*
X72821Y-46809D01*
X72803Y-46828D01*
X72784Y-46865D01*
X75428Y-46184D02*
X75240Y-46053D01*
X75428Y-45959D02*
X75034Y-45959D01*
X75034Y-46109D01*
X75053Y-46146D01*
X75071Y-46165D01*
X75109Y-46184D01*
X75165Y-46184D01*
X75203Y-46165D01*
X75221Y-46146D01*
X75240Y-46109D01*
X75240Y-45959D01*
X75428Y-46371D02*
X75428Y-46447D01*
X75409Y-46484D01*
X75390Y-46503D01*
X75334Y-46540D01*
X75259Y-46559D01*
X75109Y-46559D01*
X75071Y-46540D01*
X75053Y-46522D01*
X75034Y-46484D01*
X75034Y-46409D01*
X75053Y-46371D01*
X75071Y-46353D01*
X75109Y-46334D01*
X75203Y-46334D01*
X75240Y-46353D01*
X75259Y-46371D01*
X75278Y-46409D01*
X75278Y-46484D01*
X75259Y-46522D01*
X75240Y-46540D01*
X75203Y-46559D01*
X72640Y-46184D02*
X72659Y-46165D01*
X72678Y-46109D01*
X72678Y-46071D01*
X72659Y-46015D01*
X72621Y-45977D01*
X72584Y-45959D01*
X72509Y-45940D01*
X72453Y-45940D01*
X72378Y-45959D01*
X72340Y-45977D01*
X72303Y-46015D01*
X72284Y-46071D01*
X72284Y-46109D01*
X72303Y-46165D01*
X72321Y-46184D01*
X72284Y-46522D02*
X72284Y-46447D01*
X72303Y-46409D01*
X72321Y-46390D01*
X72378Y-46353D01*
X72453Y-46334D01*
X72603Y-46334D01*
X72640Y-46353D01*
X72659Y-46371D01*
X72678Y-46409D01*
X72678Y-46484D01*
X72659Y-46522D01*
X72640Y-46540D01*
X72603Y-46559D01*
X72509Y-46559D01*
X72471Y-46540D01*
X72453Y-46522D01*
X72434Y-46484D01*
X72434Y-46409D01*
X72453Y-46371D01*
X72471Y-46353D01*
X72509Y-46334D01*
%LPC*%
G54D20*
X67978Y-47250D03*
X67978Y-46250D03*
X71521Y-46250D03*
X71521Y-47250D03*
G54D21*
X47250Y-28750D03*
X57000Y-28750D03*
X66000Y-28750D03*
G54D22*
X40500Y-43200D03*
X40500Y-41000D03*
X40500Y-38800D03*
G54D23*
X72000Y-53000D03*
G54D24*
X56252Y-53000D03*
G54D25*
X44000Y-45000D03*
X44000Y-42000D03*
X44000Y-31200D03*
X44000Y-34200D03*
G54D23*
X46750Y-43500D03*
X46750Y-37500D03*
X48250Y-43500D03*
X48250Y-37500D03*
X50250Y-37500D03*
X50250Y-45500D03*
G54D26*
X77250Y-42500D03*
X75875Y-42500D03*
G54D27*
X77200Y-39400D03*
X76200Y-40400D03*
X77200Y-40400D03*
X76200Y-41400D03*
X77200Y-41400D03*
G54D28*
X76200Y-39400D03*
G54D29*
X77200Y-44000D03*
G54D30*
X77200Y-45000D03*
X77200Y-46000D03*
X77200Y-47000D03*
G54D29*
X77200Y-33750D03*
G54D30*
X77200Y-34750D03*
X77200Y-35750D03*
X77200Y-36750D03*
G54D31*
X59374Y-45000D03*
X59374Y-37126D03*
G54D32*
X51250Y-29900D03*
X53250Y-30600D03*
G54D33*
X76250Y-47062D03*
X76250Y-46438D03*
G54D34*
X52000Y-46000D03*
X52000Y-52000D03*
X47250Y-34750D03*
X53250Y-34750D03*
X47000Y-45000D03*
X47000Y-49000D03*
G54D35*
X72000Y-44750D03*
X72000Y-43750D03*
X72000Y-42750D03*
X69000Y-42750D03*
X69000Y-43750D03*
X69000Y-44750D03*
G54D36*
X75100Y-35873D03*
X74600Y-35873D03*
X74100Y-35873D03*
X73600Y-35873D03*
X73100Y-35873D03*
X72600Y-35873D03*
X72100Y-35873D03*
X72100Y-33827D03*
X72600Y-33827D03*
X73100Y-33827D03*
X73600Y-33827D03*
X74100Y-33827D03*
X74600Y-33827D03*
X75100Y-33827D03*
G54D37*
X74016Y-37200D03*
X74684Y-37200D03*
X75800Y-36066D03*
X75800Y-36734D03*
G54D38*
X41750Y-28750D03*
X75500Y-28500D03*
X41750Y-53250D03*
X75250Y-53250D03*
G54D23*
X47250Y-32500D03*
X53250Y-32500D03*
G54D39*
X74433Y-44376D03*
X74433Y-45124D03*
X73567Y-44750D03*
G54D40*
X73000Y-43916D03*
X73000Y-44584D03*
X75250Y-44416D03*
X75250Y-45084D03*
G54D41*
X72396Y-45450D03*
X71804Y-45450D03*
G54D23*
X77000Y-49750D03*
G54D24*
X61252Y-49750D03*
G54D10*
G36*
X47685Y-30510D02*
X43747Y-34694D01*
X41790Y-32981D01*
X41790Y-32266D01*
X45007Y-29049D01*
X47685Y-30510D01*
X47685Y-30510D01*
G37*
G54D12*
X47685Y-30510D02*
X43747Y-34694D01*
X41790Y-32981D01*
X41790Y-32266D01*
X45007Y-29049D01*
X47685Y-30510D01*
G54D10*
G36*
X60350Y-45579D02*
X56379Y-49550D01*
X42800Y-49550D01*
X42620Y-49550D01*
X39650Y-46579D01*
X39650Y-42850D01*
X41550Y-42850D01*
X41550Y-45620D01*
X43379Y-47450D01*
X55419Y-47450D01*
X58440Y-44630D01*
X58634Y-44242D01*
X59398Y-44052D01*
X59980Y-44246D01*
X60350Y-44430D01*
X60350Y-45579D01*
X60350Y-45579D01*
G37*
G54D42*
X60350Y-45579D02*
X56379Y-49550D01*
X42800Y-49550D01*
X42620Y-49550D01*
X39650Y-46579D01*
X39650Y-42850D01*
X41550Y-42850D01*
X41550Y-45620D01*
X43379Y-47450D01*
X55419Y-47450D01*
X58440Y-44630D01*
X58634Y-44242D01*
X59398Y-44052D01*
X59980Y-44246D01*
X60350Y-44430D01*
X60350Y-45579D01*
G54D10*
G36*
X68436Y-30021D02*
X62729Y-38210D01*
X57540Y-38210D01*
X57540Y-33517D01*
X63259Y-28295D01*
X68436Y-30021D01*
X68436Y-30021D01*
G37*
G54D12*
X68436Y-30021D02*
X62729Y-38210D01*
X57540Y-38210D01*
X57540Y-33517D01*
X63259Y-28295D01*
X68436Y-30021D01*
G54D10*
G36*
X44960Y-45710D02*
X43040Y-45710D01*
X43040Y-42483D01*
X42772Y-42216D01*
X41008Y-41460D01*
X39790Y-41460D01*
X39790Y-40540D01*
X44960Y-40540D01*
X44960Y-45710D01*
X44960Y-45710D01*
G37*
G54D12*
X44960Y-45710D02*
X43040Y-45710D01*
X43040Y-42483D01*
X42772Y-42216D01*
X41008Y-41460D01*
X39790Y-41460D01*
X39790Y-40540D01*
X44960Y-40540D01*
X44960Y-45710D01*
M02*
