G04 #@! TF.GenerationSoftware,KiCad,Pcbnew,no-vcs-found-f12b19d~59~ubuntu16.04.1*
G04 #@! TF.CreationDate,2017-08-22T16:20:07+03:00*
G04 #@! TF.ProjectId,ssr,7373722E6B696361645F706362000000,rev?*
G04 #@! TF.SameCoordinates,Original*
G04 #@! TF.FileFunction,Soldermask,Top*
G04 #@! TF.FilePolarity,Negative*
%FSLAX46Y46*%
G04 Gerber Fmt 4.6, Leading zero omitted, Abs format (unit mm)*
G04 Created by KiCad (PCBNEW no-vcs-found-f12b19d~59~ubuntu16.04.1) date Tue Aug 22 16:20:07 2017*
%MOMM*%
%LPD*%
G01*
G04 APERTURE LIST*
%ADD10O,1.998980X1.998980*%
%ADD11R,1.998980X1.998980*%
%ADD12C,2.400000*%
%ADD13O,2.400000X1.600000*%
%ADD14R,2.400000X1.600000*%
%ADD15C,2.000000*%
%ADD16R,1.800000X1.800000*%
%ADD17C,1.800000*%
%ADD18C,3.500120*%
%ADD19C,2.999740*%
%ADD20O,4.000000X2.800000*%
%ADD21C,5.080000*%
%ADD22O,1.506220X3.014980*%
%ADD23C,4.000500*%
%ADD24O,1.422400X2.844800*%
%ADD25C,1.998980*%
%ADD26R,1.500000X1.500000*%
%ADD27C,1.500000*%
%ADD28O,1.700000X1.700000*%
%ADD29R,1.700000X1.700000*%
%ADD30R,2.800000X2.800000*%
%ADD31C,2.800000*%
G04 APERTURE END LIST*
D10*
X196500000Y-78880000D03*
D11*
X196500000Y-86500000D03*
D10*
X196500000Y-83960000D03*
X196500000Y-81420000D03*
X196500000Y-31420000D03*
D11*
X196500000Y-39040000D03*
D10*
X196500000Y-36500000D03*
X196500000Y-33960000D03*
D12*
X119500000Y-86500000D03*
X119500000Y-71500000D03*
D13*
X160380000Y-82500000D03*
X168000000Y-77420000D03*
X160380000Y-79960000D03*
X168000000Y-79960000D03*
X160380000Y-77420000D03*
D14*
X168000000Y-82500000D03*
D15*
X108500000Y-83500000D03*
X108500000Y-73500000D03*
D12*
X137500000Y-25500000D03*
X152500000Y-25500000D03*
D16*
X190000000Y-65000000D03*
D17*
X190000000Y-62460000D03*
D16*
X190000000Y-57500000D03*
D17*
X190000000Y-54960000D03*
D18*
X105001260Y-94998740D03*
X105001260Y-24998880D03*
X195001080Y-24998880D03*
X195001080Y-94998740D03*
D19*
X147890000Y-84000000D03*
X130110000Y-84000000D03*
D20*
X103000000Y-65524500D03*
X103000000Y-60000000D03*
X103000000Y-54475500D03*
D21*
X114000000Y-61000000D03*
X114000000Y-53380000D03*
X114000000Y-25948000D03*
X114000000Y-33568000D03*
D22*
X173650000Y-28000000D03*
X176190000Y-28000000D03*
X178730000Y-28000000D03*
X181270000Y-28000000D03*
X183810000Y-28000000D03*
X186350000Y-28000000D03*
D23*
X139999960Y-67500000D03*
X139999960Y-47500040D03*
D24*
X122111000Y-45040000D03*
X123889000Y-39960000D03*
D25*
X137420000Y-30500000D03*
X147580000Y-30500000D03*
D19*
X125500000Y-83890000D03*
X125500000Y-66110000D03*
D25*
X114000000Y-81620000D03*
X114000000Y-66380000D03*
D26*
X152000000Y-71500000D03*
D27*
X154000000Y-71500000D03*
D26*
X191000000Y-42000000D03*
D27*
X189000000Y-42000000D03*
D28*
X168960000Y-43080000D03*
X171500000Y-43080000D03*
X168960000Y-40540000D03*
X171500000Y-40540000D03*
X168960000Y-38000000D03*
D29*
X171500000Y-38000000D03*
D30*
X130500000Y-25500000D03*
D31*
X130500000Y-31000000D03*
X160000000Y-31000000D03*
D30*
X160000000Y-25500000D03*
M02*
