G04 (created by PCBNEW (2013-mar-13)-testing) date Tue 07 May 2013 10:03:09 PM CEST*
%MOIN*%
G04 Gerber Fmt 3.4, Leading zero omitted, Abs format*
%FSLAX34Y34*%
G01*
G70*
G90*
G04 APERTURE LIST*
%ADD10C,2.3622e-06*%
%ADD11C,0.551181*%
%ADD12O,0.165X0.0825*%
%ADD13O,0.0593X0.1187*%
%ADD14C,0.0787*%
%ADD15C,0.0906*%
%ADD16C,0.2*%
%ADD17C,0.0859*%
%ADD18C,0.06*%
%ADD19R,0.06X0.06*%
%ADD20R,0.062X0.062*%
%ADD21C,0.062*%
%ADD22C,0.1575*%
%ADD23O,0.112X0.056*%
%ADD24C,0.1*%
%ADD25O,0.104X0.052*%
%ADD26C,0.2362*%
%ADD27R,0.035X0.055*%
%ADD28R,0.025X0.045*%
%ADD29C,0.04*%
%ADD30C,0.2047*%
%ADD31C,0.02*%
%ADD32C,0.01*%
%ADD33C,0.05*%
%ADD34C,0.008*%
G04 APERTURE END LIST*
G54D10*
G54D11*
X47250Y-28750D03*
X57000Y-28750D03*
X66000Y-28750D03*
G54D12*
X40500Y-43200D03*
X40500Y-41000D03*
X40500Y-38800D03*
G54D13*
X71250Y-31400D03*
X72250Y-31400D03*
X73250Y-31400D03*
X74250Y-31400D03*
X75250Y-31400D03*
X76250Y-31400D03*
G54D14*
X72000Y-53000D03*
G54D15*
X56252Y-53000D03*
G54D16*
X44000Y-45000D03*
X44000Y-42000D03*
X44000Y-31200D03*
X44000Y-34200D03*
G54D14*
X46750Y-43500D03*
X46750Y-37500D03*
X48250Y-43500D03*
X48250Y-37500D03*
X50250Y-37500D03*
X50250Y-45500D03*
G54D17*
X77250Y-42500D03*
X75875Y-42500D03*
G54D18*
X77200Y-39400D03*
X76200Y-40400D03*
X77200Y-40400D03*
X76200Y-41400D03*
X77200Y-41400D03*
G54D19*
X76200Y-39400D03*
G54D20*
X77200Y-44000D03*
G54D21*
X77200Y-45000D03*
X77200Y-46000D03*
X77200Y-47000D03*
G54D20*
X77200Y-33750D03*
G54D21*
X77200Y-34750D03*
X77200Y-35750D03*
X77200Y-36750D03*
G54D22*
X59374Y-45000D03*
X59374Y-37126D03*
G54D23*
X51250Y-29900D03*
X53250Y-30600D03*
G54D24*
X52000Y-46000D03*
X52000Y-52000D03*
X47250Y-34750D03*
X53250Y-34750D03*
X47000Y-45000D03*
X47000Y-49000D03*
G54D25*
X72000Y-44750D03*
X72000Y-43750D03*
X72000Y-42750D03*
X69000Y-42750D03*
X69000Y-43750D03*
X69000Y-44750D03*
G54D26*
X41750Y-28750D03*
X75500Y-28500D03*
X41750Y-53250D03*
X75250Y-53250D03*
G54D14*
X47250Y-32500D03*
X53250Y-32500D03*
G54D27*
X72525Y-35900D03*
X71775Y-35900D03*
X72525Y-34900D03*
X71775Y-34900D03*
G54D28*
X73700Y-34900D03*
X73100Y-34900D03*
X73700Y-35900D03*
X73100Y-35900D03*
G54D14*
X77000Y-49750D03*
G54D15*
X61252Y-49750D03*
G54D29*
X76000Y-35200D03*
X75600Y-38850D03*
X55250Y-36250D03*
X75250Y-38400D03*
X76500Y-34600D03*
X74300Y-46700D03*
X73600Y-46700D03*
X72200Y-46700D03*
X72100Y-46100D03*
X71300Y-45600D03*
X75550Y-37850D03*
X75350Y-37250D03*
X76000Y-45750D03*
X75250Y-45750D03*
X74600Y-36550D03*
X74050Y-36600D03*
X50250Y-42250D03*
X72600Y-41700D03*
X72600Y-36600D03*
X73100Y-36900D03*
X73100Y-46400D03*
G54D30*
X44000Y-45000D02*
X44000Y-42000D01*
G54D31*
X76200Y-39400D02*
X76200Y-38700D01*
X76100Y-35300D02*
X76000Y-35200D01*
X76100Y-38600D02*
X76100Y-35300D01*
X76200Y-38700D02*
X76100Y-38600D01*
G54D32*
X77200Y-40400D02*
X76700Y-40900D01*
X75600Y-38850D02*
X75600Y-38850D01*
X75600Y-40800D02*
X75600Y-38850D01*
X75700Y-40900D02*
X75600Y-40800D01*
X76700Y-40900D02*
X75700Y-40900D01*
G54D33*
X57000Y-28750D02*
X57000Y-31250D01*
X55250Y-33000D02*
X55250Y-36250D01*
X57000Y-31250D02*
X55250Y-33000D01*
G54D31*
X76200Y-41400D02*
X75650Y-41400D01*
X75150Y-38500D02*
X75250Y-38400D01*
X75150Y-38500D02*
X75150Y-39050D01*
X75300Y-39200D02*
X75150Y-39050D01*
X75300Y-41050D02*
X75300Y-39200D01*
X75650Y-41400D02*
X75300Y-41050D01*
G54D32*
X76700Y-38600D02*
X76500Y-38400D01*
X76200Y-40400D02*
X76300Y-40400D01*
X76700Y-40000D02*
X76700Y-39500D01*
X76300Y-40400D02*
X76700Y-40000D01*
X76700Y-39500D02*
X76700Y-38600D01*
G54D31*
X76500Y-38400D02*
X76500Y-34600D01*
X73400Y-46900D02*
X73600Y-46700D01*
X72400Y-46900D02*
X73400Y-46900D01*
X72200Y-46700D02*
X72400Y-46900D01*
X72000Y-46100D02*
X72100Y-46100D01*
X71300Y-45600D02*
X72000Y-46100D01*
X75550Y-37450D02*
X75550Y-37850D01*
X75350Y-37250D02*
X75550Y-37450D01*
X75250Y-45750D02*
X76000Y-45750D01*
G54D33*
X69000Y-42750D02*
X69000Y-42500D01*
X41550Y-37750D02*
X40500Y-38800D01*
X42750Y-37750D02*
X44500Y-37750D01*
X44500Y-37750D02*
X47000Y-40250D01*
X47000Y-40250D02*
X66750Y-40250D01*
X42750Y-37750D02*
X41550Y-37750D01*
X69000Y-42500D02*
X66750Y-40250D01*
G54D30*
X59374Y-45000D02*
X59374Y-45126D01*
X59374Y-45126D02*
X56000Y-48500D01*
X56000Y-48500D02*
X43000Y-48500D01*
X43000Y-48500D02*
X40500Y-46000D01*
X40500Y-46000D02*
X40500Y-43800D01*
X40500Y-43800D02*
X40500Y-43500D01*
G54D31*
X73700Y-34900D02*
X74100Y-35300D01*
X74100Y-36050D02*
X74600Y-36550D01*
X74100Y-35300D02*
X74100Y-36050D01*
X72525Y-34900D02*
X73100Y-34900D01*
X73700Y-35900D02*
X73700Y-36250D01*
X73700Y-36250D02*
X74050Y-36600D01*
X73100Y-35900D02*
X72525Y-35900D01*
G54D30*
X47250Y-32500D02*
X47000Y-32750D01*
X47000Y-32750D02*
X44750Y-32750D01*
X43750Y-33750D02*
X44750Y-32750D01*
X42750Y-32750D02*
X43750Y-31750D01*
X43750Y-31750D02*
X47250Y-28250D01*
X44750Y-32750D02*
X47250Y-30250D01*
X47250Y-30250D02*
X47250Y-28250D01*
X47250Y-32500D02*
X47250Y-28250D01*
G54D33*
X69000Y-44750D02*
X67750Y-44750D01*
X65250Y-42250D02*
X50250Y-42250D01*
X67750Y-44750D02*
X65250Y-42250D01*
G54D31*
X72600Y-36600D02*
X72600Y-41700D01*
X77200Y-36750D02*
X77750Y-36200D01*
X77750Y-32900D02*
X76250Y-31400D01*
X77750Y-36200D02*
X77750Y-32900D01*
X77200Y-46000D02*
X77750Y-45450D01*
X77750Y-43000D02*
X77250Y-42500D01*
X77750Y-45450D02*
X77750Y-43000D01*
X77200Y-39400D02*
X77750Y-39950D01*
X77750Y-39950D02*
X77750Y-42000D01*
X77750Y-42000D02*
X77250Y-42500D01*
G54D33*
X77200Y-39400D02*
X77200Y-36700D01*
G54D31*
X73100Y-46400D02*
X73100Y-36900D01*
G54D10*
G36*
X78090Y-47960D02*
X77990Y-47960D01*
X77990Y-45450D01*
X77990Y-43000D01*
X77971Y-42908D01*
X77919Y-42830D01*
X77785Y-42695D01*
X77819Y-42613D01*
X77819Y-42387D01*
X77785Y-42304D01*
X77919Y-42169D01*
X77971Y-42091D01*
X77989Y-42000D01*
X77990Y-42000D01*
X77990Y-39950D01*
X77971Y-39858D01*
X77919Y-39780D01*
X77919Y-39780D01*
X77636Y-39496D01*
X77639Y-39487D01*
X77640Y-39312D01*
X77590Y-39191D01*
X77590Y-36984D01*
X77649Y-36839D01*
X77650Y-36660D01*
X77643Y-36645D01*
X77919Y-36369D01*
X77919Y-36369D01*
X77971Y-36291D01*
X77989Y-36200D01*
X77990Y-36200D01*
X77990Y-32900D01*
X77971Y-32808D01*
X77919Y-32730D01*
X77919Y-32730D01*
X76686Y-31497D01*
X76686Y-31088D01*
X76653Y-30921D01*
X76558Y-30779D01*
X76417Y-30685D01*
X76250Y-30652D01*
X76082Y-30685D01*
X75941Y-30779D01*
X75846Y-30921D01*
X75813Y-31088D01*
X75813Y-31711D01*
X75846Y-31878D01*
X75941Y-32020D01*
X76082Y-32114D01*
X76250Y-32147D01*
X76417Y-32114D01*
X76541Y-32031D01*
X77510Y-32999D01*
X77510Y-33300D01*
X77482Y-33299D01*
X77295Y-33300D01*
X77260Y-33335D01*
X77260Y-33690D01*
X77267Y-33690D01*
X77267Y-33810D01*
X77260Y-33810D01*
X77260Y-34165D01*
X77295Y-34200D01*
X77482Y-34200D01*
X77510Y-34199D01*
X77510Y-34423D01*
X77455Y-34368D01*
X77289Y-34300D01*
X77140Y-34299D01*
X77140Y-34165D01*
X77140Y-33810D01*
X77140Y-33690D01*
X77140Y-33335D01*
X77105Y-33300D01*
X76917Y-33299D01*
X76862Y-33300D01*
X76810Y-33321D01*
X76771Y-33360D01*
X76749Y-33412D01*
X76750Y-33655D01*
X76785Y-33690D01*
X77140Y-33690D01*
X77140Y-33810D01*
X76785Y-33810D01*
X76750Y-33845D01*
X76749Y-34087D01*
X76771Y-34139D01*
X76810Y-34178D01*
X76862Y-34199D01*
X76917Y-34200D01*
X77105Y-34200D01*
X77140Y-34165D01*
X77140Y-34299D01*
X77110Y-34299D01*
X76945Y-34368D01*
X76822Y-34490D01*
X76788Y-34407D01*
X76692Y-34311D01*
X76567Y-34260D01*
X76432Y-34259D01*
X76307Y-34311D01*
X76211Y-34407D01*
X76160Y-34532D01*
X76159Y-34667D01*
X76211Y-34792D01*
X76260Y-34840D01*
X76260Y-34979D01*
X76192Y-34911D01*
X76067Y-34860D01*
X75932Y-34859D01*
X75807Y-34911D01*
X75711Y-35007D01*
X75660Y-35132D01*
X75659Y-35267D01*
X75711Y-35392D01*
X75807Y-35488D01*
X75860Y-35510D01*
X75860Y-38600D01*
X75867Y-38636D01*
X75792Y-38561D01*
X75667Y-38510D01*
X75572Y-38509D01*
X75589Y-38467D01*
X75590Y-38332D01*
X75538Y-38207D01*
X75442Y-38111D01*
X75317Y-38060D01*
X75182Y-38059D01*
X75057Y-38111D01*
X74961Y-38207D01*
X74940Y-38259D01*
X74940Y-36482D01*
X74888Y-36357D01*
X74792Y-36261D01*
X74686Y-36217D01*
X74686Y-31711D01*
X74686Y-31088D01*
X74653Y-30921D01*
X74558Y-30779D01*
X74417Y-30685D01*
X74250Y-30652D01*
X74082Y-30685D01*
X73941Y-30779D01*
X73846Y-30921D01*
X73813Y-31088D01*
X73813Y-31711D01*
X73846Y-31878D01*
X73941Y-32020D01*
X74082Y-32114D01*
X74250Y-32147D01*
X74417Y-32114D01*
X74558Y-32020D01*
X74653Y-31878D01*
X74686Y-31711D01*
X74686Y-36217D01*
X74667Y-36210D01*
X74599Y-36209D01*
X74340Y-35950D01*
X74340Y-35300D01*
X74339Y-35299D01*
X74321Y-35208D01*
X74290Y-35161D01*
X74269Y-35130D01*
X74269Y-35130D01*
X73965Y-34825D01*
X73965Y-34647D01*
X73943Y-34595D01*
X73904Y-34556D01*
X73852Y-34535D01*
X73797Y-34534D01*
X73686Y-34534D01*
X73686Y-31711D01*
X73686Y-31088D01*
X73653Y-30921D01*
X73558Y-30779D01*
X73417Y-30685D01*
X73250Y-30652D01*
X73082Y-30685D01*
X72941Y-30779D01*
X72846Y-30921D01*
X72813Y-31088D01*
X72813Y-31711D01*
X72846Y-31878D01*
X72941Y-32020D01*
X73082Y-32114D01*
X73250Y-32147D01*
X73417Y-32114D01*
X73558Y-32020D01*
X73653Y-31878D01*
X73686Y-31711D01*
X73686Y-34534D01*
X73547Y-34534D01*
X73495Y-34556D01*
X73456Y-34595D01*
X73435Y-34647D01*
X73434Y-34702D01*
X73434Y-35152D01*
X73456Y-35204D01*
X73495Y-35243D01*
X73547Y-35264D01*
X73602Y-35265D01*
X73725Y-35265D01*
X73860Y-35399D01*
X73860Y-35537D01*
X73852Y-35535D01*
X73797Y-35534D01*
X73547Y-35534D01*
X73495Y-35556D01*
X73456Y-35595D01*
X73435Y-35647D01*
X73434Y-35702D01*
X73434Y-36152D01*
X73456Y-36204D01*
X73460Y-36207D01*
X73460Y-36250D01*
X73478Y-36341D01*
X73530Y-36419D01*
X73710Y-36599D01*
X73709Y-36667D01*
X73761Y-36792D01*
X73857Y-36888D01*
X73982Y-36939D01*
X74117Y-36940D01*
X74242Y-36888D01*
X74338Y-36792D01*
X74345Y-36775D01*
X74407Y-36838D01*
X74532Y-36889D01*
X74667Y-36890D01*
X74792Y-36838D01*
X74888Y-36742D01*
X74939Y-36617D01*
X74940Y-36482D01*
X74940Y-38259D01*
X74910Y-38332D01*
X74909Y-38467D01*
X74914Y-38478D01*
X74910Y-38500D01*
X74910Y-39050D01*
X74928Y-39141D01*
X74980Y-39219D01*
X75060Y-39299D01*
X75060Y-41050D01*
X75078Y-41141D01*
X75130Y-41219D01*
X75480Y-41569D01*
X75480Y-41569D01*
X75558Y-41621D01*
X75649Y-41639D01*
X75650Y-41640D01*
X75823Y-41640D01*
X75826Y-41648D01*
X75950Y-41772D01*
X76112Y-41839D01*
X76287Y-41840D01*
X76448Y-41773D01*
X76572Y-41649D01*
X76639Y-41487D01*
X76640Y-41312D01*
X76573Y-41151D01*
X76512Y-41090D01*
X76700Y-41090D01*
X76772Y-41075D01*
X76834Y-41034D01*
X77053Y-40815D01*
X77112Y-40839D01*
X77287Y-40840D01*
X77448Y-40773D01*
X77510Y-40712D01*
X77510Y-41076D01*
X77474Y-41040D01*
X77446Y-41068D01*
X77412Y-41005D01*
X77245Y-40953D01*
X77071Y-40970D01*
X76987Y-41005D01*
X76953Y-41068D01*
X77200Y-41315D01*
X77205Y-41309D01*
X77290Y-41394D01*
X77284Y-41400D01*
X77290Y-41405D01*
X77205Y-41490D01*
X77200Y-41484D01*
X77115Y-41569D01*
X77115Y-41400D01*
X76868Y-41153D01*
X76805Y-41187D01*
X76753Y-41354D01*
X76770Y-41528D01*
X76805Y-41612D01*
X76868Y-41646D01*
X77115Y-41400D01*
X77115Y-41569D01*
X76953Y-41731D01*
X76987Y-41794D01*
X77154Y-41846D01*
X77328Y-41829D01*
X77412Y-41794D01*
X77446Y-41731D01*
X77446Y-41731D01*
X77474Y-41759D01*
X77510Y-41723D01*
X77510Y-41900D01*
X77446Y-41963D01*
X77445Y-41964D01*
X77363Y-41930D01*
X77137Y-41930D01*
X76927Y-42016D01*
X76767Y-42176D01*
X76680Y-42386D01*
X76680Y-42612D01*
X76766Y-42822D01*
X76926Y-42982D01*
X77136Y-43069D01*
X77362Y-43069D01*
X77445Y-43035D01*
X77510Y-43099D01*
X77510Y-43550D01*
X77482Y-43549D01*
X77295Y-43550D01*
X77260Y-43585D01*
X77260Y-43940D01*
X77267Y-43940D01*
X77267Y-44060D01*
X77260Y-44060D01*
X77260Y-44415D01*
X77295Y-44450D01*
X77482Y-44450D01*
X77510Y-44449D01*
X77510Y-44673D01*
X77455Y-44618D01*
X77289Y-44550D01*
X77140Y-44549D01*
X77140Y-44415D01*
X77140Y-44060D01*
X77140Y-43940D01*
X77140Y-43585D01*
X77105Y-43550D01*
X76917Y-43549D01*
X76862Y-43550D01*
X76810Y-43571D01*
X76771Y-43610D01*
X76749Y-43662D01*
X76750Y-43905D01*
X76785Y-43940D01*
X77140Y-43940D01*
X77140Y-44060D01*
X76785Y-44060D01*
X76750Y-44095D01*
X76749Y-44337D01*
X76771Y-44389D01*
X76810Y-44428D01*
X76862Y-44449D01*
X76917Y-44450D01*
X77105Y-44450D01*
X77140Y-44415D01*
X77140Y-44549D01*
X77110Y-44549D01*
X76945Y-44618D01*
X76818Y-44744D01*
X76750Y-44910D01*
X76749Y-45089D01*
X76818Y-45254D01*
X76944Y-45381D01*
X77110Y-45449D01*
X77289Y-45450D01*
X77454Y-45381D01*
X77510Y-45326D01*
X77510Y-45350D01*
X77304Y-45556D01*
X77289Y-45550D01*
X77110Y-45549D01*
X76945Y-45618D01*
X76818Y-45744D01*
X76750Y-45910D01*
X76749Y-46089D01*
X76818Y-46254D01*
X76944Y-46381D01*
X77110Y-46449D01*
X77289Y-46450D01*
X77454Y-46381D01*
X77581Y-46255D01*
X77649Y-46089D01*
X77650Y-45910D01*
X77643Y-45895D01*
X77919Y-45619D01*
X77919Y-45619D01*
X77971Y-45541D01*
X77989Y-45450D01*
X77990Y-45450D01*
X77990Y-47960D01*
X77650Y-47960D01*
X77650Y-46910D01*
X77581Y-46745D01*
X77455Y-46618D01*
X77289Y-46550D01*
X77110Y-46549D01*
X76945Y-46618D01*
X76818Y-46744D01*
X76750Y-46910D01*
X76749Y-47089D01*
X76818Y-47254D01*
X76944Y-47381D01*
X77110Y-47449D01*
X77289Y-47450D01*
X77454Y-47381D01*
X77581Y-47255D01*
X77649Y-47089D01*
X77650Y-46910D01*
X77650Y-47960D01*
X76450Y-47960D01*
X76450Y-42576D01*
X76436Y-42350D01*
X76377Y-42209D01*
X76300Y-42158D01*
X76216Y-42243D01*
X76216Y-42074D01*
X76165Y-41997D01*
X75951Y-41924D01*
X75725Y-41938D01*
X75584Y-41997D01*
X75533Y-42074D01*
X75875Y-42415D01*
X76216Y-42074D01*
X76216Y-42243D01*
X75959Y-42500D01*
X76300Y-42841D01*
X76377Y-42790D01*
X76450Y-42576D01*
X76450Y-47960D01*
X76216Y-47960D01*
X76216Y-42925D01*
X75875Y-42584D01*
X75790Y-42669D01*
X75790Y-42500D01*
X75449Y-42158D01*
X75372Y-42209D01*
X75299Y-42423D01*
X75313Y-42649D01*
X75372Y-42790D01*
X75449Y-42841D01*
X75790Y-42500D01*
X75790Y-42669D01*
X75533Y-42925D01*
X75584Y-43002D01*
X75798Y-43075D01*
X76024Y-43061D01*
X76165Y-43002D01*
X76216Y-42925D01*
X76216Y-47960D01*
X75500Y-47960D01*
X74750Y-47960D01*
X73440Y-47960D01*
X73440Y-46332D01*
X73388Y-46207D01*
X73340Y-46159D01*
X73340Y-37140D01*
X73388Y-37092D01*
X73439Y-36967D01*
X73440Y-36832D01*
X73388Y-36707D01*
X73292Y-36611D01*
X73167Y-36560D01*
X73032Y-36559D01*
X72940Y-36598D01*
X72940Y-36532D01*
X72888Y-36407D01*
X72792Y-36311D01*
X72764Y-36299D01*
X72779Y-36293D01*
X72818Y-36254D01*
X72839Y-36202D01*
X72840Y-36164D01*
X72856Y-36204D01*
X72895Y-36243D01*
X72947Y-36264D01*
X73002Y-36265D01*
X73252Y-36265D01*
X73304Y-36243D01*
X73343Y-36204D01*
X73364Y-36152D01*
X73365Y-36097D01*
X73365Y-35647D01*
X73365Y-35097D01*
X73365Y-34647D01*
X73343Y-34595D01*
X73304Y-34556D01*
X73252Y-34535D01*
X73197Y-34534D01*
X72947Y-34534D01*
X72895Y-34556D01*
X72856Y-34595D01*
X72840Y-34634D01*
X72840Y-34597D01*
X72818Y-34545D01*
X72779Y-34506D01*
X72727Y-34485D01*
X72686Y-34484D01*
X72686Y-31711D01*
X72686Y-31088D01*
X72653Y-30921D01*
X72558Y-30779D01*
X72417Y-30685D01*
X72250Y-30652D01*
X72082Y-30685D01*
X71941Y-30779D01*
X71846Y-30921D01*
X71813Y-31088D01*
X71813Y-31711D01*
X71846Y-31878D01*
X71941Y-32020D01*
X72082Y-32114D01*
X72250Y-32147D01*
X72417Y-32114D01*
X72558Y-32020D01*
X72653Y-31878D01*
X72686Y-31711D01*
X72686Y-34484D01*
X72672Y-34484D01*
X72322Y-34484D01*
X72270Y-34506D01*
X72231Y-34545D01*
X72210Y-34597D01*
X72209Y-34652D01*
X72209Y-35202D01*
X72231Y-35254D01*
X72270Y-35293D01*
X72322Y-35314D01*
X72377Y-35315D01*
X72727Y-35315D01*
X72779Y-35293D01*
X72818Y-35254D01*
X72839Y-35202D01*
X72840Y-35164D01*
X72856Y-35204D01*
X72895Y-35243D01*
X72947Y-35264D01*
X73002Y-35265D01*
X73252Y-35265D01*
X73304Y-35243D01*
X73343Y-35204D01*
X73364Y-35152D01*
X73365Y-35097D01*
X73365Y-35647D01*
X73343Y-35595D01*
X73304Y-35556D01*
X73252Y-35535D01*
X73197Y-35534D01*
X72947Y-35534D01*
X72895Y-35556D01*
X72856Y-35595D01*
X72840Y-35634D01*
X72840Y-35597D01*
X72818Y-35545D01*
X72779Y-35506D01*
X72727Y-35485D01*
X72672Y-35484D01*
X72322Y-35484D01*
X72270Y-35506D01*
X72231Y-35545D01*
X72210Y-35597D01*
X72209Y-35652D01*
X72209Y-36202D01*
X72231Y-36254D01*
X72270Y-36293D01*
X72322Y-36314D01*
X72377Y-36315D01*
X72404Y-36315D01*
X72311Y-36407D01*
X72260Y-36532D01*
X72259Y-36667D01*
X72311Y-36792D01*
X72360Y-36840D01*
X72360Y-41459D01*
X72311Y-41507D01*
X72260Y-41632D01*
X72259Y-41767D01*
X72311Y-41892D01*
X72407Y-41988D01*
X72532Y-42039D01*
X72667Y-42040D01*
X72792Y-41988D01*
X72860Y-41920D01*
X72860Y-46159D01*
X72811Y-46207D01*
X72760Y-46332D01*
X72759Y-46467D01*
X72811Y-46592D01*
X72907Y-46688D01*
X73032Y-46739D01*
X73167Y-46740D01*
X73292Y-46688D01*
X73388Y-46592D01*
X73439Y-46467D01*
X73440Y-46332D01*
X73440Y-47960D01*
X72672Y-47960D01*
X72672Y-44750D01*
X72672Y-43750D01*
X72672Y-42750D01*
X72642Y-42596D01*
X72555Y-42467D01*
X72426Y-42380D01*
X72272Y-42350D01*
X72090Y-42350D01*
X72090Y-36147D01*
X72090Y-35652D01*
X72090Y-35147D01*
X72090Y-34652D01*
X72089Y-34597D01*
X72068Y-34545D01*
X72029Y-34506D01*
X71977Y-34484D01*
X71870Y-34485D01*
X71835Y-34520D01*
X71835Y-34840D01*
X72055Y-34840D01*
X72090Y-34805D01*
X72090Y-34652D01*
X72090Y-35147D01*
X72090Y-34995D01*
X72055Y-34960D01*
X71835Y-34960D01*
X71835Y-35280D01*
X71870Y-35315D01*
X71977Y-35315D01*
X72029Y-35293D01*
X72068Y-35254D01*
X72089Y-35202D01*
X72090Y-35147D01*
X72090Y-35652D01*
X72089Y-35597D01*
X72068Y-35545D01*
X72029Y-35506D01*
X71977Y-35484D01*
X71870Y-35485D01*
X71835Y-35520D01*
X71835Y-35840D01*
X72055Y-35840D01*
X72090Y-35805D01*
X72090Y-35652D01*
X72090Y-36147D01*
X72090Y-35995D01*
X72055Y-35960D01*
X71835Y-35960D01*
X71835Y-36280D01*
X71870Y-36315D01*
X71977Y-36315D01*
X72029Y-36293D01*
X72068Y-36254D01*
X72089Y-36202D01*
X72090Y-36147D01*
X72090Y-42350D01*
X71727Y-42350D01*
X71715Y-42352D01*
X71715Y-36280D01*
X71715Y-35960D01*
X71715Y-35840D01*
X71715Y-35520D01*
X71715Y-35280D01*
X71715Y-34960D01*
X71715Y-34840D01*
X71715Y-34520D01*
X71686Y-34491D01*
X71686Y-31757D01*
X71686Y-31460D01*
X71686Y-31340D01*
X71686Y-31043D01*
X71630Y-30880D01*
X71516Y-30751D01*
X71376Y-30685D01*
X71310Y-30706D01*
X71310Y-31340D01*
X71686Y-31340D01*
X71686Y-31460D01*
X71310Y-31460D01*
X71310Y-32093D01*
X71376Y-32114D01*
X71516Y-32048D01*
X71630Y-31919D01*
X71686Y-31757D01*
X71686Y-34491D01*
X71680Y-34485D01*
X71572Y-34484D01*
X71520Y-34506D01*
X71481Y-34545D01*
X71460Y-34597D01*
X71459Y-34652D01*
X71460Y-34805D01*
X71495Y-34840D01*
X71715Y-34840D01*
X71715Y-34960D01*
X71495Y-34960D01*
X71460Y-34995D01*
X71459Y-35147D01*
X71460Y-35202D01*
X71481Y-35254D01*
X71520Y-35293D01*
X71572Y-35315D01*
X71680Y-35315D01*
X71715Y-35280D01*
X71715Y-35520D01*
X71680Y-35485D01*
X71572Y-35484D01*
X71520Y-35506D01*
X71481Y-35545D01*
X71460Y-35597D01*
X71459Y-35652D01*
X71460Y-35805D01*
X71495Y-35840D01*
X71715Y-35840D01*
X71715Y-35960D01*
X71495Y-35960D01*
X71460Y-35995D01*
X71459Y-36147D01*
X71460Y-36202D01*
X71481Y-36254D01*
X71520Y-36293D01*
X71572Y-36315D01*
X71680Y-36315D01*
X71715Y-36280D01*
X71715Y-42352D01*
X71573Y-42380D01*
X71444Y-42467D01*
X71357Y-42596D01*
X71327Y-42750D01*
X71357Y-42903D01*
X71444Y-43032D01*
X71573Y-43119D01*
X71727Y-43150D01*
X72272Y-43150D01*
X72426Y-43119D01*
X72555Y-43032D01*
X72642Y-42903D01*
X72672Y-42750D01*
X72672Y-43750D01*
X72642Y-43596D01*
X72555Y-43467D01*
X72426Y-43380D01*
X72272Y-43350D01*
X71727Y-43350D01*
X71573Y-43380D01*
X71444Y-43467D01*
X71357Y-43596D01*
X71327Y-43750D01*
X71357Y-43903D01*
X71444Y-44032D01*
X71573Y-44119D01*
X71727Y-44150D01*
X72272Y-44150D01*
X72426Y-44119D01*
X72555Y-44032D01*
X72642Y-43903D01*
X72672Y-43750D01*
X72672Y-44750D01*
X72642Y-44596D01*
X72555Y-44467D01*
X72426Y-44380D01*
X72272Y-44350D01*
X71727Y-44350D01*
X71573Y-44380D01*
X71444Y-44467D01*
X71357Y-44596D01*
X71327Y-44750D01*
X71357Y-44903D01*
X71444Y-45032D01*
X71573Y-45119D01*
X71727Y-45150D01*
X72272Y-45150D01*
X72426Y-45119D01*
X72555Y-45032D01*
X72642Y-44903D01*
X72672Y-44750D01*
X72672Y-47960D01*
X71040Y-47960D01*
X71040Y-43509D01*
X71290Y-43009D01*
X71290Y-39983D01*
X71190Y-39883D01*
X71190Y-32093D01*
X71190Y-31460D01*
X71190Y-31340D01*
X71190Y-30706D01*
X71123Y-30685D01*
X70983Y-30751D01*
X70869Y-30880D01*
X70813Y-31043D01*
X70813Y-31340D01*
X71190Y-31340D01*
X71190Y-31460D01*
X70813Y-31460D01*
X70813Y-31757D01*
X70869Y-31919D01*
X70983Y-32048D01*
X71123Y-32114D01*
X71190Y-32093D01*
X71190Y-39883D01*
X70790Y-39483D01*
X70790Y-30040D01*
X73899Y-30040D01*
X74240Y-30381D01*
X75040Y-30713D01*
X74941Y-30779D01*
X74846Y-30921D01*
X74813Y-31088D01*
X74813Y-31711D01*
X74846Y-31878D01*
X74941Y-32020D01*
X75082Y-32114D01*
X75250Y-32147D01*
X75417Y-32114D01*
X75558Y-32020D01*
X75653Y-31878D01*
X75686Y-31711D01*
X75686Y-31088D01*
X75653Y-30921D01*
X75558Y-30779D01*
X75470Y-30720D01*
X75939Y-30721D01*
X76756Y-30383D01*
X77101Y-30040D01*
X78090Y-30040D01*
X78090Y-47960D01*
X78090Y-47960D01*
G37*
G54D34*
X78090Y-47960D02*
X77990Y-47960D01*
X77990Y-45450D01*
X77990Y-43000D01*
X77971Y-42908D01*
X77919Y-42830D01*
X77785Y-42695D01*
X77819Y-42613D01*
X77819Y-42387D01*
X77785Y-42304D01*
X77919Y-42169D01*
X77971Y-42091D01*
X77989Y-42000D01*
X77990Y-42000D01*
X77990Y-39950D01*
X77971Y-39858D01*
X77919Y-39780D01*
X77919Y-39780D01*
X77636Y-39496D01*
X77639Y-39487D01*
X77640Y-39312D01*
X77590Y-39191D01*
X77590Y-36984D01*
X77649Y-36839D01*
X77650Y-36660D01*
X77643Y-36645D01*
X77919Y-36369D01*
X77919Y-36369D01*
X77971Y-36291D01*
X77989Y-36200D01*
X77990Y-36200D01*
X77990Y-32900D01*
X77971Y-32808D01*
X77919Y-32730D01*
X77919Y-32730D01*
X76686Y-31497D01*
X76686Y-31088D01*
X76653Y-30921D01*
X76558Y-30779D01*
X76417Y-30685D01*
X76250Y-30652D01*
X76082Y-30685D01*
X75941Y-30779D01*
X75846Y-30921D01*
X75813Y-31088D01*
X75813Y-31711D01*
X75846Y-31878D01*
X75941Y-32020D01*
X76082Y-32114D01*
X76250Y-32147D01*
X76417Y-32114D01*
X76541Y-32031D01*
X77510Y-32999D01*
X77510Y-33300D01*
X77482Y-33299D01*
X77295Y-33300D01*
X77260Y-33335D01*
X77260Y-33690D01*
X77267Y-33690D01*
X77267Y-33810D01*
X77260Y-33810D01*
X77260Y-34165D01*
X77295Y-34200D01*
X77482Y-34200D01*
X77510Y-34199D01*
X77510Y-34423D01*
X77455Y-34368D01*
X77289Y-34300D01*
X77140Y-34299D01*
X77140Y-34165D01*
X77140Y-33810D01*
X77140Y-33690D01*
X77140Y-33335D01*
X77105Y-33300D01*
X76917Y-33299D01*
X76862Y-33300D01*
X76810Y-33321D01*
X76771Y-33360D01*
X76749Y-33412D01*
X76750Y-33655D01*
X76785Y-33690D01*
X77140Y-33690D01*
X77140Y-33810D01*
X76785Y-33810D01*
X76750Y-33845D01*
X76749Y-34087D01*
X76771Y-34139D01*
X76810Y-34178D01*
X76862Y-34199D01*
X76917Y-34200D01*
X77105Y-34200D01*
X77140Y-34165D01*
X77140Y-34299D01*
X77110Y-34299D01*
X76945Y-34368D01*
X76822Y-34490D01*
X76788Y-34407D01*
X76692Y-34311D01*
X76567Y-34260D01*
X76432Y-34259D01*
X76307Y-34311D01*
X76211Y-34407D01*
X76160Y-34532D01*
X76159Y-34667D01*
X76211Y-34792D01*
X76260Y-34840D01*
X76260Y-34979D01*
X76192Y-34911D01*
X76067Y-34860D01*
X75932Y-34859D01*
X75807Y-34911D01*
X75711Y-35007D01*
X75660Y-35132D01*
X75659Y-35267D01*
X75711Y-35392D01*
X75807Y-35488D01*
X75860Y-35510D01*
X75860Y-38600D01*
X75867Y-38636D01*
X75792Y-38561D01*
X75667Y-38510D01*
X75572Y-38509D01*
X75589Y-38467D01*
X75590Y-38332D01*
X75538Y-38207D01*
X75442Y-38111D01*
X75317Y-38060D01*
X75182Y-38059D01*
X75057Y-38111D01*
X74961Y-38207D01*
X74940Y-38259D01*
X74940Y-36482D01*
X74888Y-36357D01*
X74792Y-36261D01*
X74686Y-36217D01*
X74686Y-31711D01*
X74686Y-31088D01*
X74653Y-30921D01*
X74558Y-30779D01*
X74417Y-30685D01*
X74250Y-30652D01*
X74082Y-30685D01*
X73941Y-30779D01*
X73846Y-30921D01*
X73813Y-31088D01*
X73813Y-31711D01*
X73846Y-31878D01*
X73941Y-32020D01*
X74082Y-32114D01*
X74250Y-32147D01*
X74417Y-32114D01*
X74558Y-32020D01*
X74653Y-31878D01*
X74686Y-31711D01*
X74686Y-36217D01*
X74667Y-36210D01*
X74599Y-36209D01*
X74340Y-35950D01*
X74340Y-35300D01*
X74339Y-35299D01*
X74321Y-35208D01*
X74290Y-35161D01*
X74269Y-35130D01*
X74269Y-35130D01*
X73965Y-34825D01*
X73965Y-34647D01*
X73943Y-34595D01*
X73904Y-34556D01*
X73852Y-34535D01*
X73797Y-34534D01*
X73686Y-34534D01*
X73686Y-31711D01*
X73686Y-31088D01*
X73653Y-30921D01*
X73558Y-30779D01*
X73417Y-30685D01*
X73250Y-30652D01*
X73082Y-30685D01*
X72941Y-30779D01*
X72846Y-30921D01*
X72813Y-31088D01*
X72813Y-31711D01*
X72846Y-31878D01*
X72941Y-32020D01*
X73082Y-32114D01*
X73250Y-32147D01*
X73417Y-32114D01*
X73558Y-32020D01*
X73653Y-31878D01*
X73686Y-31711D01*
X73686Y-34534D01*
X73547Y-34534D01*
X73495Y-34556D01*
X73456Y-34595D01*
X73435Y-34647D01*
X73434Y-34702D01*
X73434Y-35152D01*
X73456Y-35204D01*
X73495Y-35243D01*
X73547Y-35264D01*
X73602Y-35265D01*
X73725Y-35265D01*
X73860Y-35399D01*
X73860Y-35537D01*
X73852Y-35535D01*
X73797Y-35534D01*
X73547Y-35534D01*
X73495Y-35556D01*
X73456Y-35595D01*
X73435Y-35647D01*
X73434Y-35702D01*
X73434Y-36152D01*
X73456Y-36204D01*
X73460Y-36207D01*
X73460Y-36250D01*
X73478Y-36341D01*
X73530Y-36419D01*
X73710Y-36599D01*
X73709Y-36667D01*
X73761Y-36792D01*
X73857Y-36888D01*
X73982Y-36939D01*
X74117Y-36940D01*
X74242Y-36888D01*
X74338Y-36792D01*
X74345Y-36775D01*
X74407Y-36838D01*
X74532Y-36889D01*
X74667Y-36890D01*
X74792Y-36838D01*
X74888Y-36742D01*
X74939Y-36617D01*
X74940Y-36482D01*
X74940Y-38259D01*
X74910Y-38332D01*
X74909Y-38467D01*
X74914Y-38478D01*
X74910Y-38500D01*
X74910Y-39050D01*
X74928Y-39141D01*
X74980Y-39219D01*
X75060Y-39299D01*
X75060Y-41050D01*
X75078Y-41141D01*
X75130Y-41219D01*
X75480Y-41569D01*
X75480Y-41569D01*
X75558Y-41621D01*
X75649Y-41639D01*
X75650Y-41640D01*
X75823Y-41640D01*
X75826Y-41648D01*
X75950Y-41772D01*
X76112Y-41839D01*
X76287Y-41840D01*
X76448Y-41773D01*
X76572Y-41649D01*
X76639Y-41487D01*
X76640Y-41312D01*
X76573Y-41151D01*
X76512Y-41090D01*
X76700Y-41090D01*
X76772Y-41075D01*
X76834Y-41034D01*
X77053Y-40815D01*
X77112Y-40839D01*
X77287Y-40840D01*
X77448Y-40773D01*
X77510Y-40712D01*
X77510Y-41076D01*
X77474Y-41040D01*
X77446Y-41068D01*
X77412Y-41005D01*
X77245Y-40953D01*
X77071Y-40970D01*
X76987Y-41005D01*
X76953Y-41068D01*
X77200Y-41315D01*
X77205Y-41309D01*
X77290Y-41394D01*
X77284Y-41400D01*
X77290Y-41405D01*
X77205Y-41490D01*
X77200Y-41484D01*
X77115Y-41569D01*
X77115Y-41400D01*
X76868Y-41153D01*
X76805Y-41187D01*
X76753Y-41354D01*
X76770Y-41528D01*
X76805Y-41612D01*
X76868Y-41646D01*
X77115Y-41400D01*
X77115Y-41569D01*
X76953Y-41731D01*
X76987Y-41794D01*
X77154Y-41846D01*
X77328Y-41829D01*
X77412Y-41794D01*
X77446Y-41731D01*
X77446Y-41731D01*
X77474Y-41759D01*
X77510Y-41723D01*
X77510Y-41900D01*
X77446Y-41963D01*
X77445Y-41964D01*
X77363Y-41930D01*
X77137Y-41930D01*
X76927Y-42016D01*
X76767Y-42176D01*
X76680Y-42386D01*
X76680Y-42612D01*
X76766Y-42822D01*
X76926Y-42982D01*
X77136Y-43069D01*
X77362Y-43069D01*
X77445Y-43035D01*
X77510Y-43099D01*
X77510Y-43550D01*
X77482Y-43549D01*
X77295Y-43550D01*
X77260Y-43585D01*
X77260Y-43940D01*
X77267Y-43940D01*
X77267Y-44060D01*
X77260Y-44060D01*
X77260Y-44415D01*
X77295Y-44450D01*
X77482Y-44450D01*
X77510Y-44449D01*
X77510Y-44673D01*
X77455Y-44618D01*
X77289Y-44550D01*
X77140Y-44549D01*
X77140Y-44415D01*
X77140Y-44060D01*
X77140Y-43940D01*
X77140Y-43585D01*
X77105Y-43550D01*
X76917Y-43549D01*
X76862Y-43550D01*
X76810Y-43571D01*
X76771Y-43610D01*
X76749Y-43662D01*
X76750Y-43905D01*
X76785Y-43940D01*
X77140Y-43940D01*
X77140Y-44060D01*
X76785Y-44060D01*
X76750Y-44095D01*
X76749Y-44337D01*
X76771Y-44389D01*
X76810Y-44428D01*
X76862Y-44449D01*
X76917Y-44450D01*
X77105Y-44450D01*
X77140Y-44415D01*
X77140Y-44549D01*
X77110Y-44549D01*
X76945Y-44618D01*
X76818Y-44744D01*
X76750Y-44910D01*
X76749Y-45089D01*
X76818Y-45254D01*
X76944Y-45381D01*
X77110Y-45449D01*
X77289Y-45450D01*
X77454Y-45381D01*
X77510Y-45326D01*
X77510Y-45350D01*
X77304Y-45556D01*
X77289Y-45550D01*
X77110Y-45549D01*
X76945Y-45618D01*
X76818Y-45744D01*
X76750Y-45910D01*
X76749Y-46089D01*
X76818Y-46254D01*
X76944Y-46381D01*
X77110Y-46449D01*
X77289Y-46450D01*
X77454Y-46381D01*
X77581Y-46255D01*
X77649Y-46089D01*
X77650Y-45910D01*
X77643Y-45895D01*
X77919Y-45619D01*
X77919Y-45619D01*
X77971Y-45541D01*
X77989Y-45450D01*
X77990Y-45450D01*
X77990Y-47960D01*
X77650Y-47960D01*
X77650Y-46910D01*
X77581Y-46745D01*
X77455Y-46618D01*
X77289Y-46550D01*
X77110Y-46549D01*
X76945Y-46618D01*
X76818Y-46744D01*
X76750Y-46910D01*
X76749Y-47089D01*
X76818Y-47254D01*
X76944Y-47381D01*
X77110Y-47449D01*
X77289Y-47450D01*
X77454Y-47381D01*
X77581Y-47255D01*
X77649Y-47089D01*
X77650Y-46910D01*
X77650Y-47960D01*
X76450Y-47960D01*
X76450Y-42576D01*
X76436Y-42350D01*
X76377Y-42209D01*
X76300Y-42158D01*
X76216Y-42243D01*
X76216Y-42074D01*
X76165Y-41997D01*
X75951Y-41924D01*
X75725Y-41938D01*
X75584Y-41997D01*
X75533Y-42074D01*
X75875Y-42415D01*
X76216Y-42074D01*
X76216Y-42243D01*
X75959Y-42500D01*
X76300Y-42841D01*
X76377Y-42790D01*
X76450Y-42576D01*
X76450Y-47960D01*
X76216Y-47960D01*
X76216Y-42925D01*
X75875Y-42584D01*
X75790Y-42669D01*
X75790Y-42500D01*
X75449Y-42158D01*
X75372Y-42209D01*
X75299Y-42423D01*
X75313Y-42649D01*
X75372Y-42790D01*
X75449Y-42841D01*
X75790Y-42500D01*
X75790Y-42669D01*
X75533Y-42925D01*
X75584Y-43002D01*
X75798Y-43075D01*
X76024Y-43061D01*
X76165Y-43002D01*
X76216Y-42925D01*
X76216Y-47960D01*
X75500Y-47960D01*
X74750Y-47960D01*
X73440Y-47960D01*
X73440Y-46332D01*
X73388Y-46207D01*
X73340Y-46159D01*
X73340Y-37140D01*
X73388Y-37092D01*
X73439Y-36967D01*
X73440Y-36832D01*
X73388Y-36707D01*
X73292Y-36611D01*
X73167Y-36560D01*
X73032Y-36559D01*
X72940Y-36598D01*
X72940Y-36532D01*
X72888Y-36407D01*
X72792Y-36311D01*
X72764Y-36299D01*
X72779Y-36293D01*
X72818Y-36254D01*
X72839Y-36202D01*
X72840Y-36164D01*
X72856Y-36204D01*
X72895Y-36243D01*
X72947Y-36264D01*
X73002Y-36265D01*
X73252Y-36265D01*
X73304Y-36243D01*
X73343Y-36204D01*
X73364Y-36152D01*
X73365Y-36097D01*
X73365Y-35647D01*
X73365Y-35097D01*
X73365Y-34647D01*
X73343Y-34595D01*
X73304Y-34556D01*
X73252Y-34535D01*
X73197Y-34534D01*
X72947Y-34534D01*
X72895Y-34556D01*
X72856Y-34595D01*
X72840Y-34634D01*
X72840Y-34597D01*
X72818Y-34545D01*
X72779Y-34506D01*
X72727Y-34485D01*
X72686Y-34484D01*
X72686Y-31711D01*
X72686Y-31088D01*
X72653Y-30921D01*
X72558Y-30779D01*
X72417Y-30685D01*
X72250Y-30652D01*
X72082Y-30685D01*
X71941Y-30779D01*
X71846Y-30921D01*
X71813Y-31088D01*
X71813Y-31711D01*
X71846Y-31878D01*
X71941Y-32020D01*
X72082Y-32114D01*
X72250Y-32147D01*
X72417Y-32114D01*
X72558Y-32020D01*
X72653Y-31878D01*
X72686Y-31711D01*
X72686Y-34484D01*
X72672Y-34484D01*
X72322Y-34484D01*
X72270Y-34506D01*
X72231Y-34545D01*
X72210Y-34597D01*
X72209Y-34652D01*
X72209Y-35202D01*
X72231Y-35254D01*
X72270Y-35293D01*
X72322Y-35314D01*
X72377Y-35315D01*
X72727Y-35315D01*
X72779Y-35293D01*
X72818Y-35254D01*
X72839Y-35202D01*
X72840Y-35164D01*
X72856Y-35204D01*
X72895Y-35243D01*
X72947Y-35264D01*
X73002Y-35265D01*
X73252Y-35265D01*
X73304Y-35243D01*
X73343Y-35204D01*
X73364Y-35152D01*
X73365Y-35097D01*
X73365Y-35647D01*
X73343Y-35595D01*
X73304Y-35556D01*
X73252Y-35535D01*
X73197Y-35534D01*
X72947Y-35534D01*
X72895Y-35556D01*
X72856Y-35595D01*
X72840Y-35634D01*
X72840Y-35597D01*
X72818Y-35545D01*
X72779Y-35506D01*
X72727Y-35485D01*
X72672Y-35484D01*
X72322Y-35484D01*
X72270Y-35506D01*
X72231Y-35545D01*
X72210Y-35597D01*
X72209Y-35652D01*
X72209Y-36202D01*
X72231Y-36254D01*
X72270Y-36293D01*
X72322Y-36314D01*
X72377Y-36315D01*
X72404Y-36315D01*
X72311Y-36407D01*
X72260Y-36532D01*
X72259Y-36667D01*
X72311Y-36792D01*
X72360Y-36840D01*
X72360Y-41459D01*
X72311Y-41507D01*
X72260Y-41632D01*
X72259Y-41767D01*
X72311Y-41892D01*
X72407Y-41988D01*
X72532Y-42039D01*
X72667Y-42040D01*
X72792Y-41988D01*
X72860Y-41920D01*
X72860Y-46159D01*
X72811Y-46207D01*
X72760Y-46332D01*
X72759Y-46467D01*
X72811Y-46592D01*
X72907Y-46688D01*
X73032Y-46739D01*
X73167Y-46740D01*
X73292Y-46688D01*
X73388Y-46592D01*
X73439Y-46467D01*
X73440Y-46332D01*
X73440Y-47960D01*
X72672Y-47960D01*
X72672Y-44750D01*
X72672Y-43750D01*
X72672Y-42750D01*
X72642Y-42596D01*
X72555Y-42467D01*
X72426Y-42380D01*
X72272Y-42350D01*
X72090Y-42350D01*
X72090Y-36147D01*
X72090Y-35652D01*
X72090Y-35147D01*
X72090Y-34652D01*
X72089Y-34597D01*
X72068Y-34545D01*
X72029Y-34506D01*
X71977Y-34484D01*
X71870Y-34485D01*
X71835Y-34520D01*
X71835Y-34840D01*
X72055Y-34840D01*
X72090Y-34805D01*
X72090Y-34652D01*
X72090Y-35147D01*
X72090Y-34995D01*
X72055Y-34960D01*
X71835Y-34960D01*
X71835Y-35280D01*
X71870Y-35315D01*
X71977Y-35315D01*
X72029Y-35293D01*
X72068Y-35254D01*
X72089Y-35202D01*
X72090Y-35147D01*
X72090Y-35652D01*
X72089Y-35597D01*
X72068Y-35545D01*
X72029Y-35506D01*
X71977Y-35484D01*
X71870Y-35485D01*
X71835Y-35520D01*
X71835Y-35840D01*
X72055Y-35840D01*
X72090Y-35805D01*
X72090Y-35652D01*
X72090Y-36147D01*
X72090Y-35995D01*
X72055Y-35960D01*
X71835Y-35960D01*
X71835Y-36280D01*
X71870Y-36315D01*
X71977Y-36315D01*
X72029Y-36293D01*
X72068Y-36254D01*
X72089Y-36202D01*
X72090Y-36147D01*
X72090Y-42350D01*
X71727Y-42350D01*
X71715Y-42352D01*
X71715Y-36280D01*
X71715Y-35960D01*
X71715Y-35840D01*
X71715Y-35520D01*
X71715Y-35280D01*
X71715Y-34960D01*
X71715Y-34840D01*
X71715Y-34520D01*
X71686Y-34491D01*
X71686Y-31757D01*
X71686Y-31460D01*
X71686Y-31340D01*
X71686Y-31043D01*
X71630Y-30880D01*
X71516Y-30751D01*
X71376Y-30685D01*
X71310Y-30706D01*
X71310Y-31340D01*
X71686Y-31340D01*
X71686Y-31460D01*
X71310Y-31460D01*
X71310Y-32093D01*
X71376Y-32114D01*
X71516Y-32048D01*
X71630Y-31919D01*
X71686Y-31757D01*
X71686Y-34491D01*
X71680Y-34485D01*
X71572Y-34484D01*
X71520Y-34506D01*
X71481Y-34545D01*
X71460Y-34597D01*
X71459Y-34652D01*
X71460Y-34805D01*
X71495Y-34840D01*
X71715Y-34840D01*
X71715Y-34960D01*
X71495Y-34960D01*
X71460Y-34995D01*
X71459Y-35147D01*
X71460Y-35202D01*
X71481Y-35254D01*
X71520Y-35293D01*
X71572Y-35315D01*
X71680Y-35315D01*
X71715Y-35280D01*
X71715Y-35520D01*
X71680Y-35485D01*
X71572Y-35484D01*
X71520Y-35506D01*
X71481Y-35545D01*
X71460Y-35597D01*
X71459Y-35652D01*
X71460Y-35805D01*
X71495Y-35840D01*
X71715Y-35840D01*
X71715Y-35960D01*
X71495Y-35960D01*
X71460Y-35995D01*
X71459Y-36147D01*
X71460Y-36202D01*
X71481Y-36254D01*
X71520Y-36293D01*
X71572Y-36315D01*
X71680Y-36315D01*
X71715Y-36280D01*
X71715Y-42352D01*
X71573Y-42380D01*
X71444Y-42467D01*
X71357Y-42596D01*
X71327Y-42750D01*
X71357Y-42903D01*
X71444Y-43032D01*
X71573Y-43119D01*
X71727Y-43150D01*
X72272Y-43150D01*
X72426Y-43119D01*
X72555Y-43032D01*
X72642Y-42903D01*
X72672Y-42750D01*
X72672Y-43750D01*
X72642Y-43596D01*
X72555Y-43467D01*
X72426Y-43380D01*
X72272Y-43350D01*
X71727Y-43350D01*
X71573Y-43380D01*
X71444Y-43467D01*
X71357Y-43596D01*
X71327Y-43750D01*
X71357Y-43903D01*
X71444Y-44032D01*
X71573Y-44119D01*
X71727Y-44150D01*
X72272Y-44150D01*
X72426Y-44119D01*
X72555Y-44032D01*
X72642Y-43903D01*
X72672Y-43750D01*
X72672Y-44750D01*
X72642Y-44596D01*
X72555Y-44467D01*
X72426Y-44380D01*
X72272Y-44350D01*
X71727Y-44350D01*
X71573Y-44380D01*
X71444Y-44467D01*
X71357Y-44596D01*
X71327Y-44750D01*
X71357Y-44903D01*
X71444Y-45032D01*
X71573Y-45119D01*
X71727Y-45150D01*
X72272Y-45150D01*
X72426Y-45119D01*
X72555Y-45032D01*
X72642Y-44903D01*
X72672Y-44750D01*
X72672Y-47960D01*
X71040Y-47960D01*
X71040Y-43509D01*
X71290Y-43009D01*
X71290Y-39983D01*
X71190Y-39883D01*
X71190Y-32093D01*
X71190Y-31460D01*
X71190Y-31340D01*
X71190Y-30706D01*
X71123Y-30685D01*
X70983Y-30751D01*
X70869Y-30880D01*
X70813Y-31043D01*
X70813Y-31340D01*
X71190Y-31340D01*
X71190Y-31460D01*
X70813Y-31460D01*
X70813Y-31757D01*
X70869Y-31919D01*
X70983Y-32048D01*
X71123Y-32114D01*
X71190Y-32093D01*
X71190Y-39883D01*
X70790Y-39483D01*
X70790Y-30040D01*
X73899Y-30040D01*
X74240Y-30381D01*
X75040Y-30713D01*
X74941Y-30779D01*
X74846Y-30921D01*
X74813Y-31088D01*
X74813Y-31711D01*
X74846Y-31878D01*
X74941Y-32020D01*
X75082Y-32114D01*
X75250Y-32147D01*
X75417Y-32114D01*
X75558Y-32020D01*
X75653Y-31878D01*
X75686Y-31711D01*
X75686Y-31088D01*
X75653Y-30921D01*
X75558Y-30779D01*
X75470Y-30720D01*
X75939Y-30721D01*
X76756Y-30383D01*
X77101Y-30040D01*
X78090Y-30040D01*
X78090Y-47960D01*
G54D10*
G36*
X49486Y-29371D02*
X47911Y-33112D01*
X44240Y-34699D01*
X41898Y-34601D01*
X41800Y-31466D01*
X42177Y-30981D01*
X42191Y-30981D01*
X43012Y-30642D01*
X43640Y-30015D01*
X43980Y-29195D01*
X43981Y-28662D01*
X45263Y-27014D01*
X49486Y-29371D01*
X49486Y-29371D01*
G37*
G54D32*
X49486Y-29371D02*
X47911Y-33112D01*
X44240Y-34699D01*
X41898Y-34601D01*
X41800Y-31466D01*
X42177Y-30981D01*
X42191Y-30981D01*
X43012Y-30642D01*
X43640Y-30015D01*
X43980Y-29195D01*
X43981Y-28662D01*
X45263Y-27014D01*
X49486Y-29371D01*
G54D10*
G36*
X59710Y-51460D02*
X53475Y-51460D01*
X52725Y-52960D01*
X43971Y-52960D01*
X43971Y-52810D01*
X43633Y-51993D01*
X43009Y-51368D01*
X42193Y-51029D01*
X41310Y-51028D01*
X40493Y-51366D01*
X40319Y-51539D01*
X40319Y-44290D01*
X41936Y-44290D01*
X41936Y-45000D01*
X41959Y-45117D01*
X41959Y-45404D01*
X42069Y-45671D01*
X42093Y-45789D01*
X42160Y-45889D01*
X42269Y-46154D01*
X42473Y-46358D01*
X42540Y-46459D01*
X42640Y-46525D01*
X42842Y-46728D01*
X43109Y-46839D01*
X43210Y-46906D01*
X43327Y-46929D01*
X43592Y-47039D01*
X43881Y-47039D01*
X44000Y-47063D01*
X44117Y-47040D01*
X44404Y-47040D01*
X44671Y-46930D01*
X44789Y-46906D01*
X44889Y-46839D01*
X45154Y-46730D01*
X45358Y-46526D01*
X45459Y-46459D01*
X45525Y-46359D01*
X45728Y-46157D01*
X45802Y-45979D01*
X46126Y-46304D01*
X46692Y-46539D01*
X47304Y-46540D01*
X47871Y-46306D01*
X48304Y-45873D01*
X48539Y-45307D01*
X48540Y-44931D01*
X49015Y-44734D01*
X48816Y-45213D01*
X48816Y-45783D01*
X49034Y-46310D01*
X49436Y-46714D01*
X49963Y-46933D01*
X50533Y-46933D01*
X50692Y-46868D01*
X50693Y-46871D01*
X51126Y-47304D01*
X51692Y-47539D01*
X52304Y-47540D01*
X52871Y-47306D01*
X53304Y-46873D01*
X53539Y-46307D01*
X53540Y-45695D01*
X53306Y-45128D01*
X52873Y-44695D01*
X52307Y-44460D01*
X51695Y-44459D01*
X51370Y-44593D01*
X51067Y-44290D01*
X59710Y-44290D01*
X59710Y-44500D01*
X59710Y-51460D01*
X59710Y-51460D01*
G37*
G54D34*
X59710Y-51460D02*
X53475Y-51460D01*
X52725Y-52960D01*
X43971Y-52960D01*
X43971Y-52810D01*
X43633Y-51993D01*
X43009Y-51368D01*
X42193Y-51029D01*
X41310Y-51028D01*
X40493Y-51366D01*
X40319Y-51539D01*
X40319Y-44290D01*
X41936Y-44290D01*
X41936Y-45000D01*
X41959Y-45117D01*
X41959Y-45404D01*
X42069Y-45671D01*
X42093Y-45789D01*
X42160Y-45889D01*
X42269Y-46154D01*
X42473Y-46358D01*
X42540Y-46459D01*
X42640Y-46525D01*
X42842Y-46728D01*
X43109Y-46839D01*
X43210Y-46906D01*
X43327Y-46929D01*
X43592Y-47039D01*
X43881Y-47039D01*
X44000Y-47063D01*
X44117Y-47040D01*
X44404Y-47040D01*
X44671Y-46930D01*
X44789Y-46906D01*
X44889Y-46839D01*
X45154Y-46730D01*
X45358Y-46526D01*
X45459Y-46459D01*
X45525Y-46359D01*
X45728Y-46157D01*
X45802Y-45979D01*
X46126Y-46304D01*
X46692Y-46539D01*
X47304Y-46540D01*
X47871Y-46306D01*
X48304Y-45873D01*
X48539Y-45307D01*
X48540Y-44931D01*
X49015Y-44734D01*
X48816Y-45213D01*
X48816Y-45783D01*
X49034Y-46310D01*
X49436Y-46714D01*
X49963Y-46933D01*
X50533Y-46933D01*
X50692Y-46868D01*
X50693Y-46871D01*
X51126Y-47304D01*
X51692Y-47539D01*
X52304Y-47540D01*
X52871Y-47306D01*
X53304Y-46873D01*
X53539Y-46307D01*
X53540Y-45695D01*
X53306Y-45128D01*
X52873Y-44695D01*
X52307Y-44460D01*
X51695Y-44459D01*
X51370Y-44593D01*
X51067Y-44290D01*
X59710Y-44290D01*
X59710Y-44500D01*
X59710Y-51460D01*
G54D10*
G36*
X45210Y-43210D02*
X42790Y-43210D01*
X42790Y-42223D01*
X41008Y-41460D01*
X40618Y-41460D01*
X40500Y-41436D01*
X40381Y-41460D01*
X40319Y-41460D01*
X40319Y-40540D01*
X45210Y-40540D01*
X45210Y-43210D01*
X45210Y-43210D01*
G37*
G54D34*
X45210Y-43210D02*
X42790Y-43210D01*
X42790Y-42223D01*
X41008Y-41460D01*
X40618Y-41460D01*
X40500Y-41436D01*
X40381Y-41460D01*
X40319Y-41460D01*
X40319Y-40540D01*
X45210Y-40540D01*
X45210Y-43210D01*
G54D10*
G36*
X68460Y-38210D02*
X57540Y-38210D01*
X57540Y-33518D01*
X63508Y-28295D01*
X68242Y-30040D01*
X68460Y-30040D01*
X68460Y-38210D01*
X68460Y-38210D01*
G37*
G54D34*
X68460Y-38210D02*
X57540Y-38210D01*
X57540Y-33518D01*
X63508Y-28295D01*
X68242Y-30040D01*
X68460Y-30040D01*
X68460Y-38210D01*
M02*
