G04 #@! TF.GenerationSoftware,KiCad,Pcbnew,no-vcs-found-f12b19d~59~ubuntu16.04.1*
G04 #@! TF.CreationDate,2017-08-22T16:20:07+03:00*
G04 #@! TF.ProjectId,ssr,7373722E6B696361645F706362000000,rev?*
G04 #@! TF.SameCoordinates,Original*
G04 #@! TF.FileFunction,Legend,Bot*
G04 #@! TF.FilePolarity,Positive*
%FSLAX46Y46*%
G04 Gerber Fmt 4.6, Leading zero omitted, Abs format (unit mm)*
G04 Created by KiCad (PCBNEW no-vcs-found-f12b19d~59~ubuntu16.04.1) date Tue Aug 22 16:20:07 2017*
%MOMM*%
%LPD*%
G01*
G04 APERTURE LIST*
%ADD10C,0.120000*%
%ADD11C,0.381000*%
%ADD12C,0.127000*%
%ADD13C,0.150000*%
%ADD14C,0.110000*%
%ADD15R,0.800000X0.750000*%
%ADD16R,0.750000X0.800000*%
%ADD17O,1.998980X1.998980*%
%ADD18R,1.998980X1.998980*%
%ADD19R,0.600000X0.450000*%
%ADD20C,2.400000*%
%ADD21R,1.500000X1.800000*%
%ADD22O,2.400000X1.600000*%
%ADD23R,2.400000X1.600000*%
%ADD24C,2.000000*%
%ADD25R,1.800000X1.800000*%
%ADD26C,1.800000*%
%ADD27C,3.500120*%
%ADD28C,2.999740*%
%ADD29O,4.000000X2.800000*%
%ADD30C,5.080000*%
%ADD31C,4.000500*%
%ADD32O,1.422400X2.844800*%
%ADD33R,1.000760X0.899160*%
%ADD34R,0.599440X1.000760*%
%ADD35R,0.899160X1.000760*%
%ADD36R,1.600200X2.692400*%
%ADD37R,1.000760X0.599440*%
%ADD38C,1.998980*%
%ADD39R,1.500000X1.500000*%
%ADD40C,1.500000*%
%ADD41R,0.600000X1.500000*%
%ADD42R,1.550000X0.600000*%
%ADD43O,1.700000X1.700000*%
%ADD44R,1.700000X1.700000*%
%ADD45R,2.800000X2.800000*%
%ADD46C,2.800000*%
G04 APERTURE END LIST*
D10*
X169600000Y-83900000D02*
X168900000Y-83900000D01*
X168900000Y-85100000D02*
X169600000Y-85100000D01*
X185600000Y-44350000D02*
X185600000Y-43650000D01*
X184400000Y-43650000D02*
X184400000Y-44350000D01*
X189650000Y-39100000D02*
X190350000Y-39100000D01*
X190350000Y-37900000D02*
X189650000Y-37900000D01*
X154728016Y-65619204D02*
X157278016Y-65619204D01*
X154728016Y-63919204D02*
X157278016Y-63919204D01*
X154728016Y-65619204D02*
X154728016Y-63919204D01*
X153918016Y-65824204D02*
X151368016Y-65824204D01*
X153918016Y-67524204D02*
X151368016Y-67524204D01*
X153918016Y-65824204D02*
X153918016Y-67524204D01*
X153918016Y-62014204D02*
X151368016Y-62014204D01*
X153918016Y-63714204D02*
X151368016Y-63714204D01*
X153918016Y-62014204D02*
X153918016Y-63714204D01*
X150918016Y-65619204D02*
X153468016Y-65619204D01*
X150918016Y-63919204D02*
X153468016Y-63919204D01*
X150918016Y-65619204D02*
X150918016Y-63919204D01*
X150918016Y-69429204D02*
X153468016Y-69429204D01*
X150918016Y-67729204D02*
X153468016Y-67729204D01*
X150918016Y-69429204D02*
X150918016Y-67729204D01*
D11*
X163330000Y-68350000D02*
G75*
G03X163330000Y-68350000I-800000J0D01*
G01*
X168030000Y-69750000D02*
X161030000Y-69750000D01*
X161030000Y-69750000D02*
X161030000Y-60550000D01*
X161030000Y-60550000D02*
X168030000Y-60550000D01*
X168030000Y-60550000D02*
X168030000Y-69750000D01*
D12*
X150284416Y-65963004D02*
X149471616Y-65963004D01*
X149497016Y-64845404D02*
X150284416Y-64845404D01*
X149471616Y-64591404D02*
X149471616Y-66217004D01*
X149471616Y-66217004D02*
X150284416Y-66217004D01*
X150284416Y-66217004D02*
X150284416Y-64591404D01*
X150284416Y-64591404D02*
X149471616Y-64591404D01*
X157180516Y-66824064D02*
X157180516Y-66163664D01*
X155275516Y-66824064D02*
X155275516Y-66163664D01*
X156228016Y-68221064D02*
X156228016Y-68881464D01*
X154729416Y-68221064D02*
X157726616Y-68221064D01*
X157726616Y-68221064D02*
X157726616Y-66824064D01*
X157726616Y-66824064D02*
X154729416Y-66824064D01*
X154729416Y-66824064D02*
X154729416Y-68221064D01*
X179906400Y-49558800D02*
X179093600Y-49558800D01*
X179119000Y-48441200D02*
X179906400Y-48441200D01*
X179093600Y-48187200D02*
X179093600Y-49812800D01*
X179093600Y-49812800D02*
X179906400Y-49812800D01*
X179906400Y-49812800D02*
X179906400Y-48187200D01*
X179906400Y-48187200D02*
X179093600Y-48187200D01*
X156903656Y-60552804D02*
X156903656Y-61365604D01*
X155786056Y-61340204D02*
X155786056Y-60552804D01*
X155532056Y-61365604D02*
X157157656Y-61365604D01*
X157157656Y-61365604D02*
X157157656Y-60552804D01*
X157157656Y-60552804D02*
X155532056Y-60552804D01*
X155532056Y-60552804D02*
X155532056Y-61365604D01*
X156786816Y-62457804D02*
X156786816Y-63270604D01*
X155669216Y-63245204D02*
X155669216Y-62457804D01*
X155415216Y-63270604D02*
X157040816Y-63270604D01*
X157040816Y-63270604D02*
X157040816Y-62457804D01*
X157040816Y-62457804D02*
X155415216Y-62457804D01*
X155415216Y-62457804D02*
X155415216Y-63270604D01*
X179093600Y-45441200D02*
X179906400Y-45441200D01*
X179881000Y-46558800D02*
X179093600Y-46558800D01*
X179906400Y-46812800D02*
X179906400Y-45187200D01*
X179906400Y-45187200D02*
X179093600Y-45187200D01*
X179093600Y-45187200D02*
X179093600Y-46812800D01*
X179093600Y-46812800D02*
X179906400Y-46812800D01*
X173843600Y-79941200D02*
X174656400Y-79941200D01*
X174631000Y-81058800D02*
X173843600Y-81058800D01*
X174656400Y-81312800D02*
X174656400Y-79687200D01*
X174656400Y-79687200D02*
X173843600Y-79687200D01*
X173843600Y-79687200D02*
X173843600Y-81312800D01*
X173843600Y-81312800D02*
X174656400Y-81312800D01*
X170093600Y-80191200D02*
X170906400Y-80191200D01*
X170881000Y-81308800D02*
X170093600Y-81308800D01*
X170906400Y-81562800D02*
X170906400Y-79937200D01*
X170906400Y-79937200D02*
X170093600Y-79937200D01*
X170093600Y-79937200D02*
X170093600Y-81562800D01*
X170093600Y-81562800D02*
X170906400Y-81562800D01*
X186941200Y-65406400D02*
X186941200Y-64593600D01*
X188058800Y-64619000D02*
X188058800Y-65406400D01*
X188312800Y-64593600D02*
X186687200Y-64593600D01*
X186687200Y-64593600D02*
X186687200Y-65406400D01*
X186687200Y-65406400D02*
X188312800Y-65406400D01*
X188312800Y-65406400D02*
X188312800Y-64593600D01*
X186941200Y-57906400D02*
X186941200Y-57093600D01*
X188058800Y-57119000D02*
X188058800Y-57906400D01*
X188312800Y-57093600D02*
X186687200Y-57093600D01*
X186687200Y-57093600D02*
X186687200Y-57906400D01*
X186687200Y-57906400D02*
X188312800Y-57906400D01*
X188312800Y-57906400D02*
X188312800Y-57093600D01*
X149532000Y-57793500D02*
X149532000Y-60206500D01*
X145468000Y-60206500D02*
X145468000Y-57793500D01*
X144896500Y-60206500D02*
X144896500Y-57793500D01*
X144896500Y-57793500D02*
X150103500Y-57793500D01*
X150103500Y-57793500D02*
X150103500Y-60206500D01*
X150103500Y-60206500D02*
X144896500Y-60206500D01*
X131532000Y-59793500D02*
X131532000Y-62206500D01*
X127468000Y-62206500D02*
X127468000Y-59793500D01*
X126896500Y-62206500D02*
X126896500Y-59793500D01*
X126896500Y-59793500D02*
X132103500Y-59793500D01*
X132103500Y-59793500D02*
X132103500Y-62206500D01*
X132103500Y-62206500D02*
X126896500Y-62206500D01*
X172448500Y-84452500D02*
X173108900Y-84452500D01*
X172448500Y-82547500D02*
X173108900Y-82547500D01*
X171051500Y-83500000D02*
X170391100Y-83500000D01*
X171051500Y-82001400D02*
X171051500Y-84998600D01*
X171051500Y-84998600D02*
X172448500Y-84998600D01*
X172448500Y-84998600D02*
X172448500Y-82001400D01*
X172448500Y-82001400D02*
X171051500Y-82001400D01*
X172343600Y-79941200D02*
X173156400Y-79941200D01*
X173131000Y-81058800D02*
X172343600Y-81058800D01*
X173156400Y-81312800D02*
X173156400Y-79687200D01*
X173156400Y-79687200D02*
X172343600Y-79687200D01*
X172343600Y-79687200D02*
X172343600Y-81312800D01*
X172343600Y-81312800D02*
X173156400Y-81312800D01*
D13*
X183925000Y-42575000D02*
X183925000Y-43950000D01*
X175050000Y-42575000D02*
X175050000Y-38425000D01*
X183950000Y-42575000D02*
X183950000Y-38425000D01*
X175050000Y-42575000D02*
X175165000Y-42575000D01*
X175050000Y-38425000D02*
X175165000Y-38425000D01*
X183950000Y-38425000D02*
X183835000Y-38425000D01*
X183950000Y-42575000D02*
X183925000Y-42575000D01*
D12*
X192941200Y-34906400D02*
X192941200Y-34093600D01*
X194058800Y-34119000D02*
X194058800Y-34906400D01*
X194312800Y-34093600D02*
X192687200Y-34093600D01*
X192687200Y-34093600D02*
X192687200Y-34906400D01*
X192687200Y-34906400D02*
X194312800Y-34906400D01*
X194312800Y-34906400D02*
X194312800Y-34093600D01*
X192687200Y-35593600D02*
X192687200Y-36406400D01*
X194312800Y-35593600D02*
X192687200Y-35593600D01*
X194312800Y-36406400D02*
X194312800Y-35593600D01*
X192687200Y-36406400D02*
X194312800Y-36406400D01*
X192941200Y-36381000D02*
X192941200Y-35593600D01*
X194058800Y-35593600D02*
X194058800Y-36406400D01*
D13*
X185925000Y-37525000D02*
X184525000Y-37525000D01*
X185925000Y-32425000D02*
X190075000Y-32425000D01*
X185925000Y-37575000D02*
X190075000Y-37575000D01*
X185925000Y-32425000D02*
X185925000Y-32570000D01*
X190075000Y-32425000D02*
X190075000Y-32570000D01*
X190075000Y-37575000D02*
X190075000Y-37430000D01*
X185925000Y-37575000D02*
X185925000Y-37525000D01*
D10*
X172830000Y-36670000D02*
X171500000Y-36670000D01*
X172830000Y-38000000D02*
X172830000Y-36670000D01*
X170230000Y-36670000D02*
X167630000Y-36670000D01*
X170230000Y-39270000D02*
X170230000Y-36670000D01*
X172830000Y-39270000D02*
X170230000Y-39270000D01*
X167630000Y-36670000D02*
X167630000Y-44410000D01*
X172830000Y-39270000D02*
X172830000Y-44410000D01*
X172830000Y-44410000D02*
X167630000Y-44410000D01*
D14*
X169366666Y-83250000D02*
X169400000Y-83283333D01*
X169500000Y-83316666D01*
X169566666Y-83316666D01*
X169666666Y-83283333D01*
X169733333Y-83216666D01*
X169766666Y-83150000D01*
X169800000Y-83016666D01*
X169800000Y-82916666D01*
X169766666Y-82783333D01*
X169733333Y-82716666D01*
X169666666Y-82650000D01*
X169566666Y-82616666D01*
X169500000Y-82616666D01*
X169400000Y-82650000D01*
X169366666Y-82683333D01*
X168766666Y-82616666D02*
X168900000Y-82616666D01*
X168966666Y-82650000D01*
X169000000Y-82683333D01*
X169066666Y-82783333D01*
X169100000Y-82916666D01*
X169100000Y-83183333D01*
X169066666Y-83250000D01*
X169033333Y-83283333D01*
X168966666Y-83316666D01*
X168833333Y-83316666D01*
X168766666Y-83283333D01*
X168733333Y-83250000D01*
X168700000Y-83183333D01*
X168700000Y-83016666D01*
X168733333Y-82950000D01*
X168766666Y-82916666D01*
X168833333Y-82883333D01*
X168966666Y-82883333D01*
X169033333Y-82916666D01*
X169066666Y-82950000D01*
X169100000Y-83016666D01*
X183750000Y-43883333D02*
X183783333Y-43850000D01*
X183816666Y-43750000D01*
X183816666Y-43683333D01*
X183783333Y-43583333D01*
X183716666Y-43516666D01*
X183650000Y-43483333D01*
X183516666Y-43450000D01*
X183416666Y-43450000D01*
X183283333Y-43483333D01*
X183216666Y-43516666D01*
X183150000Y-43583333D01*
X183116666Y-43683333D01*
X183116666Y-43750000D01*
X183150000Y-43850000D01*
X183183333Y-43883333D01*
X183350000Y-44483333D02*
X183816666Y-44483333D01*
X183083333Y-44316666D02*
X183583333Y-44150000D01*
X183583333Y-44583333D01*
X190116666Y-39750000D02*
X190150000Y-39783333D01*
X190250000Y-39816666D01*
X190316666Y-39816666D01*
X190416666Y-39783333D01*
X190483333Y-39716666D01*
X190516666Y-39650000D01*
X190550000Y-39516666D01*
X190550000Y-39416666D01*
X190516666Y-39283333D01*
X190483333Y-39216666D01*
X190416666Y-39150000D01*
X190316666Y-39116666D01*
X190250000Y-39116666D01*
X190150000Y-39150000D01*
X190116666Y-39183333D01*
X189783333Y-39816666D02*
X189650000Y-39816666D01*
X189583333Y-39783333D01*
X189550000Y-39750000D01*
X189483333Y-39650000D01*
X189450000Y-39516666D01*
X189450000Y-39250000D01*
X189483333Y-39183333D01*
X189516666Y-39150000D01*
X189583333Y-39116666D01*
X189716666Y-39116666D01*
X189783333Y-39150000D01*
X189816666Y-39183333D01*
X189850000Y-39250000D01*
X189850000Y-39416666D01*
X189816666Y-39483333D01*
X189783333Y-39516666D01*
X189716666Y-39550000D01*
X189583333Y-39550000D01*
X189516666Y-39516666D01*
X189483333Y-39483333D01*
X189450000Y-39416666D01*
X158516666Y-64816666D02*
X158516666Y-64116666D01*
X158350000Y-64116666D01*
X158250000Y-64150000D01*
X158183333Y-64216666D01*
X158150000Y-64283333D01*
X158116666Y-64416666D01*
X158116666Y-64516666D01*
X158150000Y-64650000D01*
X158183333Y-64716666D01*
X158250000Y-64783333D01*
X158350000Y-64816666D01*
X158516666Y-64816666D01*
X157883333Y-64116666D02*
X157450000Y-64116666D01*
X157683333Y-64383333D01*
X157583333Y-64383333D01*
X157516666Y-64416666D01*
X157483333Y-64450000D01*
X157450000Y-64516666D01*
X157450000Y-64683333D01*
X157483333Y-64750000D01*
X157516666Y-64783333D01*
X157583333Y-64816666D01*
X157783333Y-64816666D01*
X157850000Y-64783333D01*
X157883333Y-64750000D01*
X150516666Y-67316666D02*
X150516666Y-66616666D01*
X150350000Y-66616666D01*
X150250000Y-66650000D01*
X150183333Y-66716666D01*
X150150000Y-66783333D01*
X150116666Y-66916666D01*
X150116666Y-67016666D01*
X150150000Y-67150000D01*
X150183333Y-67216666D01*
X150250000Y-67283333D01*
X150350000Y-67316666D01*
X150516666Y-67316666D01*
X149516666Y-66850000D02*
X149516666Y-67316666D01*
X149683333Y-66583333D02*
X149850000Y-67083333D01*
X149416666Y-67083333D01*
X150516666Y-62816666D02*
X150516666Y-62116666D01*
X150350000Y-62116666D01*
X150250000Y-62150000D01*
X150183333Y-62216666D01*
X150150000Y-62283333D01*
X150116666Y-62416666D01*
X150116666Y-62516666D01*
X150150000Y-62650000D01*
X150183333Y-62716666D01*
X150250000Y-62783333D01*
X150350000Y-62816666D01*
X150516666Y-62816666D01*
X149483333Y-62116666D02*
X149816666Y-62116666D01*
X149850000Y-62450000D01*
X149816666Y-62416666D01*
X149750000Y-62383333D01*
X149583333Y-62383333D01*
X149516666Y-62416666D01*
X149483333Y-62450000D01*
X149450000Y-62516666D01*
X149450000Y-62683333D01*
X149483333Y-62750000D01*
X149516666Y-62783333D01*
X149583333Y-62816666D01*
X149750000Y-62816666D01*
X149816666Y-62783333D01*
X149850000Y-62750000D01*
X150516666Y-64316666D02*
X150516666Y-63616666D01*
X150350000Y-63616666D01*
X150250000Y-63650000D01*
X150183333Y-63716666D01*
X150150000Y-63783333D01*
X150116666Y-63916666D01*
X150116666Y-64016666D01*
X150150000Y-64150000D01*
X150183333Y-64216666D01*
X150250000Y-64283333D01*
X150350000Y-64316666D01*
X150516666Y-64316666D01*
X149516666Y-63616666D02*
X149650000Y-63616666D01*
X149716666Y-63650000D01*
X149750000Y-63683333D01*
X149816666Y-63783333D01*
X149850000Y-63916666D01*
X149850000Y-64183333D01*
X149816666Y-64250000D01*
X149783333Y-64283333D01*
X149716666Y-64316666D01*
X149583333Y-64316666D01*
X149516666Y-64283333D01*
X149483333Y-64250000D01*
X149450000Y-64183333D01*
X149450000Y-64016666D01*
X149483333Y-63950000D01*
X149516666Y-63916666D01*
X149583333Y-63883333D01*
X149716666Y-63883333D01*
X149783333Y-63916666D01*
X149816666Y-63950000D01*
X149850000Y-64016666D01*
X150516666Y-69316666D02*
X150516666Y-68616666D01*
X150350000Y-68616666D01*
X150250000Y-68650000D01*
X150183333Y-68716666D01*
X150150000Y-68783333D01*
X150116666Y-68916666D01*
X150116666Y-69016666D01*
X150150000Y-69150000D01*
X150183333Y-69216666D01*
X150250000Y-69283333D01*
X150350000Y-69316666D01*
X150516666Y-69316666D01*
X149883333Y-68616666D02*
X149416666Y-68616666D01*
X149716666Y-69316666D01*
X164116666Y-70466666D02*
X164683333Y-70466666D01*
X164750000Y-70500000D01*
X164783333Y-70533333D01*
X164816666Y-70600000D01*
X164816666Y-70733333D01*
X164783333Y-70800000D01*
X164750000Y-70833333D01*
X164683333Y-70866666D01*
X164116666Y-70866666D01*
X164116666Y-71133333D02*
X164116666Y-71566666D01*
X164383333Y-71333333D01*
X164383333Y-71433333D01*
X164416666Y-71500000D01*
X164450000Y-71533333D01*
X164516666Y-71566666D01*
X164683333Y-71566666D01*
X164750000Y-71533333D01*
X164783333Y-71500000D01*
X164816666Y-71433333D01*
X164816666Y-71233333D01*
X164783333Y-71166666D01*
X164750000Y-71133333D01*
X149000000Y-65287537D02*
X149033333Y-65254204D01*
X149066666Y-65154204D01*
X149066666Y-65087537D01*
X149033333Y-64987537D01*
X148966666Y-64920870D01*
X148900000Y-64887537D01*
X148766666Y-64854204D01*
X148666666Y-64854204D01*
X148533333Y-64887537D01*
X148466666Y-64920870D01*
X148400000Y-64987537D01*
X148366666Y-65087537D01*
X148366666Y-65154204D01*
X148400000Y-65254204D01*
X148433333Y-65287537D01*
X148666666Y-65687537D02*
X148633333Y-65620870D01*
X148600000Y-65587537D01*
X148533333Y-65554204D01*
X148500000Y-65554204D01*
X148433333Y-65587537D01*
X148400000Y-65620870D01*
X148366666Y-65687537D01*
X148366666Y-65820870D01*
X148400000Y-65887537D01*
X148433333Y-65920870D01*
X148500000Y-65954204D01*
X148533333Y-65954204D01*
X148600000Y-65920870D01*
X148633333Y-65887537D01*
X148666666Y-65820870D01*
X148666666Y-65687537D01*
X148700000Y-65620870D01*
X148733333Y-65587537D01*
X148800000Y-65554204D01*
X148933333Y-65554204D01*
X149000000Y-65587537D01*
X149033333Y-65620870D01*
X149066666Y-65687537D01*
X149066666Y-65820870D01*
X149033333Y-65887537D01*
X149000000Y-65920870D01*
X148933333Y-65954204D01*
X148800000Y-65954204D01*
X148733333Y-65920870D01*
X148700000Y-65887537D01*
X148666666Y-65820870D01*
X158066666Y-69383333D02*
X158133333Y-69350000D01*
X158200000Y-69283333D01*
X158300000Y-69183333D01*
X158366666Y-69150000D01*
X158433333Y-69150000D01*
X158400000Y-69316666D02*
X158466666Y-69283333D01*
X158533333Y-69216666D01*
X158566666Y-69083333D01*
X158566666Y-68850000D01*
X158533333Y-68716666D01*
X158466666Y-68650000D01*
X158400000Y-68616666D01*
X158266666Y-68616666D01*
X158200000Y-68650000D01*
X158133333Y-68716666D01*
X158100000Y-68850000D01*
X158100000Y-69083333D01*
X158133333Y-69216666D01*
X158200000Y-69283333D01*
X158266666Y-69316666D01*
X158400000Y-69316666D01*
X157833333Y-68683333D02*
X157800000Y-68650000D01*
X157733333Y-68616666D01*
X157566666Y-68616666D01*
X157500000Y-68650000D01*
X157466666Y-68683333D01*
X157433333Y-68750000D01*
X157433333Y-68816666D01*
X157466666Y-68916666D01*
X157866666Y-69316666D01*
X157433333Y-69316666D01*
X180816666Y-48883333D02*
X180483333Y-48650000D01*
X180816666Y-48483333D02*
X180116666Y-48483333D01*
X180116666Y-48750000D01*
X180150000Y-48816666D01*
X180183333Y-48850000D01*
X180250000Y-48883333D01*
X180350000Y-48883333D01*
X180416666Y-48850000D01*
X180450000Y-48816666D01*
X180483333Y-48750000D01*
X180483333Y-48483333D01*
X180183333Y-49150000D02*
X180150000Y-49183333D01*
X180116666Y-49250000D01*
X180116666Y-49416666D01*
X180150000Y-49483333D01*
X180183333Y-49516666D01*
X180250000Y-49550000D01*
X180316666Y-49550000D01*
X180416666Y-49516666D01*
X180816666Y-49116666D01*
X180816666Y-49550000D01*
X154616666Y-61316666D02*
X154850000Y-60983333D01*
X155016666Y-61316666D02*
X155016666Y-60616666D01*
X154750000Y-60616666D01*
X154683333Y-60650000D01*
X154650000Y-60683333D01*
X154616666Y-60750000D01*
X154616666Y-60850000D01*
X154650000Y-60916666D01*
X154683333Y-60950000D01*
X154750000Y-60983333D01*
X155016666Y-60983333D01*
X154016666Y-60850000D02*
X154016666Y-61316666D01*
X154183333Y-60583333D02*
X154350000Y-61083333D01*
X153916666Y-61083333D01*
X158116666Y-63066666D02*
X158350000Y-62733333D01*
X158516666Y-63066666D02*
X158516666Y-62366666D01*
X158250000Y-62366666D01*
X158183333Y-62400000D01*
X158150000Y-62433333D01*
X158116666Y-62500000D01*
X158116666Y-62600000D01*
X158150000Y-62666666D01*
X158183333Y-62700000D01*
X158250000Y-62733333D01*
X158516666Y-62733333D01*
X157483333Y-62366666D02*
X157816666Y-62366666D01*
X157850000Y-62700000D01*
X157816666Y-62666666D01*
X157750000Y-62633333D01*
X157583333Y-62633333D01*
X157516666Y-62666666D01*
X157483333Y-62700000D01*
X157450000Y-62766666D01*
X157450000Y-62933333D01*
X157483333Y-63000000D01*
X157516666Y-63033333D01*
X157583333Y-63066666D01*
X157750000Y-63066666D01*
X157816666Y-63033333D01*
X157850000Y-63000000D01*
X180816666Y-45883333D02*
X180483333Y-45650000D01*
X180816666Y-45483333D02*
X180116666Y-45483333D01*
X180116666Y-45750000D01*
X180150000Y-45816666D01*
X180183333Y-45850000D01*
X180250000Y-45883333D01*
X180350000Y-45883333D01*
X180416666Y-45850000D01*
X180450000Y-45816666D01*
X180483333Y-45750000D01*
X180483333Y-45483333D01*
X180116666Y-46116666D02*
X180116666Y-46583333D01*
X180816666Y-46283333D01*
X174566666Y-77883333D02*
X174233333Y-77650000D01*
X174566666Y-77483333D02*
X173866666Y-77483333D01*
X173866666Y-77750000D01*
X173900000Y-77816666D01*
X173933333Y-77850000D01*
X174000000Y-77883333D01*
X174100000Y-77883333D01*
X174166666Y-77850000D01*
X174200000Y-77816666D01*
X174233333Y-77750000D01*
X174233333Y-77483333D01*
X174566666Y-78216666D02*
X174566666Y-78350000D01*
X174533333Y-78416666D01*
X174500000Y-78450000D01*
X174400000Y-78516666D01*
X174266666Y-78550000D01*
X174000000Y-78550000D01*
X173933333Y-78516666D01*
X173900000Y-78483333D01*
X173866666Y-78416666D01*
X173866666Y-78283333D01*
X173900000Y-78216666D01*
X173933333Y-78183333D01*
X174000000Y-78150000D01*
X174166666Y-78150000D01*
X174233333Y-78183333D01*
X174266666Y-78216666D01*
X174300000Y-78283333D01*
X174300000Y-78416666D01*
X174266666Y-78483333D01*
X174233333Y-78516666D01*
X174166666Y-78550000D01*
X170896666Y-77550000D02*
X170563333Y-77316666D01*
X170896666Y-77150000D02*
X170196666Y-77150000D01*
X170196666Y-77416666D01*
X170230000Y-77483333D01*
X170263333Y-77516666D01*
X170330000Y-77550000D01*
X170430000Y-77550000D01*
X170496666Y-77516666D01*
X170530000Y-77483333D01*
X170563333Y-77416666D01*
X170563333Y-77150000D01*
X170896666Y-78216666D02*
X170896666Y-77816666D01*
X170896666Y-78016666D02*
X170196666Y-78016666D01*
X170296666Y-77950000D01*
X170363333Y-77883333D01*
X170396666Y-77816666D01*
X170196666Y-78650000D02*
X170196666Y-78716666D01*
X170230000Y-78783333D01*
X170263333Y-78816666D01*
X170330000Y-78850000D01*
X170463333Y-78883333D01*
X170630000Y-78883333D01*
X170763333Y-78850000D01*
X170830000Y-78816666D01*
X170863333Y-78783333D01*
X170896666Y-78716666D01*
X170896666Y-78650000D01*
X170863333Y-78583333D01*
X170830000Y-78550000D01*
X170763333Y-78516666D01*
X170630000Y-78483333D01*
X170463333Y-78483333D01*
X170330000Y-78516666D01*
X170263333Y-78550000D01*
X170230000Y-78583333D01*
X170196666Y-78650000D01*
X187950000Y-66316666D02*
X188183333Y-65983333D01*
X188350000Y-66316666D02*
X188350000Y-65616666D01*
X188083333Y-65616666D01*
X188016666Y-65650000D01*
X187983333Y-65683333D01*
X187950000Y-65750000D01*
X187950000Y-65850000D01*
X187983333Y-65916666D01*
X188016666Y-65950000D01*
X188083333Y-65983333D01*
X188350000Y-65983333D01*
X187283333Y-66316666D02*
X187683333Y-66316666D01*
X187483333Y-66316666D02*
X187483333Y-65616666D01*
X187550000Y-65716666D01*
X187616666Y-65783333D01*
X187683333Y-65816666D01*
X186616666Y-66316666D02*
X187016666Y-66316666D01*
X186816666Y-66316666D02*
X186816666Y-65616666D01*
X186883333Y-65716666D01*
X186950000Y-65783333D01*
X187016666Y-65816666D01*
X187886000Y-58880666D02*
X188119333Y-58547333D01*
X188286000Y-58880666D02*
X188286000Y-58180666D01*
X188019333Y-58180666D01*
X187952666Y-58214000D01*
X187919333Y-58247333D01*
X187886000Y-58314000D01*
X187886000Y-58414000D01*
X187919333Y-58480666D01*
X187952666Y-58514000D01*
X188019333Y-58547333D01*
X188286000Y-58547333D01*
X187219333Y-58880666D02*
X187619333Y-58880666D01*
X187419333Y-58880666D02*
X187419333Y-58180666D01*
X187486000Y-58280666D01*
X187552666Y-58347333D01*
X187619333Y-58380666D01*
X186952666Y-58247333D02*
X186919333Y-58214000D01*
X186852666Y-58180666D01*
X186686000Y-58180666D01*
X186619333Y-58214000D01*
X186586000Y-58247333D01*
X186552666Y-58314000D01*
X186552666Y-58380666D01*
X186586000Y-58480666D01*
X186986000Y-58880666D01*
X186552666Y-58880666D01*
X147950000Y-61069266D02*
X148183333Y-60735933D01*
X148350000Y-61069266D02*
X148350000Y-60369266D01*
X148083333Y-60369266D01*
X148016666Y-60402600D01*
X147983333Y-60435933D01*
X147950000Y-60502600D01*
X147950000Y-60602600D01*
X147983333Y-60669266D01*
X148016666Y-60702600D01*
X148083333Y-60735933D01*
X148350000Y-60735933D01*
X147283333Y-61069266D02*
X147683333Y-61069266D01*
X147483333Y-61069266D02*
X147483333Y-60369266D01*
X147550000Y-60469266D01*
X147616666Y-60535933D01*
X147683333Y-60569266D01*
X146683333Y-60602600D02*
X146683333Y-61069266D01*
X146850000Y-60335933D02*
X147016666Y-60835933D01*
X146583333Y-60835933D01*
X129950000Y-63069266D02*
X130183333Y-62735933D01*
X130350000Y-63069266D02*
X130350000Y-62369266D01*
X130083333Y-62369266D01*
X130016666Y-62402600D01*
X129983333Y-62435933D01*
X129950000Y-62502600D01*
X129950000Y-62602600D01*
X129983333Y-62669266D01*
X130016666Y-62702600D01*
X130083333Y-62735933D01*
X130350000Y-62735933D01*
X129283333Y-63069266D02*
X129683333Y-63069266D01*
X129483333Y-63069266D02*
X129483333Y-62369266D01*
X129550000Y-62469266D01*
X129616666Y-62535933D01*
X129683333Y-62569266D01*
X129050000Y-62369266D02*
X128616666Y-62369266D01*
X128850000Y-62635933D01*
X128750000Y-62635933D01*
X128683333Y-62669266D01*
X128650000Y-62702600D01*
X128616666Y-62769266D01*
X128616666Y-62935933D01*
X128650000Y-63002600D01*
X128683333Y-63035933D01*
X128750000Y-63069266D01*
X128950000Y-63069266D01*
X129016666Y-63035933D01*
X129050000Y-63002600D01*
X172173333Y-85933333D02*
X172140000Y-85866666D01*
X172073333Y-85800000D01*
X171973333Y-85700000D01*
X171940000Y-85633333D01*
X171940000Y-85566666D01*
X172106666Y-85600000D02*
X172073333Y-85533333D01*
X172006666Y-85466666D01*
X171873333Y-85433333D01*
X171640000Y-85433333D01*
X171506666Y-85466666D01*
X171440000Y-85533333D01*
X171406666Y-85600000D01*
X171406666Y-85733333D01*
X171440000Y-85800000D01*
X171506666Y-85866666D01*
X171640000Y-85900000D01*
X171873333Y-85900000D01*
X172006666Y-85866666D01*
X172073333Y-85800000D01*
X172106666Y-85733333D01*
X172106666Y-85600000D01*
X172106666Y-86566666D02*
X172106666Y-86166666D01*
X172106666Y-86366666D02*
X171406666Y-86366666D01*
X171506666Y-86300000D01*
X171573333Y-86233333D01*
X171606666Y-86166666D01*
X173066666Y-77550000D02*
X172733333Y-77316666D01*
X173066666Y-77150000D02*
X172366666Y-77150000D01*
X172366666Y-77416666D01*
X172400000Y-77483333D01*
X172433333Y-77516666D01*
X172500000Y-77550000D01*
X172600000Y-77550000D01*
X172666666Y-77516666D01*
X172700000Y-77483333D01*
X172733333Y-77416666D01*
X172733333Y-77150000D01*
X173066666Y-78216666D02*
X173066666Y-77816666D01*
X173066666Y-78016666D02*
X172366666Y-78016666D01*
X172466666Y-77950000D01*
X172533333Y-77883333D01*
X172566666Y-77816666D01*
X172366666Y-78850000D02*
X172366666Y-78516666D01*
X172700000Y-78483333D01*
X172666666Y-78516666D01*
X172633333Y-78583333D01*
X172633333Y-78750000D01*
X172666666Y-78816666D01*
X172700000Y-78850000D01*
X172766666Y-78883333D01*
X172933333Y-78883333D01*
X173000000Y-78850000D01*
X173033333Y-78816666D01*
X173066666Y-78750000D01*
X173066666Y-78583333D01*
X173033333Y-78516666D01*
X173000000Y-78483333D01*
X185191666Y-39816666D02*
X184491666Y-39816666D01*
X185125000Y-40550000D02*
X185158333Y-40516666D01*
X185191666Y-40416666D01*
X185191666Y-40350000D01*
X185158333Y-40250000D01*
X185091666Y-40183333D01*
X185025000Y-40150000D01*
X184891666Y-40116666D01*
X184791666Y-40116666D01*
X184658333Y-40150000D01*
X184591666Y-40183333D01*
X184525000Y-40250000D01*
X184491666Y-40350000D01*
X184491666Y-40416666D01*
X184525000Y-40516666D01*
X184558333Y-40550000D01*
X184558333Y-40816666D02*
X184525000Y-40850000D01*
X184491666Y-40916666D01*
X184491666Y-41083333D01*
X184525000Y-41150000D01*
X184558333Y-41183333D01*
X184625000Y-41216666D01*
X184691666Y-41216666D01*
X184791666Y-41183333D01*
X185191666Y-40783333D01*
X185191666Y-41216666D01*
X193950000Y-33816666D02*
X194183333Y-33483333D01*
X194350000Y-33816666D02*
X194350000Y-33116666D01*
X194083333Y-33116666D01*
X194016666Y-33150000D01*
X193983333Y-33183333D01*
X193950000Y-33250000D01*
X193950000Y-33350000D01*
X193983333Y-33416666D01*
X194016666Y-33450000D01*
X194083333Y-33483333D01*
X194350000Y-33483333D01*
X193283333Y-33816666D02*
X193683333Y-33816666D01*
X193483333Y-33816666D02*
X193483333Y-33116666D01*
X193550000Y-33216666D01*
X193616666Y-33283333D01*
X193683333Y-33316666D01*
X192683333Y-33116666D02*
X192816666Y-33116666D01*
X192883333Y-33150000D01*
X192916666Y-33183333D01*
X192983333Y-33283333D01*
X193016666Y-33416666D01*
X193016666Y-33683333D01*
X192983333Y-33750000D01*
X192950000Y-33783333D01*
X192883333Y-33816666D01*
X192750000Y-33816666D01*
X192683333Y-33783333D01*
X192650000Y-33750000D01*
X192616666Y-33683333D01*
X192616666Y-33516666D01*
X192650000Y-33450000D01*
X192683333Y-33416666D01*
X192750000Y-33383333D01*
X192883333Y-33383333D01*
X192950000Y-33416666D01*
X192983333Y-33450000D01*
X193016666Y-33516666D01*
X193950000Y-37316666D02*
X194183333Y-36983333D01*
X194350000Y-37316666D02*
X194350000Y-36616666D01*
X194083333Y-36616666D01*
X194016666Y-36650000D01*
X193983333Y-36683333D01*
X193950000Y-36750000D01*
X193950000Y-36850000D01*
X193983333Y-36916666D01*
X194016666Y-36950000D01*
X194083333Y-36983333D01*
X194350000Y-36983333D01*
X193283333Y-37316666D02*
X193683333Y-37316666D01*
X193483333Y-37316666D02*
X193483333Y-36616666D01*
X193550000Y-36716666D01*
X193616666Y-36783333D01*
X193683333Y-36816666D01*
X193050000Y-36616666D02*
X192583333Y-36616666D01*
X192883333Y-37316666D01*
X187033333Y-38116666D02*
X187033333Y-38683333D01*
X187000000Y-38750000D01*
X186966666Y-38783333D01*
X186900000Y-38816666D01*
X186766666Y-38816666D01*
X186700000Y-38783333D01*
X186666666Y-38750000D01*
X186633333Y-38683333D01*
X186633333Y-38116666D01*
X186000000Y-38350000D02*
X186000000Y-38816666D01*
X186166666Y-38083333D02*
X186333333Y-38583333D01*
X185900000Y-38583333D01*
X171080000Y-35920000D02*
X171113333Y-35953333D01*
X171213333Y-35986666D01*
X171280000Y-35986666D01*
X171380000Y-35953333D01*
X171446666Y-35886666D01*
X171480000Y-35820000D01*
X171513333Y-35686666D01*
X171513333Y-35586666D01*
X171480000Y-35453333D01*
X171446666Y-35386666D01*
X171380000Y-35320000D01*
X171280000Y-35286666D01*
X171213333Y-35286666D01*
X171113333Y-35320000D01*
X171080000Y-35353333D01*
X170646666Y-35286666D02*
X170513333Y-35286666D01*
X170446666Y-35320000D01*
X170380000Y-35386666D01*
X170346666Y-35520000D01*
X170346666Y-35753333D01*
X170380000Y-35886666D01*
X170446666Y-35953333D01*
X170513333Y-35986666D01*
X170646666Y-35986666D01*
X170713333Y-35953333D01*
X170780000Y-35886666D01*
X170813333Y-35753333D01*
X170813333Y-35520000D01*
X170780000Y-35386666D01*
X170713333Y-35320000D01*
X170646666Y-35286666D01*
X170046666Y-35986666D02*
X170046666Y-35286666D01*
X169646666Y-35986666D01*
X169646666Y-35286666D01*
X168946666Y-35986666D02*
X169346666Y-35986666D01*
X169146666Y-35986666D02*
X169146666Y-35286666D01*
X169213333Y-35386666D01*
X169280000Y-35453333D01*
X169346666Y-35486666D01*
%LPC*%
D15*
X170000000Y-84500000D03*
X168500000Y-84500000D03*
D16*
X185000000Y-44750000D03*
X185000000Y-43250000D03*
D15*
X189250000Y-38500000D03*
X190750000Y-38500000D03*
D17*
X196500000Y-78880000D03*
D18*
X196500000Y-86500000D03*
D17*
X196500000Y-83960000D03*
X196500000Y-81420000D03*
X196500000Y-31420000D03*
D18*
X196500000Y-39040000D03*
D17*
X196500000Y-36500000D03*
X196500000Y-33960000D03*
D19*
X157278016Y-64769204D03*
X155178016Y-64769204D03*
X151368016Y-66674204D03*
X153468016Y-66674204D03*
X151368016Y-62864204D03*
X153468016Y-62864204D03*
X153468016Y-64769204D03*
X151368016Y-64769204D03*
X153468016Y-68579204D03*
X151368016Y-68579204D03*
D20*
X119500000Y-86500000D03*
X119500000Y-71500000D03*
D21*
X160024040Y-67690000D03*
X160024040Y-65150000D03*
X160024040Y-62610000D03*
X169035960Y-62610000D03*
X169035960Y-65150000D03*
X169030000Y-67690000D03*
D22*
X160380000Y-82500000D03*
X168000000Y-77420000D03*
X160380000Y-79960000D03*
X168000000Y-79960000D03*
X160380000Y-77420000D03*
D23*
X168000000Y-82500000D03*
D24*
X108500000Y-83500000D03*
X108500000Y-73500000D03*
D20*
X137500000Y-25500000D03*
X152500000Y-25500000D03*
D25*
X190000000Y-65000000D03*
D26*
X190000000Y-62460000D03*
D25*
X190000000Y-57500000D03*
D26*
X190000000Y-54960000D03*
D27*
X105001260Y-94998740D03*
X105001260Y-24998880D03*
X195001080Y-24998880D03*
X195001080Y-94998740D03*
D28*
X147890000Y-84000000D03*
X130110000Y-84000000D03*
D29*
X103000000Y-65524500D03*
X103000000Y-60000000D03*
X103000000Y-54475500D03*
D30*
X114000000Y-61000000D03*
X114000000Y-53380000D03*
X114000000Y-25948000D03*
X114000000Y-33568000D03*
D31*
X139999960Y-67500000D03*
X139999960Y-47500040D03*
D32*
X122111000Y-45040000D03*
X123889000Y-39960000D03*
D33*
X149878016Y-66156044D03*
X149878016Y-64652364D03*
D34*
X155275516Y-66465924D03*
X156228016Y-68579204D03*
X157180516Y-66465924D03*
D33*
X179500000Y-49751840D03*
X179500000Y-48248160D03*
D35*
X157096696Y-60959204D03*
X155593016Y-60959204D03*
X156979856Y-62864204D03*
X155476176Y-62864204D03*
D33*
X179500000Y-45248160D03*
X179500000Y-46751840D03*
X174250000Y-79748160D03*
X174250000Y-81251840D03*
X170500000Y-79998160D03*
X170500000Y-81501840D03*
D35*
X186748160Y-65000000D03*
X188251840Y-65000000D03*
X186748160Y-57500000D03*
X188251840Y-57500000D03*
D36*
X150078100Y-59000000D03*
X144921900Y-59000000D03*
X132078100Y-61000000D03*
X126921900Y-61000000D03*
D37*
X172806640Y-82547500D03*
X170693360Y-83500000D03*
X172806640Y-84452500D03*
D33*
X172750000Y-79748160D03*
X172750000Y-81251840D03*
D38*
X137420000Y-30500000D03*
X147580000Y-30500000D03*
D28*
X125500000Y-83890000D03*
X125500000Y-66110000D03*
D38*
X114000000Y-81620000D03*
X114000000Y-66380000D03*
D39*
X152000000Y-71500000D03*
D40*
X154000000Y-71500000D03*
D39*
X191000000Y-42000000D03*
D40*
X189000000Y-42000000D03*
D41*
X183310000Y-37800000D03*
X182040000Y-37800000D03*
X180770000Y-37800000D03*
X179500000Y-37800000D03*
X178230000Y-37800000D03*
X176960000Y-37800000D03*
X175690000Y-37800000D03*
X175690000Y-43200000D03*
X176960000Y-43200000D03*
X178230000Y-43200000D03*
X179500000Y-43200000D03*
X180770000Y-43200000D03*
X182040000Y-43200000D03*
X183310000Y-43200000D03*
D35*
X192748160Y-34500000D03*
X194251840Y-34500000D03*
X192748160Y-36000000D03*
X194251840Y-36000000D03*
D42*
X190700000Y-36905000D03*
X190700000Y-35635000D03*
X190700000Y-34365000D03*
X190700000Y-33095000D03*
X185300000Y-33095000D03*
X185300000Y-34365000D03*
X185300000Y-35635000D03*
X185300000Y-36905000D03*
D43*
X168960000Y-43080000D03*
X171500000Y-43080000D03*
X168960000Y-40540000D03*
X171500000Y-40540000D03*
X168960000Y-38000000D03*
D44*
X171500000Y-38000000D03*
D45*
X130500000Y-25500000D03*
D46*
X130500000Y-31000000D03*
X160000000Y-31000000D03*
D45*
X160000000Y-25500000D03*
M02*
