G04 (created by PCBNEW (2013-mar-13)-testing) date Tue 07 May 2013 10:03:09 PM CEST*
%MOIN*%
G04 Gerber Fmt 3.4, Leading zero omitted, Abs format*
%FSLAX34Y34*%
G01*
G70*
G90*
G04 APERTURE LIST*
%ADD10C,2.3622e-06*%
%ADD11C,0.551181*%
%ADD12O,0.165X0.0825*%
%ADD13O,0.0593X0.1187*%
%ADD14C,0.0787*%
%ADD15C,0.0906*%
%ADD16C,0.2*%
%ADD17C,0.0859*%
%ADD18C,0.06*%
%ADD19R,0.06X0.06*%
%ADD20R,0.062X0.062*%
%ADD21C,0.062*%
%ADD22C,0.1575*%
%ADD23O,0.112X0.056*%
%ADD24C,0.1*%
%ADD25O,0.104X0.052*%
%ADD26C,0.2362*%
%ADD27R,0.035X0.055*%
%ADD28R,0.025X0.045*%
G04 APERTURE END LIST*
G54D10*
G54D11*
X47250Y-28750D03*
X57000Y-28750D03*
X66000Y-28750D03*
G54D12*
X40500Y-43200D03*
X40500Y-41000D03*
X40500Y-38800D03*
G54D13*
X71250Y-31400D03*
X72250Y-31400D03*
X73250Y-31400D03*
X74250Y-31400D03*
X75250Y-31400D03*
X76250Y-31400D03*
G54D14*
X72000Y-53000D03*
G54D15*
X56252Y-53000D03*
G54D16*
X44000Y-45000D03*
X44000Y-42000D03*
X44000Y-31200D03*
X44000Y-34200D03*
G54D14*
X46750Y-43500D03*
X46750Y-37500D03*
X48250Y-43500D03*
X48250Y-37500D03*
X50250Y-37500D03*
X50250Y-45500D03*
G54D17*
X77250Y-42500D03*
X75875Y-42500D03*
G54D18*
X77200Y-39400D03*
X76200Y-40400D03*
X77200Y-40400D03*
X76200Y-41400D03*
X77200Y-41400D03*
G54D19*
X76200Y-39400D03*
G54D20*
X77200Y-44000D03*
G54D21*
X77200Y-45000D03*
X77200Y-46000D03*
X77200Y-47000D03*
G54D20*
X77200Y-33750D03*
G54D21*
X77200Y-34750D03*
X77200Y-35750D03*
X77200Y-36750D03*
G54D22*
X59374Y-45000D03*
X59374Y-37126D03*
G54D23*
X51250Y-29900D03*
X53250Y-30600D03*
G54D24*
X52000Y-46000D03*
X52000Y-52000D03*
X47250Y-34750D03*
X53250Y-34750D03*
X47000Y-45000D03*
X47000Y-49000D03*
G54D25*
X72000Y-44750D03*
X72000Y-43750D03*
X72000Y-42750D03*
X69000Y-42750D03*
X69000Y-43750D03*
X69000Y-44750D03*
G54D26*
X41750Y-28750D03*
X75500Y-28500D03*
X41750Y-53250D03*
X75250Y-53250D03*
G54D14*
X47250Y-32500D03*
X53250Y-32500D03*
G54D27*
X72525Y-35900D03*
X71775Y-35900D03*
X72525Y-34900D03*
X71775Y-34900D03*
G54D28*
X73700Y-34900D03*
X73100Y-34900D03*
X73700Y-35900D03*
X73100Y-35900D03*
G54D14*
X77000Y-49750D03*
G54D15*
X61252Y-49750D03*
M02*
