G04 #@! TF.GenerationSoftware,KiCad,Pcbnew,no-vcs-found-f12b19d~59~ubuntu16.04.1*
G04 #@! TF.CreationDate,2017-08-22T16:20:07+03:00*
G04 #@! TF.ProjectId,ssr,7373722E6B696361645F706362000000,rev?*
G04 #@! TF.SameCoordinates,Original*
G04 #@! TF.FileFunction,Soldermask,Bot*
G04 #@! TF.FilePolarity,Negative*
%FSLAX46Y46*%
G04 Gerber Fmt 4.6, Leading zero omitted, Abs format (unit mm)*
G04 Created by KiCad (PCBNEW no-vcs-found-f12b19d~59~ubuntu16.04.1) date Tue Aug 22 16:20:07 2017*
%MOMM*%
%LPD*%
G01*
G04 APERTURE LIST*
%ADD10R,0.800000X0.750000*%
%ADD11R,0.750000X0.800000*%
%ADD12O,1.998980X1.998980*%
%ADD13R,1.998980X1.998980*%
%ADD14R,0.600000X0.450000*%
%ADD15C,2.400000*%
%ADD16R,1.500000X1.800000*%
%ADD17O,2.400000X1.600000*%
%ADD18R,2.400000X1.600000*%
%ADD19C,2.000000*%
%ADD20R,1.800000X1.800000*%
%ADD21C,1.800000*%
%ADD22C,3.500120*%
%ADD23C,2.999740*%
%ADD24O,4.000000X2.800000*%
%ADD25C,5.080000*%
%ADD26C,4.000500*%
%ADD27O,1.422400X2.844800*%
%ADD28R,1.000760X0.899160*%
%ADD29R,0.599440X1.000760*%
%ADD30R,0.899160X1.000760*%
%ADD31R,1.600200X2.692400*%
%ADD32R,1.000760X0.599440*%
%ADD33C,1.998980*%
%ADD34R,1.500000X1.500000*%
%ADD35C,1.500000*%
%ADD36R,0.600000X1.500000*%
%ADD37R,1.550000X0.600000*%
%ADD38O,1.700000X1.700000*%
%ADD39R,1.700000X1.700000*%
%ADD40R,2.800000X2.800000*%
%ADD41C,2.800000*%
G04 APERTURE END LIST*
D10*
X170000000Y-84500000D03*
X168500000Y-84500000D03*
D11*
X185000000Y-44750000D03*
X185000000Y-43250000D03*
D10*
X189250000Y-38500000D03*
X190750000Y-38500000D03*
D12*
X196500000Y-78880000D03*
D13*
X196500000Y-86500000D03*
D12*
X196500000Y-83960000D03*
X196500000Y-81420000D03*
X196500000Y-31420000D03*
D13*
X196500000Y-39040000D03*
D12*
X196500000Y-36500000D03*
X196500000Y-33960000D03*
D14*
X157278016Y-64769204D03*
X155178016Y-64769204D03*
X151368016Y-66674204D03*
X153468016Y-66674204D03*
X151368016Y-62864204D03*
X153468016Y-62864204D03*
X153468016Y-64769204D03*
X151368016Y-64769204D03*
X153468016Y-68579204D03*
X151368016Y-68579204D03*
D15*
X119500000Y-86500000D03*
X119500000Y-71500000D03*
D16*
X160024040Y-67690000D03*
X160024040Y-65150000D03*
X160024040Y-62610000D03*
X169035960Y-62610000D03*
X169035960Y-65150000D03*
X169030000Y-67690000D03*
D17*
X160380000Y-82500000D03*
X168000000Y-77420000D03*
X160380000Y-79960000D03*
X168000000Y-79960000D03*
X160380000Y-77420000D03*
D18*
X168000000Y-82500000D03*
D19*
X108500000Y-83500000D03*
X108500000Y-73500000D03*
D15*
X137500000Y-25500000D03*
X152500000Y-25500000D03*
D20*
X190000000Y-65000000D03*
D21*
X190000000Y-62460000D03*
D20*
X190000000Y-57500000D03*
D21*
X190000000Y-54960000D03*
D22*
X105001260Y-94998740D03*
X105001260Y-24998880D03*
X195001080Y-24998880D03*
X195001080Y-94998740D03*
D23*
X147890000Y-84000000D03*
X130110000Y-84000000D03*
D24*
X103000000Y-65524500D03*
X103000000Y-60000000D03*
X103000000Y-54475500D03*
D25*
X114000000Y-61000000D03*
X114000000Y-53380000D03*
X114000000Y-25948000D03*
X114000000Y-33568000D03*
D26*
X139999960Y-67500000D03*
X139999960Y-47500040D03*
D27*
X122111000Y-45040000D03*
X123889000Y-39960000D03*
D28*
X149878016Y-66156044D03*
X149878016Y-64652364D03*
D29*
X155275516Y-66465924D03*
X156228016Y-68579204D03*
X157180516Y-66465924D03*
D28*
X179500000Y-49751840D03*
X179500000Y-48248160D03*
D30*
X157096696Y-60959204D03*
X155593016Y-60959204D03*
X156979856Y-62864204D03*
X155476176Y-62864204D03*
D28*
X179500000Y-45248160D03*
X179500000Y-46751840D03*
X174250000Y-79748160D03*
X174250000Y-81251840D03*
X170500000Y-79998160D03*
X170500000Y-81501840D03*
D30*
X186748160Y-65000000D03*
X188251840Y-65000000D03*
X186748160Y-57500000D03*
X188251840Y-57500000D03*
D31*
X150078100Y-59000000D03*
X144921900Y-59000000D03*
X132078100Y-61000000D03*
X126921900Y-61000000D03*
D32*
X172806640Y-82547500D03*
X170693360Y-83500000D03*
X172806640Y-84452500D03*
D28*
X172750000Y-79748160D03*
X172750000Y-81251840D03*
D33*
X137420000Y-30500000D03*
X147580000Y-30500000D03*
D23*
X125500000Y-83890000D03*
X125500000Y-66110000D03*
D33*
X114000000Y-81620000D03*
X114000000Y-66380000D03*
D34*
X152000000Y-71500000D03*
D35*
X154000000Y-71500000D03*
D34*
X191000000Y-42000000D03*
D35*
X189000000Y-42000000D03*
D36*
X183310000Y-37800000D03*
X182040000Y-37800000D03*
X180770000Y-37800000D03*
X179500000Y-37800000D03*
X178230000Y-37800000D03*
X176960000Y-37800000D03*
X175690000Y-37800000D03*
X175690000Y-43200000D03*
X176960000Y-43200000D03*
X178230000Y-43200000D03*
X179500000Y-43200000D03*
X180770000Y-43200000D03*
X182040000Y-43200000D03*
X183310000Y-43200000D03*
D30*
X192748160Y-34500000D03*
X194251840Y-34500000D03*
X192748160Y-36000000D03*
X194251840Y-36000000D03*
D37*
X190700000Y-36905000D03*
X190700000Y-35635000D03*
X190700000Y-34365000D03*
X190700000Y-33095000D03*
X185300000Y-33095000D03*
X185300000Y-34365000D03*
X185300000Y-35635000D03*
X185300000Y-36905000D03*
D38*
X168960000Y-43080000D03*
X171500000Y-43080000D03*
X168960000Y-40540000D03*
X171500000Y-40540000D03*
X168960000Y-38000000D03*
D39*
X171500000Y-38000000D03*
D40*
X130500000Y-25500000D03*
D41*
X130500000Y-31000000D03*
X160000000Y-31000000D03*
D40*
X160000000Y-25500000D03*
M02*
