G04 (created by PCBNEW (2013-mar-13)-testing) date Tue 07 May 2013 10:03:09 PM CEST*
%MOIN*%
G04 Gerber Fmt 3.4, Leading zero omitted, Abs format*
%FSLAX34Y34*%
G01*
G70*
G90*
G04 APERTURE LIST*
%ADD10C,2.3622e-06*%
%ADD11R,0.0708661X0.0590551*%
%ADD12C,0.551181*%
%ADD13O,0.165X0.0825*%
%ADD14O,0.0593X0.1187*%
%ADD15C,0.0787*%
%ADD16C,0.0906*%
%ADD17C,0.2*%
%ADD18C,0.0859*%
%ADD19C,0.06*%
%ADD20R,0.06X0.06*%
%ADD21R,0.062X0.062*%
%ADD22C,0.062*%
%ADD23C,0.1575*%
%ADD24O,0.112X0.056*%
%ADD25R,0.0433X0.0354*%
%ADD26C,0.1*%
%ADD27O,0.104X0.052*%
%ADD28R,0.0236X0.0866*%
%ADD29R,0.0393X0.0433*%
%ADD30C,0.2362*%
%ADD31R,0.0551X0.0393*%
%ADD32R,0.0433X0.0393*%
%ADD33R,0.0354X0.0394*%
%ADD34C,0.04*%
%ADD35C,0.05*%
%ADD36C,0.2047*%
%ADD37C,0.02*%
%ADD38C,0.008*%
%ADD39C,0.01*%
G04 APERTURE END LIST*
G54D10*
G54D11*
X67978Y-47250D03*
X67978Y-46250D03*
X71521Y-46250D03*
X71521Y-47250D03*
G54D12*
X47250Y-28750D03*
X57000Y-28750D03*
X66000Y-28750D03*
G54D13*
X40500Y-43200D03*
X40500Y-41000D03*
X40500Y-38800D03*
G54D14*
X71250Y-31400D03*
X72250Y-31400D03*
X73250Y-31400D03*
X74250Y-31400D03*
X75250Y-31400D03*
X76250Y-31400D03*
G54D15*
X72000Y-53000D03*
G54D16*
X56252Y-53000D03*
G54D17*
X44000Y-45000D03*
X44000Y-42000D03*
X44000Y-31200D03*
X44000Y-34200D03*
G54D15*
X46750Y-43500D03*
X46750Y-37500D03*
X48250Y-43500D03*
X48250Y-37500D03*
X50250Y-37500D03*
X50250Y-45500D03*
G54D18*
X77250Y-42500D03*
X75875Y-42500D03*
G54D19*
X77200Y-39400D03*
X76200Y-40400D03*
X77200Y-40400D03*
X76200Y-41400D03*
X77200Y-41400D03*
G54D20*
X76200Y-39400D03*
G54D21*
X77200Y-44000D03*
G54D22*
X77200Y-45000D03*
X77200Y-46000D03*
X77200Y-47000D03*
G54D21*
X77200Y-33750D03*
G54D22*
X77200Y-34750D03*
X77200Y-35750D03*
X77200Y-36750D03*
G54D23*
X59374Y-45000D03*
X59374Y-37126D03*
G54D24*
X51250Y-29900D03*
X53250Y-30600D03*
G54D25*
X76250Y-47062D03*
X76250Y-46438D03*
G54D26*
X52000Y-46000D03*
X52000Y-52000D03*
X47250Y-34750D03*
X53250Y-34750D03*
X47000Y-45000D03*
X47000Y-49000D03*
G54D27*
X72000Y-44750D03*
X72000Y-43750D03*
X72000Y-42750D03*
X69000Y-42750D03*
X69000Y-43750D03*
X69000Y-44750D03*
G54D28*
X75100Y-35873D03*
X74600Y-35873D03*
X74100Y-35873D03*
X73600Y-35873D03*
X73100Y-35873D03*
X72600Y-35873D03*
X72100Y-35873D03*
X72100Y-33827D03*
X72600Y-33827D03*
X73100Y-33827D03*
X73600Y-33827D03*
X74100Y-33827D03*
X74600Y-33827D03*
X75100Y-33827D03*
G54D29*
X74016Y-37200D03*
X74684Y-37200D03*
X75800Y-36066D03*
X75800Y-36734D03*
G54D30*
X41750Y-28750D03*
X75500Y-28500D03*
X41750Y-53250D03*
X75250Y-53250D03*
G54D15*
X47250Y-32500D03*
X53250Y-32500D03*
G54D31*
X74433Y-44376D03*
X74433Y-45124D03*
X73567Y-44750D03*
G54D32*
X73000Y-43916D03*
X73000Y-44584D03*
X75250Y-44416D03*
X75250Y-45084D03*
G54D33*
X72396Y-45450D03*
X71804Y-45450D03*
G54D15*
X77000Y-49750D03*
G54D16*
X61252Y-49750D03*
G54D34*
X76000Y-35200D03*
X75600Y-38850D03*
X55250Y-36250D03*
X75250Y-38400D03*
X76500Y-34600D03*
X74300Y-46700D03*
X73600Y-46700D03*
X72200Y-46700D03*
X72100Y-46100D03*
X71300Y-45600D03*
X75550Y-37850D03*
X75350Y-37250D03*
X76000Y-45750D03*
X75250Y-45750D03*
X74600Y-36550D03*
X74050Y-36600D03*
X50250Y-42250D03*
X72600Y-41700D03*
X72600Y-36600D03*
X73100Y-36900D03*
X73100Y-46400D03*
G54D35*
X57000Y-41500D02*
X56500Y-41500D01*
X57000Y-41500D02*
X60500Y-41500D01*
X63000Y-44000D02*
X60500Y-41500D01*
X49250Y-35500D02*
X51000Y-35500D01*
X48250Y-36500D02*
X49250Y-35500D01*
X48250Y-36500D02*
X48250Y-37500D01*
X51750Y-36250D02*
X51000Y-35500D01*
X51750Y-36750D02*
X51750Y-36250D01*
X56500Y-41500D02*
X51750Y-36750D01*
X46750Y-37500D02*
X43250Y-41000D01*
X43250Y-41000D02*
X40500Y-41000D01*
G54D36*
X44000Y-44500D02*
X44000Y-41500D01*
G54D35*
X63000Y-44000D02*
X63000Y-44250D01*
X63000Y-48002D02*
X61250Y-49750D01*
X63000Y-44250D02*
X63000Y-48002D01*
X63000Y-44000D02*
X63002Y-44002D01*
X46750Y-37500D02*
X48250Y-37500D01*
G54D37*
X76000Y-35200D02*
X76000Y-35100D01*
X72100Y-33827D02*
X72100Y-34400D01*
X76600Y-35100D02*
X77200Y-35700D01*
X72800Y-35100D02*
X76000Y-35100D01*
X76000Y-35100D02*
X76600Y-35100D01*
X72100Y-34400D02*
X72800Y-35100D01*
X74250Y-38000D02*
X74000Y-38000D01*
X72100Y-36700D02*
X72100Y-35873D01*
X72750Y-37350D02*
X72100Y-36700D01*
X73350Y-37350D02*
X72750Y-37350D01*
X74000Y-38000D02*
X73350Y-37350D01*
X75600Y-38850D02*
X75100Y-38850D01*
X75100Y-38850D02*
X74250Y-38000D01*
G54D35*
X64750Y-43250D02*
X61000Y-39500D01*
X61000Y-39500D02*
X60750Y-39500D01*
X55250Y-36250D02*
X55250Y-38000D01*
X55250Y-38000D02*
X56750Y-39500D01*
X56750Y-39500D02*
X60750Y-39500D01*
X53250Y-30600D02*
X54650Y-30600D01*
X54650Y-30600D02*
X57000Y-28250D01*
X56250Y-53000D02*
X62000Y-53000D01*
X64750Y-50000D02*
X64750Y-43250D01*
X62000Y-53000D02*
X64750Y-50000D01*
G54D37*
X74016Y-37200D02*
X74016Y-37566D01*
X74500Y-37650D02*
X75250Y-38400D01*
X74100Y-37650D02*
X74500Y-37650D01*
X74016Y-37566D02*
X74100Y-37650D01*
X74016Y-37200D02*
X73600Y-36784D01*
X73600Y-36784D02*
X73600Y-35873D01*
X75200Y-38350D02*
X75250Y-38400D01*
X73600Y-35873D02*
X73600Y-36684D01*
X72600Y-33827D02*
X72600Y-34400D01*
X72600Y-34400D02*
X72900Y-34700D01*
X76500Y-34600D02*
X76500Y-34700D01*
X72900Y-34700D02*
X76500Y-34700D01*
X76500Y-34700D02*
X77200Y-34700D01*
X71525Y-46250D02*
X71225Y-45675D01*
X73600Y-46700D02*
X74300Y-46700D01*
X72200Y-46200D02*
X72200Y-46700D01*
X72100Y-46100D02*
X72200Y-46200D01*
X71225Y-45675D02*
X71300Y-45600D01*
X75800Y-36734D02*
X75800Y-36800D01*
X75800Y-36800D02*
X75350Y-37250D01*
X75250Y-45084D02*
X75250Y-45750D01*
X40500Y-43200D02*
X40500Y-44150D01*
G54D36*
X50000Y-52000D02*
X47000Y-49000D01*
X40500Y-46143D02*
X40500Y-44150D01*
X40500Y-44150D02*
X40500Y-43500D01*
X59374Y-45000D02*
X56124Y-48250D01*
X43250Y-48500D02*
X40500Y-46143D01*
X40500Y-46143D02*
X40700Y-46350D01*
X43750Y-48500D02*
X43250Y-48500D01*
X56124Y-48250D02*
X43750Y-48500D01*
X52000Y-52000D02*
X50000Y-52000D01*
G54D37*
X74600Y-36550D02*
X74600Y-35873D01*
X74100Y-36550D02*
X74050Y-36600D01*
X74100Y-36550D02*
X74100Y-35873D01*
G54D35*
X53250Y-32500D02*
X53250Y-34750D01*
X53250Y-34750D02*
X56998Y-34750D01*
X56998Y-34750D02*
X59374Y-37126D01*
G54D36*
X66000Y-28250D02*
X66000Y-30500D01*
X66000Y-30500D02*
X59374Y-37126D01*
G54D37*
X73000Y-43916D02*
X72834Y-43750D01*
X72834Y-43750D02*
X72000Y-43750D01*
X73567Y-44750D02*
X73166Y-44750D01*
X73166Y-44750D02*
X73000Y-44584D01*
X73000Y-44584D02*
X73099Y-44683D01*
G54D35*
X51250Y-29900D02*
X48900Y-29900D01*
X48900Y-29900D02*
X47250Y-28250D01*
X47250Y-32500D02*
X47250Y-34750D01*
G54D36*
X42750Y-32750D02*
X47250Y-28250D01*
X47250Y-30250D02*
X43750Y-33750D01*
X47250Y-28250D02*
X47250Y-30250D01*
G54D35*
X46750Y-43500D02*
X46750Y-44750D01*
X46750Y-44750D02*
X47000Y-45000D01*
G54D37*
X73100Y-33827D02*
X73100Y-33000D01*
X72250Y-32150D02*
X72250Y-31400D01*
X73100Y-33000D02*
X72250Y-32150D01*
X73600Y-33827D02*
X73600Y-32500D01*
X73250Y-32150D02*
X73250Y-31400D01*
X73600Y-32500D02*
X73250Y-32150D01*
X74100Y-33827D02*
X74100Y-32300D01*
X74250Y-32150D02*
X74250Y-31400D01*
X74100Y-32300D02*
X74250Y-32150D01*
X74600Y-33827D02*
X74600Y-32800D01*
X75250Y-32150D02*
X75250Y-31400D01*
X74600Y-32800D02*
X75250Y-32150D01*
G54D35*
X67978Y-46250D02*
X66750Y-46250D01*
X71000Y-53000D02*
X72000Y-53000D01*
X66500Y-48500D02*
X71000Y-53000D01*
X66500Y-46500D02*
X66500Y-48500D01*
X66750Y-46250D02*
X66500Y-46500D01*
X77000Y-49750D02*
X70478Y-49750D01*
X70478Y-49750D02*
X67978Y-47250D01*
X51500Y-45500D02*
X52000Y-46000D01*
X50250Y-45500D02*
X51500Y-45500D01*
X48250Y-43500D02*
X50250Y-45500D01*
X50250Y-42250D02*
X50250Y-37500D01*
G54D37*
X75250Y-44416D02*
X75916Y-44416D01*
X76500Y-45000D02*
X77200Y-45000D01*
X75916Y-44416D02*
X76500Y-45000D01*
X74433Y-44376D02*
X75210Y-44376D01*
X75210Y-44376D02*
X75250Y-44416D01*
X72600Y-35873D02*
X72600Y-36600D01*
X74176Y-44376D02*
X74433Y-44376D01*
X73400Y-41800D02*
X72700Y-41800D01*
X73600Y-42000D02*
X73400Y-41800D01*
X73600Y-43800D02*
X73600Y-42000D01*
X74176Y-44376D02*
X73600Y-43800D01*
X72700Y-41800D02*
X72600Y-41700D01*
X75800Y-36066D02*
X75966Y-35900D01*
X75966Y-35900D02*
X76000Y-35900D01*
X75100Y-35873D02*
X75100Y-36784D01*
X75100Y-36784D02*
X74684Y-37200D01*
X72396Y-45450D02*
X72396Y-45146D01*
X72396Y-45146D02*
X72000Y-44750D01*
G54D35*
X74938Y-46438D02*
X76250Y-46438D01*
X74300Y-45800D02*
X74938Y-46438D01*
X77200Y-46000D02*
X76688Y-46000D01*
X76688Y-46000D02*
X76250Y-46438D01*
X72000Y-44750D02*
X72050Y-44750D01*
X73100Y-45800D02*
X74300Y-45800D01*
X72050Y-44750D02*
X73100Y-45800D01*
X76000Y-35900D02*
X75200Y-35900D01*
X77200Y-36700D02*
X76800Y-36700D01*
G54D37*
X75127Y-35900D02*
X75100Y-35873D01*
X75200Y-35900D02*
X75127Y-35900D01*
G54D35*
X76800Y-36700D02*
X76000Y-35900D01*
G54D37*
X71525Y-47250D02*
X72750Y-47250D01*
X73100Y-46900D02*
X73100Y-46400D01*
X72750Y-47250D02*
X73100Y-46900D01*
X73100Y-36900D02*
X73100Y-35873D01*
X73050Y-46450D02*
X73100Y-46400D01*
X76250Y-47062D02*
X77138Y-47062D01*
X77138Y-47062D02*
X77200Y-47000D01*
X71525Y-47250D02*
X76062Y-47250D01*
X76062Y-47250D02*
X76250Y-47062D01*
X71750Y-47250D02*
X71525Y-47250D01*
G54D10*
G36*
X75905Y-46828D02*
X75893Y-46857D01*
X75893Y-46912D01*
X75893Y-47010D01*
X73309Y-47010D01*
X73321Y-46991D01*
X73339Y-46900D01*
X73340Y-46900D01*
X73340Y-46640D01*
X73388Y-46592D01*
X73439Y-46467D01*
X73440Y-46332D01*
X73388Y-46207D01*
X73370Y-46190D01*
X74138Y-46190D01*
X74662Y-46713D01*
X74788Y-46798D01*
X74788Y-46798D01*
X74938Y-46828D01*
X75905Y-46828D01*
X75905Y-46828D01*
G37*
G54D38*
X75905Y-46828D02*
X75893Y-46857D01*
X75893Y-46912D01*
X75893Y-47010D01*
X73309Y-47010D01*
X73321Y-46991D01*
X73339Y-46900D01*
X73340Y-46900D01*
X73340Y-46640D01*
X73388Y-46592D01*
X73439Y-46467D01*
X73440Y-46332D01*
X73388Y-46207D01*
X73370Y-46190D01*
X74138Y-46190D01*
X74662Y-46713D01*
X74788Y-46798D01*
X74788Y-46798D01*
X74938Y-46828D01*
X75905Y-46828D01*
G54D10*
G36*
X78090Y-47960D02*
X77819Y-47960D01*
X77819Y-42387D01*
X77733Y-42177D01*
X77646Y-42090D01*
X77646Y-41445D01*
X77640Y-41379D01*
X77640Y-40312D01*
X77640Y-39312D01*
X77573Y-39151D01*
X77449Y-39027D01*
X77287Y-38960D01*
X77112Y-38959D01*
X76951Y-39026D01*
X76827Y-39150D01*
X76760Y-39312D01*
X76759Y-39487D01*
X76826Y-39648D01*
X76950Y-39772D01*
X77112Y-39839D01*
X77287Y-39840D01*
X77448Y-39773D01*
X77572Y-39649D01*
X77639Y-39487D01*
X77640Y-39312D01*
X77640Y-40312D01*
X77573Y-40151D01*
X77449Y-40027D01*
X77287Y-39960D01*
X77112Y-39959D01*
X76951Y-40026D01*
X76827Y-40150D01*
X76760Y-40312D01*
X76759Y-40487D01*
X76826Y-40648D01*
X76950Y-40772D01*
X77112Y-40839D01*
X77287Y-40840D01*
X77448Y-40773D01*
X77572Y-40649D01*
X77639Y-40487D01*
X77640Y-40312D01*
X77640Y-41379D01*
X77629Y-41271D01*
X77594Y-41187D01*
X77531Y-41153D01*
X77446Y-41237D01*
X77446Y-41068D01*
X77412Y-41005D01*
X77245Y-40953D01*
X77071Y-40970D01*
X76987Y-41005D01*
X76953Y-41068D01*
X77200Y-41315D01*
X77446Y-41068D01*
X77446Y-41237D01*
X77284Y-41400D01*
X77531Y-41646D01*
X77594Y-41612D01*
X77646Y-41445D01*
X77646Y-42090D01*
X77573Y-42017D01*
X77446Y-41965D01*
X77446Y-41731D01*
X77200Y-41484D01*
X77115Y-41569D01*
X77115Y-41400D01*
X76868Y-41153D01*
X76805Y-41187D01*
X76753Y-41354D01*
X76770Y-41528D01*
X76805Y-41612D01*
X76868Y-41646D01*
X77115Y-41400D01*
X77115Y-41569D01*
X76953Y-41731D01*
X76987Y-41794D01*
X77154Y-41846D01*
X77328Y-41829D01*
X77412Y-41794D01*
X77446Y-41731D01*
X77446Y-41965D01*
X77363Y-41930D01*
X77137Y-41930D01*
X76927Y-42016D01*
X76767Y-42176D01*
X76680Y-42386D01*
X76680Y-42612D01*
X76766Y-42822D01*
X76926Y-42982D01*
X77136Y-43069D01*
X77362Y-43069D01*
X77572Y-42983D01*
X77732Y-42823D01*
X77819Y-42613D01*
X77819Y-42387D01*
X77819Y-47960D01*
X75500Y-47960D01*
X74750Y-47960D01*
X71040Y-47960D01*
X71040Y-47603D01*
X71048Y-47624D01*
X71087Y-47663D01*
X71139Y-47685D01*
X71195Y-47685D01*
X71903Y-47685D01*
X71955Y-47664D01*
X71994Y-47624D01*
X72015Y-47573D01*
X72016Y-47517D01*
X72016Y-47490D01*
X72750Y-47490D01*
X76062Y-47490D01*
X76153Y-47471D01*
X76231Y-47419D01*
X76272Y-47379D01*
X76494Y-47379D01*
X76545Y-47357D01*
X76585Y-47318D01*
X76591Y-47302D01*
X76865Y-47302D01*
X76944Y-47381D01*
X77110Y-47449D01*
X77289Y-47450D01*
X77454Y-47381D01*
X77581Y-47255D01*
X77649Y-47089D01*
X77650Y-46910D01*
X77581Y-46745D01*
X77455Y-46618D01*
X77289Y-46550D01*
X77110Y-46549D01*
X76945Y-46618D01*
X76818Y-46744D01*
X76786Y-46822D01*
X76591Y-46822D01*
X76585Y-46805D01*
X76545Y-46766D01*
X76506Y-46749D01*
X76545Y-46733D01*
X76585Y-46694D01*
X76606Y-46642D01*
X76606Y-46633D01*
X76849Y-46390D01*
X76965Y-46390D01*
X77110Y-46449D01*
X77289Y-46450D01*
X77454Y-46381D01*
X77581Y-46255D01*
X77649Y-46089D01*
X77650Y-45910D01*
X77581Y-45745D01*
X77455Y-45618D01*
X77289Y-45550D01*
X77110Y-45549D01*
X76965Y-45610D01*
X76688Y-45610D01*
X76538Y-45639D01*
X76412Y-45724D01*
X76412Y-45724D01*
X76412Y-45724D01*
X76088Y-46048D01*
X75606Y-46048D01*
X75606Y-45308D01*
X75606Y-45179D01*
X75571Y-45144D01*
X75310Y-45144D01*
X75310Y-45385D01*
X75345Y-45420D01*
X75438Y-45420D01*
X75494Y-45420D01*
X75545Y-45399D01*
X75585Y-45359D01*
X75606Y-45308D01*
X75606Y-46048D01*
X75190Y-46048D01*
X75190Y-45385D01*
X75190Y-45144D01*
X74928Y-45144D01*
X74893Y-45179D01*
X74893Y-45308D01*
X74914Y-45359D01*
X74954Y-45399D01*
X75005Y-45420D01*
X75061Y-45420D01*
X75155Y-45420D01*
X75190Y-45385D01*
X75190Y-46048D01*
X75099Y-46048D01*
X74848Y-45796D01*
X74575Y-45524D01*
X74480Y-45460D01*
X74493Y-45460D01*
X74493Y-45425D01*
X74528Y-45460D01*
X74680Y-45460D01*
X74736Y-45460D01*
X74787Y-45439D01*
X74827Y-45399D01*
X74848Y-45348D01*
X74848Y-44899D01*
X74827Y-44848D01*
X74787Y-44808D01*
X74736Y-44787D01*
X74680Y-44787D01*
X74528Y-44787D01*
X74493Y-44822D01*
X74493Y-45064D01*
X74813Y-45064D01*
X74848Y-45029D01*
X74848Y-44899D01*
X74848Y-45348D01*
X74848Y-45219D01*
X74813Y-45184D01*
X74493Y-45184D01*
X74493Y-45191D01*
X74373Y-45191D01*
X74373Y-45184D01*
X74373Y-45064D01*
X74373Y-44822D01*
X74338Y-44787D01*
X74185Y-44787D01*
X74129Y-44787D01*
X74078Y-44808D01*
X74038Y-44848D01*
X74017Y-44899D01*
X74017Y-45029D01*
X74052Y-45064D01*
X74373Y-45064D01*
X74373Y-45184D01*
X74052Y-45184D01*
X74017Y-45219D01*
X74017Y-45348D01*
X74038Y-45399D01*
X74049Y-45410D01*
X73261Y-45410D01*
X72772Y-44920D01*
X72811Y-44920D01*
X72997Y-44920D01*
X73074Y-44971D01*
X73157Y-44988D01*
X73172Y-45025D01*
X73212Y-45065D01*
X73263Y-45086D01*
X73319Y-45086D01*
X73870Y-45086D01*
X73921Y-45065D01*
X73961Y-45025D01*
X73982Y-44974D01*
X73982Y-44918D01*
X73982Y-44525D01*
X73979Y-44519D01*
X74006Y-44545D01*
X74017Y-44553D01*
X74017Y-44600D01*
X74038Y-44651D01*
X74078Y-44691D01*
X74129Y-44712D01*
X74185Y-44712D01*
X74736Y-44712D01*
X74787Y-44691D01*
X74827Y-44651D01*
X74842Y-44616D01*
X74893Y-44616D01*
X74893Y-44640D01*
X74914Y-44691D01*
X74954Y-44731D01*
X74999Y-44750D01*
X74954Y-44768D01*
X74914Y-44808D01*
X74893Y-44859D01*
X74893Y-44989D01*
X74928Y-45024D01*
X75190Y-45024D01*
X75190Y-45016D01*
X75310Y-45016D01*
X75310Y-45024D01*
X75571Y-45024D01*
X75606Y-44989D01*
X75606Y-44859D01*
X75585Y-44808D01*
X75545Y-44768D01*
X75500Y-44749D01*
X75545Y-44731D01*
X75585Y-44691D01*
X75600Y-44656D01*
X75816Y-44656D01*
X76330Y-45169D01*
X76330Y-45169D01*
X76408Y-45221D01*
X76499Y-45239D01*
X76500Y-45240D01*
X76812Y-45240D01*
X76818Y-45254D01*
X76944Y-45381D01*
X77110Y-45449D01*
X77289Y-45450D01*
X77454Y-45381D01*
X77581Y-45255D01*
X77649Y-45089D01*
X77650Y-44910D01*
X77650Y-44910D01*
X77650Y-44337D01*
X77650Y-43662D01*
X77628Y-43610D01*
X77589Y-43571D01*
X77537Y-43550D01*
X77482Y-43549D01*
X77295Y-43550D01*
X77260Y-43585D01*
X77260Y-43940D01*
X77615Y-43940D01*
X77650Y-43905D01*
X77650Y-43662D01*
X77650Y-44337D01*
X77650Y-44095D01*
X77615Y-44060D01*
X77260Y-44060D01*
X77260Y-44415D01*
X77295Y-44450D01*
X77482Y-44450D01*
X77537Y-44449D01*
X77589Y-44428D01*
X77628Y-44389D01*
X77650Y-44337D01*
X77650Y-44910D01*
X77581Y-44745D01*
X77455Y-44618D01*
X77289Y-44550D01*
X77140Y-44549D01*
X77140Y-44415D01*
X77140Y-44060D01*
X77140Y-43940D01*
X77140Y-43585D01*
X77105Y-43550D01*
X76917Y-43549D01*
X76862Y-43550D01*
X76810Y-43571D01*
X76771Y-43610D01*
X76749Y-43662D01*
X76750Y-43905D01*
X76785Y-43940D01*
X77140Y-43940D01*
X77140Y-44060D01*
X76785Y-44060D01*
X76750Y-44095D01*
X76749Y-44337D01*
X76771Y-44389D01*
X76810Y-44428D01*
X76862Y-44449D01*
X76917Y-44450D01*
X77105Y-44450D01*
X77140Y-44415D01*
X77140Y-44549D01*
X77110Y-44549D01*
X76945Y-44618D01*
X76818Y-44744D01*
X76812Y-44760D01*
X76640Y-44760D01*
X76640Y-41312D01*
X76640Y-40312D01*
X76573Y-40151D01*
X76449Y-40027D01*
X76287Y-39960D01*
X76112Y-39959D01*
X75951Y-40026D01*
X75827Y-40150D01*
X75760Y-40312D01*
X75759Y-40487D01*
X75826Y-40648D01*
X75950Y-40772D01*
X76112Y-40839D01*
X76287Y-40840D01*
X76448Y-40773D01*
X76572Y-40649D01*
X76639Y-40487D01*
X76640Y-40312D01*
X76640Y-41312D01*
X76573Y-41151D01*
X76449Y-41027D01*
X76287Y-40960D01*
X76112Y-40959D01*
X75951Y-41026D01*
X75827Y-41150D01*
X75760Y-41312D01*
X75759Y-41487D01*
X75826Y-41648D01*
X75950Y-41772D01*
X76112Y-41839D01*
X76287Y-41840D01*
X76448Y-41773D01*
X76572Y-41649D01*
X76639Y-41487D01*
X76640Y-41312D01*
X76640Y-44760D01*
X76599Y-44760D01*
X76450Y-44611D01*
X76450Y-42576D01*
X76436Y-42350D01*
X76377Y-42209D01*
X76300Y-42158D01*
X76216Y-42243D01*
X76216Y-42074D01*
X76165Y-41997D01*
X75951Y-41924D01*
X75725Y-41938D01*
X75584Y-41997D01*
X75533Y-42074D01*
X75875Y-42415D01*
X76216Y-42074D01*
X76216Y-42243D01*
X75959Y-42500D01*
X76300Y-42841D01*
X76377Y-42790D01*
X76450Y-42576D01*
X76450Y-44611D01*
X76216Y-44376D01*
X76216Y-42925D01*
X75875Y-42584D01*
X75790Y-42669D01*
X75790Y-42500D01*
X75449Y-42158D01*
X75372Y-42209D01*
X75299Y-42423D01*
X75313Y-42649D01*
X75372Y-42790D01*
X75449Y-42841D01*
X75790Y-42500D01*
X75790Y-42669D01*
X75533Y-42925D01*
X75584Y-43002D01*
X75798Y-43075D01*
X76024Y-43061D01*
X76165Y-43002D01*
X76216Y-42925D01*
X76216Y-44376D01*
X76085Y-44246D01*
X76007Y-44194D01*
X75916Y-44176D01*
X75600Y-44176D01*
X75585Y-44140D01*
X75545Y-44100D01*
X75494Y-44079D01*
X75438Y-44079D01*
X75005Y-44079D01*
X74954Y-44100D01*
X74918Y-44136D01*
X74842Y-44136D01*
X74827Y-44100D01*
X74787Y-44060D01*
X74736Y-44039D01*
X74680Y-44039D01*
X74178Y-44039D01*
X73840Y-43700D01*
X73840Y-42000D01*
X73821Y-41908D01*
X73769Y-41830D01*
X73769Y-41830D01*
X73569Y-41630D01*
X73491Y-41578D01*
X73400Y-41560D01*
X72910Y-41560D01*
X72888Y-41507D01*
X72792Y-41411D01*
X72667Y-41360D01*
X72532Y-41359D01*
X72407Y-41411D01*
X72311Y-41507D01*
X72260Y-41632D01*
X72259Y-41767D01*
X72311Y-41892D01*
X72407Y-41988D01*
X72532Y-42039D01*
X72667Y-42040D01*
X72678Y-42035D01*
X72678Y-42035D01*
X72700Y-42040D01*
X73300Y-42040D01*
X73360Y-42099D01*
X73360Y-43800D01*
X73378Y-43891D01*
X73430Y-43969D01*
X73876Y-44416D01*
X73870Y-44413D01*
X73814Y-44413D01*
X73356Y-44413D01*
X73356Y-44359D01*
X73335Y-44308D01*
X73295Y-44268D01*
X73250Y-44249D01*
X73295Y-44231D01*
X73335Y-44191D01*
X73356Y-44140D01*
X73356Y-44084D01*
X73356Y-43691D01*
X73335Y-43640D01*
X73295Y-43600D01*
X73244Y-43579D01*
X73188Y-43579D01*
X73002Y-43579D01*
X72925Y-43528D01*
X72834Y-43510D01*
X72672Y-43510D01*
X72672Y-42750D01*
X72642Y-42596D01*
X72555Y-42467D01*
X72426Y-42380D01*
X72272Y-42350D01*
X71727Y-42350D01*
X71686Y-42358D01*
X71686Y-31757D01*
X71686Y-31460D01*
X71686Y-31340D01*
X71686Y-31043D01*
X71630Y-30880D01*
X71516Y-30751D01*
X71376Y-30685D01*
X71310Y-30706D01*
X71310Y-31340D01*
X71686Y-31340D01*
X71686Y-31460D01*
X71310Y-31460D01*
X71310Y-32093D01*
X71376Y-32114D01*
X71516Y-32048D01*
X71630Y-31919D01*
X71686Y-31757D01*
X71686Y-42358D01*
X71573Y-42380D01*
X71444Y-42467D01*
X71357Y-42596D01*
X71327Y-42750D01*
X71357Y-42903D01*
X71444Y-43032D01*
X71573Y-43119D01*
X71727Y-43150D01*
X72272Y-43150D01*
X72426Y-43119D01*
X72555Y-43032D01*
X72642Y-42903D01*
X72672Y-42750D01*
X72672Y-43510D01*
X72584Y-43510D01*
X72555Y-43467D01*
X72426Y-43380D01*
X72272Y-43350D01*
X71727Y-43350D01*
X71573Y-43380D01*
X71444Y-43467D01*
X71357Y-43596D01*
X71327Y-43750D01*
X71357Y-43903D01*
X71444Y-44032D01*
X71573Y-44119D01*
X71727Y-44150D01*
X72272Y-44150D01*
X72426Y-44119D01*
X72555Y-44032D01*
X72584Y-43990D01*
X72643Y-43990D01*
X72643Y-44140D01*
X72664Y-44191D01*
X72704Y-44231D01*
X72749Y-44250D01*
X72704Y-44268D01*
X72664Y-44308D01*
X72643Y-44359D01*
X72643Y-44415D01*
X72643Y-44601D01*
X72642Y-44596D01*
X72555Y-44467D01*
X72426Y-44380D01*
X72272Y-44350D01*
X71727Y-44350D01*
X71573Y-44380D01*
X71444Y-44467D01*
X71357Y-44596D01*
X71327Y-44750D01*
X71357Y-44903D01*
X71444Y-45032D01*
X71573Y-45119D01*
X71580Y-45120D01*
X71547Y-45134D01*
X71508Y-45173D01*
X71487Y-45225D01*
X71486Y-45280D01*
X71487Y-45355D01*
X71522Y-45390D01*
X71744Y-45390D01*
X71744Y-45382D01*
X71864Y-45382D01*
X71864Y-45390D01*
X71871Y-45390D01*
X71871Y-45510D01*
X71864Y-45510D01*
X71864Y-45752D01*
X71899Y-45787D01*
X72008Y-45787D01*
X72060Y-45765D01*
X72099Y-45726D01*
X72099Y-45725D01*
X72100Y-45726D01*
X72139Y-45765D01*
X72191Y-45786D01*
X72246Y-45787D01*
X72535Y-45787D01*
X72824Y-46075D01*
X72895Y-46123D01*
X72811Y-46207D01*
X72760Y-46332D01*
X72759Y-46467D01*
X72811Y-46592D01*
X72860Y-46640D01*
X72860Y-46800D01*
X72650Y-47010D01*
X72016Y-47010D01*
X72016Y-46926D01*
X72016Y-46517D01*
X72016Y-45982D01*
X72015Y-45926D01*
X71994Y-45875D01*
X71955Y-45835D01*
X71903Y-45814D01*
X71744Y-45814D01*
X71744Y-45752D01*
X71744Y-45510D01*
X71522Y-45510D01*
X71487Y-45545D01*
X71486Y-45619D01*
X71487Y-45674D01*
X71508Y-45726D01*
X71547Y-45765D01*
X71599Y-45787D01*
X71709Y-45787D01*
X71744Y-45752D01*
X71744Y-45814D01*
X71616Y-45814D01*
X71581Y-45849D01*
X71581Y-46190D01*
X71980Y-46190D01*
X72015Y-46155D01*
X72016Y-45982D01*
X72016Y-46517D01*
X72015Y-46345D01*
X71980Y-46310D01*
X71581Y-46310D01*
X71581Y-46650D01*
X71616Y-46685D01*
X71903Y-46685D01*
X71955Y-46664D01*
X71994Y-46624D01*
X72015Y-46573D01*
X72016Y-46517D01*
X72016Y-46926D01*
X71994Y-46875D01*
X71955Y-46836D01*
X71903Y-46814D01*
X71848Y-46814D01*
X71139Y-46814D01*
X71088Y-46835D01*
X71048Y-46875D01*
X71040Y-46896D01*
X71040Y-46603D01*
X71048Y-46624D01*
X71088Y-46664D01*
X71139Y-46685D01*
X71426Y-46685D01*
X71461Y-46650D01*
X71461Y-46310D01*
X71453Y-46310D01*
X71453Y-46190D01*
X71461Y-46190D01*
X71461Y-45849D01*
X71426Y-45814D01*
X71139Y-45814D01*
X71088Y-45835D01*
X71048Y-45875D01*
X71040Y-45896D01*
X71040Y-43509D01*
X71290Y-43009D01*
X71290Y-39983D01*
X71190Y-39883D01*
X71190Y-32093D01*
X71190Y-31460D01*
X71190Y-31340D01*
X71190Y-30706D01*
X71123Y-30685D01*
X70983Y-30751D01*
X70869Y-30880D01*
X70813Y-31043D01*
X70813Y-31340D01*
X71190Y-31340D01*
X71190Y-31460D01*
X70813Y-31460D01*
X70813Y-31757D01*
X70869Y-31919D01*
X70983Y-32048D01*
X71123Y-32114D01*
X71190Y-32093D01*
X71190Y-39883D01*
X70790Y-39483D01*
X70790Y-30040D01*
X73899Y-30040D01*
X74240Y-30381D01*
X75040Y-30713D01*
X74941Y-30779D01*
X74846Y-30921D01*
X74813Y-31088D01*
X74813Y-31711D01*
X74846Y-31878D01*
X74941Y-32020D01*
X75000Y-32059D01*
X74430Y-32630D01*
X74378Y-32708D01*
X74360Y-32800D01*
X74360Y-33322D01*
X74349Y-33346D01*
X74340Y-33322D01*
X74340Y-32399D01*
X74419Y-32319D01*
X74419Y-32319D01*
X74471Y-32241D01*
X74489Y-32150D01*
X74490Y-32150D01*
X74490Y-32065D01*
X74558Y-32020D01*
X74653Y-31878D01*
X74686Y-31711D01*
X74686Y-31088D01*
X74653Y-30921D01*
X74558Y-30779D01*
X74417Y-30685D01*
X74250Y-30652D01*
X74082Y-30685D01*
X73941Y-30779D01*
X73846Y-30921D01*
X73813Y-31088D01*
X73813Y-31711D01*
X73846Y-31878D01*
X73941Y-32020D01*
X74000Y-32059D01*
X73930Y-32130D01*
X73878Y-32208D01*
X73860Y-32300D01*
X73860Y-33322D01*
X73849Y-33346D01*
X73840Y-33322D01*
X73840Y-32500D01*
X73839Y-32499D01*
X73821Y-32408D01*
X73769Y-32330D01*
X73769Y-32330D01*
X73499Y-32059D01*
X73558Y-32020D01*
X73653Y-31878D01*
X73686Y-31711D01*
X73686Y-31088D01*
X73653Y-30921D01*
X73558Y-30779D01*
X73417Y-30685D01*
X73250Y-30652D01*
X73082Y-30685D01*
X72941Y-30779D01*
X72846Y-30921D01*
X72813Y-31088D01*
X72813Y-31711D01*
X72846Y-31878D01*
X72941Y-32020D01*
X73010Y-32065D01*
X73010Y-32150D01*
X73028Y-32241D01*
X73080Y-32319D01*
X73360Y-32599D01*
X73360Y-33322D01*
X73349Y-33346D01*
X73340Y-33322D01*
X73340Y-33000D01*
X73321Y-32908D01*
X73269Y-32830D01*
X72499Y-32059D01*
X72558Y-32020D01*
X72653Y-31878D01*
X72686Y-31711D01*
X72686Y-31088D01*
X72653Y-30921D01*
X72558Y-30779D01*
X72417Y-30685D01*
X72250Y-30652D01*
X72082Y-30685D01*
X71941Y-30779D01*
X71846Y-30921D01*
X71813Y-31088D01*
X71813Y-31711D01*
X71846Y-31878D01*
X71941Y-32020D01*
X72010Y-32065D01*
X72010Y-32150D01*
X72028Y-32241D01*
X72080Y-32319D01*
X72860Y-33099D01*
X72860Y-33322D01*
X72849Y-33346D01*
X72836Y-33314D01*
X72797Y-33275D01*
X72745Y-33254D01*
X72690Y-33253D01*
X72454Y-33253D01*
X72402Y-33275D01*
X72363Y-33314D01*
X72349Y-33346D01*
X72336Y-33314D01*
X72297Y-33275D01*
X72245Y-33254D01*
X72190Y-33253D01*
X71954Y-33253D01*
X71902Y-33275D01*
X71863Y-33314D01*
X71842Y-33366D01*
X71841Y-33421D01*
X71841Y-34287D01*
X71860Y-34331D01*
X71860Y-34400D01*
X71878Y-34491D01*
X71930Y-34569D01*
X72630Y-35269D01*
X72630Y-35269D01*
X72675Y-35299D01*
X72454Y-35299D01*
X72402Y-35321D01*
X72363Y-35360D01*
X72349Y-35392D01*
X72336Y-35360D01*
X72297Y-35321D01*
X72245Y-35300D01*
X72190Y-35299D01*
X71954Y-35299D01*
X71902Y-35321D01*
X71863Y-35360D01*
X71842Y-35412D01*
X71841Y-35467D01*
X71841Y-36333D01*
X71860Y-36377D01*
X71860Y-36700D01*
X71878Y-36791D01*
X71930Y-36869D01*
X72580Y-37519D01*
X72580Y-37519D01*
X72658Y-37571D01*
X72750Y-37590D01*
X73250Y-37590D01*
X73830Y-38169D01*
X73830Y-38169D01*
X73908Y-38221D01*
X74000Y-38240D01*
X74150Y-38240D01*
X74930Y-39019D01*
X75008Y-39071D01*
X75100Y-39090D01*
X75359Y-39090D01*
X75407Y-39138D01*
X75532Y-39189D01*
X75667Y-39190D01*
X75759Y-39151D01*
X75759Y-39727D01*
X75781Y-39779D01*
X75820Y-39818D01*
X75872Y-39839D01*
X75927Y-39840D01*
X76227Y-39840D01*
X76527Y-39840D01*
X76579Y-39818D01*
X76618Y-39779D01*
X76639Y-39727D01*
X76640Y-39672D01*
X76640Y-39072D01*
X76618Y-39020D01*
X76579Y-38981D01*
X76527Y-38960D01*
X76472Y-38959D01*
X76172Y-38959D01*
X76136Y-38959D01*
X76136Y-36978D01*
X76136Y-36829D01*
X76101Y-36794D01*
X75860Y-36794D01*
X75860Y-37055D01*
X75895Y-37090D01*
X75968Y-37090D01*
X76024Y-37090D01*
X76075Y-37069D01*
X76115Y-37029D01*
X76136Y-36978D01*
X76136Y-38959D01*
X75922Y-38959D01*
X75939Y-38917D01*
X75940Y-38782D01*
X75888Y-38657D01*
X75792Y-38561D01*
X75740Y-38539D01*
X75740Y-37055D01*
X75740Y-36794D01*
X75498Y-36794D01*
X75463Y-36829D01*
X75463Y-36978D01*
X75484Y-37029D01*
X75524Y-37069D01*
X75575Y-37090D01*
X75631Y-37090D01*
X75705Y-37090D01*
X75740Y-37055D01*
X75740Y-38539D01*
X75667Y-38510D01*
X75572Y-38509D01*
X75589Y-38467D01*
X75590Y-38332D01*
X75538Y-38207D01*
X75442Y-38111D01*
X75317Y-38060D01*
X75249Y-38059D01*
X74745Y-37556D01*
X74908Y-37556D01*
X74959Y-37535D01*
X74999Y-37495D01*
X75020Y-37444D01*
X75020Y-37388D01*
X75020Y-37202D01*
X75269Y-36953D01*
X75269Y-36953D01*
X75321Y-36875D01*
X75339Y-36784D01*
X75340Y-36784D01*
X75340Y-36377D01*
X75357Y-36333D01*
X75358Y-36290D01*
X75463Y-36290D01*
X75463Y-36310D01*
X75484Y-36361D01*
X75522Y-36400D01*
X75484Y-36438D01*
X75463Y-36489D01*
X75463Y-36639D01*
X75498Y-36674D01*
X75740Y-36674D01*
X75740Y-36666D01*
X75860Y-36666D01*
X75860Y-36674D01*
X76101Y-36674D01*
X76136Y-36639D01*
X76136Y-36588D01*
X76524Y-36975D01*
X76524Y-36975D01*
X76650Y-37060D01*
X76650Y-37060D01*
X76799Y-37089D01*
X76800Y-37090D01*
X76903Y-37090D01*
X76944Y-37131D01*
X77110Y-37199D01*
X77289Y-37200D01*
X77454Y-37131D01*
X77581Y-37005D01*
X77649Y-36839D01*
X77650Y-36660D01*
X77581Y-36495D01*
X77455Y-36368D01*
X77289Y-36300D01*
X77110Y-36299D01*
X77086Y-36310D01*
X76961Y-36310D01*
X76275Y-35624D01*
X76149Y-35539D01*
X76094Y-35528D01*
X76192Y-35488D01*
X76288Y-35392D01*
X76310Y-35340D01*
X76500Y-35340D01*
X76770Y-35610D01*
X76750Y-35660D01*
X76749Y-35839D01*
X76818Y-36004D01*
X76944Y-36131D01*
X77110Y-36199D01*
X77289Y-36200D01*
X77454Y-36131D01*
X77581Y-36005D01*
X77649Y-35839D01*
X77650Y-35660D01*
X77581Y-35495D01*
X77455Y-35368D01*
X77289Y-35300D01*
X77139Y-35299D01*
X76989Y-35149D01*
X77110Y-35199D01*
X77289Y-35200D01*
X77454Y-35131D01*
X77581Y-35005D01*
X77649Y-34839D01*
X77650Y-34660D01*
X77650Y-34660D01*
X77650Y-34087D01*
X77650Y-33412D01*
X77628Y-33360D01*
X77589Y-33321D01*
X77537Y-33300D01*
X77482Y-33299D01*
X77295Y-33300D01*
X77260Y-33335D01*
X77260Y-33690D01*
X77615Y-33690D01*
X77650Y-33655D01*
X77650Y-33412D01*
X77650Y-34087D01*
X77650Y-33845D01*
X77615Y-33810D01*
X77260Y-33810D01*
X77260Y-34165D01*
X77295Y-34200D01*
X77482Y-34200D01*
X77537Y-34199D01*
X77589Y-34178D01*
X77628Y-34139D01*
X77650Y-34087D01*
X77650Y-34660D01*
X77581Y-34495D01*
X77455Y-34368D01*
X77289Y-34300D01*
X77140Y-34299D01*
X77140Y-34165D01*
X77140Y-33810D01*
X77140Y-33690D01*
X77140Y-33335D01*
X77105Y-33300D01*
X76917Y-33299D01*
X76862Y-33300D01*
X76810Y-33321D01*
X76771Y-33360D01*
X76749Y-33412D01*
X76750Y-33655D01*
X76785Y-33690D01*
X77140Y-33690D01*
X77140Y-33810D01*
X76785Y-33810D01*
X76750Y-33845D01*
X76749Y-34087D01*
X76771Y-34139D01*
X76810Y-34178D01*
X76862Y-34199D01*
X76917Y-34200D01*
X77105Y-34200D01*
X77140Y-34165D01*
X77140Y-34299D01*
X77110Y-34299D01*
X76945Y-34368D01*
X76853Y-34460D01*
X76810Y-34460D01*
X76788Y-34407D01*
X76692Y-34311D01*
X76686Y-34309D01*
X76686Y-31711D01*
X76686Y-31088D01*
X76653Y-30921D01*
X76558Y-30779D01*
X76417Y-30685D01*
X76250Y-30652D01*
X76082Y-30685D01*
X75941Y-30779D01*
X75846Y-30921D01*
X75813Y-31088D01*
X75813Y-31711D01*
X75846Y-31878D01*
X75941Y-32020D01*
X76082Y-32114D01*
X76250Y-32147D01*
X76417Y-32114D01*
X76558Y-32020D01*
X76653Y-31878D01*
X76686Y-31711D01*
X76686Y-34309D01*
X76567Y-34260D01*
X76432Y-34259D01*
X76307Y-34311D01*
X76211Y-34407D01*
X76189Y-34460D01*
X75358Y-34460D01*
X75358Y-34232D01*
X75358Y-33421D01*
X75357Y-33366D01*
X75336Y-33314D01*
X75297Y-33275D01*
X75245Y-33253D01*
X75194Y-33254D01*
X75159Y-33289D01*
X75159Y-33767D01*
X75323Y-33767D01*
X75358Y-33732D01*
X75358Y-33421D01*
X75358Y-34232D01*
X75358Y-33922D01*
X75323Y-33887D01*
X75159Y-33887D01*
X75159Y-34365D01*
X75194Y-34400D01*
X75245Y-34400D01*
X75297Y-34378D01*
X75336Y-34339D01*
X75357Y-34287D01*
X75358Y-34232D01*
X75358Y-34460D01*
X72999Y-34460D01*
X72928Y-34389D01*
X72954Y-34399D01*
X73009Y-34400D01*
X73245Y-34400D01*
X73297Y-34378D01*
X73336Y-34339D01*
X73350Y-34307D01*
X73363Y-34339D01*
X73402Y-34378D01*
X73454Y-34399D01*
X73509Y-34400D01*
X73745Y-34400D01*
X73797Y-34378D01*
X73836Y-34339D01*
X73850Y-34307D01*
X73863Y-34339D01*
X73902Y-34378D01*
X73954Y-34399D01*
X74009Y-34400D01*
X74245Y-34400D01*
X74297Y-34378D01*
X74336Y-34339D01*
X74350Y-34307D01*
X74363Y-34339D01*
X74402Y-34378D01*
X74454Y-34399D01*
X74509Y-34400D01*
X74745Y-34400D01*
X74797Y-34378D01*
X74836Y-34339D01*
X74850Y-34307D01*
X74863Y-34339D01*
X74902Y-34378D01*
X74954Y-34400D01*
X75006Y-34400D01*
X75041Y-34365D01*
X75041Y-33887D01*
X75032Y-33887D01*
X75032Y-33767D01*
X75041Y-33767D01*
X75041Y-33289D01*
X75006Y-33254D01*
X74954Y-33253D01*
X74902Y-33275D01*
X74863Y-33314D01*
X74849Y-33346D01*
X74840Y-33322D01*
X74840Y-32899D01*
X75419Y-32319D01*
X75419Y-32319D01*
X75471Y-32241D01*
X75489Y-32150D01*
X75490Y-32150D01*
X75490Y-32065D01*
X75558Y-32020D01*
X75653Y-31878D01*
X75686Y-31711D01*
X75686Y-31088D01*
X75653Y-30921D01*
X75558Y-30779D01*
X75470Y-30720D01*
X75939Y-30721D01*
X76756Y-30383D01*
X77101Y-30040D01*
X78090Y-30040D01*
X78090Y-47960D01*
X78090Y-47960D01*
G37*
G54D38*
X78090Y-47960D02*
X77819Y-47960D01*
X77819Y-42387D01*
X77733Y-42177D01*
X77646Y-42090D01*
X77646Y-41445D01*
X77640Y-41379D01*
X77640Y-40312D01*
X77640Y-39312D01*
X77573Y-39151D01*
X77449Y-39027D01*
X77287Y-38960D01*
X77112Y-38959D01*
X76951Y-39026D01*
X76827Y-39150D01*
X76760Y-39312D01*
X76759Y-39487D01*
X76826Y-39648D01*
X76950Y-39772D01*
X77112Y-39839D01*
X77287Y-39840D01*
X77448Y-39773D01*
X77572Y-39649D01*
X77639Y-39487D01*
X77640Y-39312D01*
X77640Y-40312D01*
X77573Y-40151D01*
X77449Y-40027D01*
X77287Y-39960D01*
X77112Y-39959D01*
X76951Y-40026D01*
X76827Y-40150D01*
X76760Y-40312D01*
X76759Y-40487D01*
X76826Y-40648D01*
X76950Y-40772D01*
X77112Y-40839D01*
X77287Y-40840D01*
X77448Y-40773D01*
X77572Y-40649D01*
X77639Y-40487D01*
X77640Y-40312D01*
X77640Y-41379D01*
X77629Y-41271D01*
X77594Y-41187D01*
X77531Y-41153D01*
X77446Y-41237D01*
X77446Y-41068D01*
X77412Y-41005D01*
X77245Y-40953D01*
X77071Y-40970D01*
X76987Y-41005D01*
X76953Y-41068D01*
X77200Y-41315D01*
X77446Y-41068D01*
X77446Y-41237D01*
X77284Y-41400D01*
X77531Y-41646D01*
X77594Y-41612D01*
X77646Y-41445D01*
X77646Y-42090D01*
X77573Y-42017D01*
X77446Y-41965D01*
X77446Y-41731D01*
X77200Y-41484D01*
X77115Y-41569D01*
X77115Y-41400D01*
X76868Y-41153D01*
X76805Y-41187D01*
X76753Y-41354D01*
X76770Y-41528D01*
X76805Y-41612D01*
X76868Y-41646D01*
X77115Y-41400D01*
X77115Y-41569D01*
X76953Y-41731D01*
X76987Y-41794D01*
X77154Y-41846D01*
X77328Y-41829D01*
X77412Y-41794D01*
X77446Y-41731D01*
X77446Y-41965D01*
X77363Y-41930D01*
X77137Y-41930D01*
X76927Y-42016D01*
X76767Y-42176D01*
X76680Y-42386D01*
X76680Y-42612D01*
X76766Y-42822D01*
X76926Y-42982D01*
X77136Y-43069D01*
X77362Y-43069D01*
X77572Y-42983D01*
X77732Y-42823D01*
X77819Y-42613D01*
X77819Y-42387D01*
X77819Y-47960D01*
X75500Y-47960D01*
X74750Y-47960D01*
X71040Y-47960D01*
X71040Y-47603D01*
X71048Y-47624D01*
X71087Y-47663D01*
X71139Y-47685D01*
X71195Y-47685D01*
X71903Y-47685D01*
X71955Y-47664D01*
X71994Y-47624D01*
X72015Y-47573D01*
X72016Y-47517D01*
X72016Y-47490D01*
X72750Y-47490D01*
X76062Y-47490D01*
X76153Y-47471D01*
X76231Y-47419D01*
X76272Y-47379D01*
X76494Y-47379D01*
X76545Y-47357D01*
X76585Y-47318D01*
X76591Y-47302D01*
X76865Y-47302D01*
X76944Y-47381D01*
X77110Y-47449D01*
X77289Y-47450D01*
X77454Y-47381D01*
X77581Y-47255D01*
X77649Y-47089D01*
X77650Y-46910D01*
X77581Y-46745D01*
X77455Y-46618D01*
X77289Y-46550D01*
X77110Y-46549D01*
X76945Y-46618D01*
X76818Y-46744D01*
X76786Y-46822D01*
X76591Y-46822D01*
X76585Y-46805D01*
X76545Y-46766D01*
X76506Y-46749D01*
X76545Y-46733D01*
X76585Y-46694D01*
X76606Y-46642D01*
X76606Y-46633D01*
X76849Y-46390D01*
X76965Y-46390D01*
X77110Y-46449D01*
X77289Y-46450D01*
X77454Y-46381D01*
X77581Y-46255D01*
X77649Y-46089D01*
X77650Y-45910D01*
X77581Y-45745D01*
X77455Y-45618D01*
X77289Y-45550D01*
X77110Y-45549D01*
X76965Y-45610D01*
X76688Y-45610D01*
X76538Y-45639D01*
X76412Y-45724D01*
X76412Y-45724D01*
X76412Y-45724D01*
X76088Y-46048D01*
X75606Y-46048D01*
X75606Y-45308D01*
X75606Y-45179D01*
X75571Y-45144D01*
X75310Y-45144D01*
X75310Y-45385D01*
X75345Y-45420D01*
X75438Y-45420D01*
X75494Y-45420D01*
X75545Y-45399D01*
X75585Y-45359D01*
X75606Y-45308D01*
X75606Y-46048D01*
X75190Y-46048D01*
X75190Y-45385D01*
X75190Y-45144D01*
X74928Y-45144D01*
X74893Y-45179D01*
X74893Y-45308D01*
X74914Y-45359D01*
X74954Y-45399D01*
X75005Y-45420D01*
X75061Y-45420D01*
X75155Y-45420D01*
X75190Y-45385D01*
X75190Y-46048D01*
X75099Y-46048D01*
X74848Y-45796D01*
X74575Y-45524D01*
X74480Y-45460D01*
X74493Y-45460D01*
X74493Y-45425D01*
X74528Y-45460D01*
X74680Y-45460D01*
X74736Y-45460D01*
X74787Y-45439D01*
X74827Y-45399D01*
X74848Y-45348D01*
X74848Y-44899D01*
X74827Y-44848D01*
X74787Y-44808D01*
X74736Y-44787D01*
X74680Y-44787D01*
X74528Y-44787D01*
X74493Y-44822D01*
X74493Y-45064D01*
X74813Y-45064D01*
X74848Y-45029D01*
X74848Y-44899D01*
X74848Y-45348D01*
X74848Y-45219D01*
X74813Y-45184D01*
X74493Y-45184D01*
X74493Y-45191D01*
X74373Y-45191D01*
X74373Y-45184D01*
X74373Y-45064D01*
X74373Y-44822D01*
X74338Y-44787D01*
X74185Y-44787D01*
X74129Y-44787D01*
X74078Y-44808D01*
X74038Y-44848D01*
X74017Y-44899D01*
X74017Y-45029D01*
X74052Y-45064D01*
X74373Y-45064D01*
X74373Y-45184D01*
X74052Y-45184D01*
X74017Y-45219D01*
X74017Y-45348D01*
X74038Y-45399D01*
X74049Y-45410D01*
X73261Y-45410D01*
X72772Y-44920D01*
X72811Y-44920D01*
X72997Y-44920D01*
X73074Y-44971D01*
X73157Y-44988D01*
X73172Y-45025D01*
X73212Y-45065D01*
X73263Y-45086D01*
X73319Y-45086D01*
X73870Y-45086D01*
X73921Y-45065D01*
X73961Y-45025D01*
X73982Y-44974D01*
X73982Y-44918D01*
X73982Y-44525D01*
X73979Y-44519D01*
X74006Y-44545D01*
X74017Y-44553D01*
X74017Y-44600D01*
X74038Y-44651D01*
X74078Y-44691D01*
X74129Y-44712D01*
X74185Y-44712D01*
X74736Y-44712D01*
X74787Y-44691D01*
X74827Y-44651D01*
X74842Y-44616D01*
X74893Y-44616D01*
X74893Y-44640D01*
X74914Y-44691D01*
X74954Y-44731D01*
X74999Y-44750D01*
X74954Y-44768D01*
X74914Y-44808D01*
X74893Y-44859D01*
X74893Y-44989D01*
X74928Y-45024D01*
X75190Y-45024D01*
X75190Y-45016D01*
X75310Y-45016D01*
X75310Y-45024D01*
X75571Y-45024D01*
X75606Y-44989D01*
X75606Y-44859D01*
X75585Y-44808D01*
X75545Y-44768D01*
X75500Y-44749D01*
X75545Y-44731D01*
X75585Y-44691D01*
X75600Y-44656D01*
X75816Y-44656D01*
X76330Y-45169D01*
X76330Y-45169D01*
X76408Y-45221D01*
X76499Y-45239D01*
X76500Y-45240D01*
X76812Y-45240D01*
X76818Y-45254D01*
X76944Y-45381D01*
X77110Y-45449D01*
X77289Y-45450D01*
X77454Y-45381D01*
X77581Y-45255D01*
X77649Y-45089D01*
X77650Y-44910D01*
X77650Y-44910D01*
X77650Y-44337D01*
X77650Y-43662D01*
X77628Y-43610D01*
X77589Y-43571D01*
X77537Y-43550D01*
X77482Y-43549D01*
X77295Y-43550D01*
X77260Y-43585D01*
X77260Y-43940D01*
X77615Y-43940D01*
X77650Y-43905D01*
X77650Y-43662D01*
X77650Y-44337D01*
X77650Y-44095D01*
X77615Y-44060D01*
X77260Y-44060D01*
X77260Y-44415D01*
X77295Y-44450D01*
X77482Y-44450D01*
X77537Y-44449D01*
X77589Y-44428D01*
X77628Y-44389D01*
X77650Y-44337D01*
X77650Y-44910D01*
X77581Y-44745D01*
X77455Y-44618D01*
X77289Y-44550D01*
X77140Y-44549D01*
X77140Y-44415D01*
X77140Y-44060D01*
X77140Y-43940D01*
X77140Y-43585D01*
X77105Y-43550D01*
X76917Y-43549D01*
X76862Y-43550D01*
X76810Y-43571D01*
X76771Y-43610D01*
X76749Y-43662D01*
X76750Y-43905D01*
X76785Y-43940D01*
X77140Y-43940D01*
X77140Y-44060D01*
X76785Y-44060D01*
X76750Y-44095D01*
X76749Y-44337D01*
X76771Y-44389D01*
X76810Y-44428D01*
X76862Y-44449D01*
X76917Y-44450D01*
X77105Y-44450D01*
X77140Y-44415D01*
X77140Y-44549D01*
X77110Y-44549D01*
X76945Y-44618D01*
X76818Y-44744D01*
X76812Y-44760D01*
X76640Y-44760D01*
X76640Y-41312D01*
X76640Y-40312D01*
X76573Y-40151D01*
X76449Y-40027D01*
X76287Y-39960D01*
X76112Y-39959D01*
X75951Y-40026D01*
X75827Y-40150D01*
X75760Y-40312D01*
X75759Y-40487D01*
X75826Y-40648D01*
X75950Y-40772D01*
X76112Y-40839D01*
X76287Y-40840D01*
X76448Y-40773D01*
X76572Y-40649D01*
X76639Y-40487D01*
X76640Y-40312D01*
X76640Y-41312D01*
X76573Y-41151D01*
X76449Y-41027D01*
X76287Y-40960D01*
X76112Y-40959D01*
X75951Y-41026D01*
X75827Y-41150D01*
X75760Y-41312D01*
X75759Y-41487D01*
X75826Y-41648D01*
X75950Y-41772D01*
X76112Y-41839D01*
X76287Y-41840D01*
X76448Y-41773D01*
X76572Y-41649D01*
X76639Y-41487D01*
X76640Y-41312D01*
X76640Y-44760D01*
X76599Y-44760D01*
X76450Y-44611D01*
X76450Y-42576D01*
X76436Y-42350D01*
X76377Y-42209D01*
X76300Y-42158D01*
X76216Y-42243D01*
X76216Y-42074D01*
X76165Y-41997D01*
X75951Y-41924D01*
X75725Y-41938D01*
X75584Y-41997D01*
X75533Y-42074D01*
X75875Y-42415D01*
X76216Y-42074D01*
X76216Y-42243D01*
X75959Y-42500D01*
X76300Y-42841D01*
X76377Y-42790D01*
X76450Y-42576D01*
X76450Y-44611D01*
X76216Y-44376D01*
X76216Y-42925D01*
X75875Y-42584D01*
X75790Y-42669D01*
X75790Y-42500D01*
X75449Y-42158D01*
X75372Y-42209D01*
X75299Y-42423D01*
X75313Y-42649D01*
X75372Y-42790D01*
X75449Y-42841D01*
X75790Y-42500D01*
X75790Y-42669D01*
X75533Y-42925D01*
X75584Y-43002D01*
X75798Y-43075D01*
X76024Y-43061D01*
X76165Y-43002D01*
X76216Y-42925D01*
X76216Y-44376D01*
X76085Y-44246D01*
X76007Y-44194D01*
X75916Y-44176D01*
X75600Y-44176D01*
X75585Y-44140D01*
X75545Y-44100D01*
X75494Y-44079D01*
X75438Y-44079D01*
X75005Y-44079D01*
X74954Y-44100D01*
X74918Y-44136D01*
X74842Y-44136D01*
X74827Y-44100D01*
X74787Y-44060D01*
X74736Y-44039D01*
X74680Y-44039D01*
X74178Y-44039D01*
X73840Y-43700D01*
X73840Y-42000D01*
X73821Y-41908D01*
X73769Y-41830D01*
X73769Y-41830D01*
X73569Y-41630D01*
X73491Y-41578D01*
X73400Y-41560D01*
X72910Y-41560D01*
X72888Y-41507D01*
X72792Y-41411D01*
X72667Y-41360D01*
X72532Y-41359D01*
X72407Y-41411D01*
X72311Y-41507D01*
X72260Y-41632D01*
X72259Y-41767D01*
X72311Y-41892D01*
X72407Y-41988D01*
X72532Y-42039D01*
X72667Y-42040D01*
X72678Y-42035D01*
X72678Y-42035D01*
X72700Y-42040D01*
X73300Y-42040D01*
X73360Y-42099D01*
X73360Y-43800D01*
X73378Y-43891D01*
X73430Y-43969D01*
X73876Y-44416D01*
X73870Y-44413D01*
X73814Y-44413D01*
X73356Y-44413D01*
X73356Y-44359D01*
X73335Y-44308D01*
X73295Y-44268D01*
X73250Y-44249D01*
X73295Y-44231D01*
X73335Y-44191D01*
X73356Y-44140D01*
X73356Y-44084D01*
X73356Y-43691D01*
X73335Y-43640D01*
X73295Y-43600D01*
X73244Y-43579D01*
X73188Y-43579D01*
X73002Y-43579D01*
X72925Y-43528D01*
X72834Y-43510D01*
X72672Y-43510D01*
X72672Y-42750D01*
X72642Y-42596D01*
X72555Y-42467D01*
X72426Y-42380D01*
X72272Y-42350D01*
X71727Y-42350D01*
X71686Y-42358D01*
X71686Y-31757D01*
X71686Y-31460D01*
X71686Y-31340D01*
X71686Y-31043D01*
X71630Y-30880D01*
X71516Y-30751D01*
X71376Y-30685D01*
X71310Y-30706D01*
X71310Y-31340D01*
X71686Y-31340D01*
X71686Y-31460D01*
X71310Y-31460D01*
X71310Y-32093D01*
X71376Y-32114D01*
X71516Y-32048D01*
X71630Y-31919D01*
X71686Y-31757D01*
X71686Y-42358D01*
X71573Y-42380D01*
X71444Y-42467D01*
X71357Y-42596D01*
X71327Y-42750D01*
X71357Y-42903D01*
X71444Y-43032D01*
X71573Y-43119D01*
X71727Y-43150D01*
X72272Y-43150D01*
X72426Y-43119D01*
X72555Y-43032D01*
X72642Y-42903D01*
X72672Y-42750D01*
X72672Y-43510D01*
X72584Y-43510D01*
X72555Y-43467D01*
X72426Y-43380D01*
X72272Y-43350D01*
X71727Y-43350D01*
X71573Y-43380D01*
X71444Y-43467D01*
X71357Y-43596D01*
X71327Y-43750D01*
X71357Y-43903D01*
X71444Y-44032D01*
X71573Y-44119D01*
X71727Y-44150D01*
X72272Y-44150D01*
X72426Y-44119D01*
X72555Y-44032D01*
X72584Y-43990D01*
X72643Y-43990D01*
X72643Y-44140D01*
X72664Y-44191D01*
X72704Y-44231D01*
X72749Y-44250D01*
X72704Y-44268D01*
X72664Y-44308D01*
X72643Y-44359D01*
X72643Y-44415D01*
X72643Y-44601D01*
X72642Y-44596D01*
X72555Y-44467D01*
X72426Y-44380D01*
X72272Y-44350D01*
X71727Y-44350D01*
X71573Y-44380D01*
X71444Y-44467D01*
X71357Y-44596D01*
X71327Y-44750D01*
X71357Y-44903D01*
X71444Y-45032D01*
X71573Y-45119D01*
X71580Y-45120D01*
X71547Y-45134D01*
X71508Y-45173D01*
X71487Y-45225D01*
X71486Y-45280D01*
X71487Y-45355D01*
X71522Y-45390D01*
X71744Y-45390D01*
X71744Y-45382D01*
X71864Y-45382D01*
X71864Y-45390D01*
X71871Y-45390D01*
X71871Y-45510D01*
X71864Y-45510D01*
X71864Y-45752D01*
X71899Y-45787D01*
X72008Y-45787D01*
X72060Y-45765D01*
X72099Y-45726D01*
X72099Y-45725D01*
X72100Y-45726D01*
X72139Y-45765D01*
X72191Y-45786D01*
X72246Y-45787D01*
X72535Y-45787D01*
X72824Y-46075D01*
X72895Y-46123D01*
X72811Y-46207D01*
X72760Y-46332D01*
X72759Y-46467D01*
X72811Y-46592D01*
X72860Y-46640D01*
X72860Y-46800D01*
X72650Y-47010D01*
X72016Y-47010D01*
X72016Y-46926D01*
X72016Y-46517D01*
X72016Y-45982D01*
X72015Y-45926D01*
X71994Y-45875D01*
X71955Y-45835D01*
X71903Y-45814D01*
X71744Y-45814D01*
X71744Y-45752D01*
X71744Y-45510D01*
X71522Y-45510D01*
X71487Y-45545D01*
X71486Y-45619D01*
X71487Y-45674D01*
X71508Y-45726D01*
X71547Y-45765D01*
X71599Y-45787D01*
X71709Y-45787D01*
X71744Y-45752D01*
X71744Y-45814D01*
X71616Y-45814D01*
X71581Y-45849D01*
X71581Y-46190D01*
X71980Y-46190D01*
X72015Y-46155D01*
X72016Y-45982D01*
X72016Y-46517D01*
X72015Y-46345D01*
X71980Y-46310D01*
X71581Y-46310D01*
X71581Y-46650D01*
X71616Y-46685D01*
X71903Y-46685D01*
X71955Y-46664D01*
X71994Y-46624D01*
X72015Y-46573D01*
X72016Y-46517D01*
X72016Y-46926D01*
X71994Y-46875D01*
X71955Y-46836D01*
X71903Y-46814D01*
X71848Y-46814D01*
X71139Y-46814D01*
X71088Y-46835D01*
X71048Y-46875D01*
X71040Y-46896D01*
X71040Y-46603D01*
X71048Y-46624D01*
X71088Y-46664D01*
X71139Y-46685D01*
X71426Y-46685D01*
X71461Y-46650D01*
X71461Y-46310D01*
X71453Y-46310D01*
X71453Y-46190D01*
X71461Y-46190D01*
X71461Y-45849D01*
X71426Y-45814D01*
X71139Y-45814D01*
X71088Y-45835D01*
X71048Y-45875D01*
X71040Y-45896D01*
X71040Y-43509D01*
X71290Y-43009D01*
X71290Y-39983D01*
X71190Y-39883D01*
X71190Y-32093D01*
X71190Y-31460D01*
X71190Y-31340D01*
X71190Y-30706D01*
X71123Y-30685D01*
X70983Y-30751D01*
X70869Y-30880D01*
X70813Y-31043D01*
X70813Y-31340D01*
X71190Y-31340D01*
X71190Y-31460D01*
X70813Y-31460D01*
X70813Y-31757D01*
X70869Y-31919D01*
X70983Y-32048D01*
X71123Y-32114D01*
X71190Y-32093D01*
X71190Y-39883D01*
X70790Y-39483D01*
X70790Y-30040D01*
X73899Y-30040D01*
X74240Y-30381D01*
X75040Y-30713D01*
X74941Y-30779D01*
X74846Y-30921D01*
X74813Y-31088D01*
X74813Y-31711D01*
X74846Y-31878D01*
X74941Y-32020D01*
X75000Y-32059D01*
X74430Y-32630D01*
X74378Y-32708D01*
X74360Y-32800D01*
X74360Y-33322D01*
X74349Y-33346D01*
X74340Y-33322D01*
X74340Y-32399D01*
X74419Y-32319D01*
X74419Y-32319D01*
X74471Y-32241D01*
X74489Y-32150D01*
X74490Y-32150D01*
X74490Y-32065D01*
X74558Y-32020D01*
X74653Y-31878D01*
X74686Y-31711D01*
X74686Y-31088D01*
X74653Y-30921D01*
X74558Y-30779D01*
X74417Y-30685D01*
X74250Y-30652D01*
X74082Y-30685D01*
X73941Y-30779D01*
X73846Y-30921D01*
X73813Y-31088D01*
X73813Y-31711D01*
X73846Y-31878D01*
X73941Y-32020D01*
X74000Y-32059D01*
X73930Y-32130D01*
X73878Y-32208D01*
X73860Y-32300D01*
X73860Y-33322D01*
X73849Y-33346D01*
X73840Y-33322D01*
X73840Y-32500D01*
X73839Y-32499D01*
X73821Y-32408D01*
X73769Y-32330D01*
X73769Y-32330D01*
X73499Y-32059D01*
X73558Y-32020D01*
X73653Y-31878D01*
X73686Y-31711D01*
X73686Y-31088D01*
X73653Y-30921D01*
X73558Y-30779D01*
X73417Y-30685D01*
X73250Y-30652D01*
X73082Y-30685D01*
X72941Y-30779D01*
X72846Y-30921D01*
X72813Y-31088D01*
X72813Y-31711D01*
X72846Y-31878D01*
X72941Y-32020D01*
X73010Y-32065D01*
X73010Y-32150D01*
X73028Y-32241D01*
X73080Y-32319D01*
X73360Y-32599D01*
X73360Y-33322D01*
X73349Y-33346D01*
X73340Y-33322D01*
X73340Y-33000D01*
X73321Y-32908D01*
X73269Y-32830D01*
X72499Y-32059D01*
X72558Y-32020D01*
X72653Y-31878D01*
X72686Y-31711D01*
X72686Y-31088D01*
X72653Y-30921D01*
X72558Y-30779D01*
X72417Y-30685D01*
X72250Y-30652D01*
X72082Y-30685D01*
X71941Y-30779D01*
X71846Y-30921D01*
X71813Y-31088D01*
X71813Y-31711D01*
X71846Y-31878D01*
X71941Y-32020D01*
X72010Y-32065D01*
X72010Y-32150D01*
X72028Y-32241D01*
X72080Y-32319D01*
X72860Y-33099D01*
X72860Y-33322D01*
X72849Y-33346D01*
X72836Y-33314D01*
X72797Y-33275D01*
X72745Y-33254D01*
X72690Y-33253D01*
X72454Y-33253D01*
X72402Y-33275D01*
X72363Y-33314D01*
X72349Y-33346D01*
X72336Y-33314D01*
X72297Y-33275D01*
X72245Y-33254D01*
X72190Y-33253D01*
X71954Y-33253D01*
X71902Y-33275D01*
X71863Y-33314D01*
X71842Y-33366D01*
X71841Y-33421D01*
X71841Y-34287D01*
X71860Y-34331D01*
X71860Y-34400D01*
X71878Y-34491D01*
X71930Y-34569D01*
X72630Y-35269D01*
X72630Y-35269D01*
X72675Y-35299D01*
X72454Y-35299D01*
X72402Y-35321D01*
X72363Y-35360D01*
X72349Y-35392D01*
X72336Y-35360D01*
X72297Y-35321D01*
X72245Y-35300D01*
X72190Y-35299D01*
X71954Y-35299D01*
X71902Y-35321D01*
X71863Y-35360D01*
X71842Y-35412D01*
X71841Y-35467D01*
X71841Y-36333D01*
X71860Y-36377D01*
X71860Y-36700D01*
X71878Y-36791D01*
X71930Y-36869D01*
X72580Y-37519D01*
X72580Y-37519D01*
X72658Y-37571D01*
X72750Y-37590D01*
X73250Y-37590D01*
X73830Y-38169D01*
X73830Y-38169D01*
X73908Y-38221D01*
X74000Y-38240D01*
X74150Y-38240D01*
X74930Y-39019D01*
X75008Y-39071D01*
X75100Y-39090D01*
X75359Y-39090D01*
X75407Y-39138D01*
X75532Y-39189D01*
X75667Y-39190D01*
X75759Y-39151D01*
X75759Y-39727D01*
X75781Y-39779D01*
X75820Y-39818D01*
X75872Y-39839D01*
X75927Y-39840D01*
X76227Y-39840D01*
X76527Y-39840D01*
X76579Y-39818D01*
X76618Y-39779D01*
X76639Y-39727D01*
X76640Y-39672D01*
X76640Y-39072D01*
X76618Y-39020D01*
X76579Y-38981D01*
X76527Y-38960D01*
X76472Y-38959D01*
X76172Y-38959D01*
X76136Y-38959D01*
X76136Y-36978D01*
X76136Y-36829D01*
X76101Y-36794D01*
X75860Y-36794D01*
X75860Y-37055D01*
X75895Y-37090D01*
X75968Y-37090D01*
X76024Y-37090D01*
X76075Y-37069D01*
X76115Y-37029D01*
X76136Y-36978D01*
X76136Y-38959D01*
X75922Y-38959D01*
X75939Y-38917D01*
X75940Y-38782D01*
X75888Y-38657D01*
X75792Y-38561D01*
X75740Y-38539D01*
X75740Y-37055D01*
X75740Y-36794D01*
X75498Y-36794D01*
X75463Y-36829D01*
X75463Y-36978D01*
X75484Y-37029D01*
X75524Y-37069D01*
X75575Y-37090D01*
X75631Y-37090D01*
X75705Y-37090D01*
X75740Y-37055D01*
X75740Y-38539D01*
X75667Y-38510D01*
X75572Y-38509D01*
X75589Y-38467D01*
X75590Y-38332D01*
X75538Y-38207D01*
X75442Y-38111D01*
X75317Y-38060D01*
X75249Y-38059D01*
X74745Y-37556D01*
X74908Y-37556D01*
X74959Y-37535D01*
X74999Y-37495D01*
X75020Y-37444D01*
X75020Y-37388D01*
X75020Y-37202D01*
X75269Y-36953D01*
X75269Y-36953D01*
X75321Y-36875D01*
X75339Y-36784D01*
X75340Y-36784D01*
X75340Y-36377D01*
X75357Y-36333D01*
X75358Y-36290D01*
X75463Y-36290D01*
X75463Y-36310D01*
X75484Y-36361D01*
X75522Y-36400D01*
X75484Y-36438D01*
X75463Y-36489D01*
X75463Y-36639D01*
X75498Y-36674D01*
X75740Y-36674D01*
X75740Y-36666D01*
X75860Y-36666D01*
X75860Y-36674D01*
X76101Y-36674D01*
X76136Y-36639D01*
X76136Y-36588D01*
X76524Y-36975D01*
X76524Y-36975D01*
X76650Y-37060D01*
X76650Y-37060D01*
X76799Y-37089D01*
X76800Y-37090D01*
X76903Y-37090D01*
X76944Y-37131D01*
X77110Y-37199D01*
X77289Y-37200D01*
X77454Y-37131D01*
X77581Y-37005D01*
X77649Y-36839D01*
X77650Y-36660D01*
X77581Y-36495D01*
X77455Y-36368D01*
X77289Y-36300D01*
X77110Y-36299D01*
X77086Y-36310D01*
X76961Y-36310D01*
X76275Y-35624D01*
X76149Y-35539D01*
X76094Y-35528D01*
X76192Y-35488D01*
X76288Y-35392D01*
X76310Y-35340D01*
X76500Y-35340D01*
X76770Y-35610D01*
X76750Y-35660D01*
X76749Y-35839D01*
X76818Y-36004D01*
X76944Y-36131D01*
X77110Y-36199D01*
X77289Y-36200D01*
X77454Y-36131D01*
X77581Y-36005D01*
X77649Y-35839D01*
X77650Y-35660D01*
X77581Y-35495D01*
X77455Y-35368D01*
X77289Y-35300D01*
X77139Y-35299D01*
X76989Y-35149D01*
X77110Y-35199D01*
X77289Y-35200D01*
X77454Y-35131D01*
X77581Y-35005D01*
X77649Y-34839D01*
X77650Y-34660D01*
X77650Y-34660D01*
X77650Y-34087D01*
X77650Y-33412D01*
X77628Y-33360D01*
X77589Y-33321D01*
X77537Y-33300D01*
X77482Y-33299D01*
X77295Y-33300D01*
X77260Y-33335D01*
X77260Y-33690D01*
X77615Y-33690D01*
X77650Y-33655D01*
X77650Y-33412D01*
X77650Y-34087D01*
X77650Y-33845D01*
X77615Y-33810D01*
X77260Y-33810D01*
X77260Y-34165D01*
X77295Y-34200D01*
X77482Y-34200D01*
X77537Y-34199D01*
X77589Y-34178D01*
X77628Y-34139D01*
X77650Y-34087D01*
X77650Y-34660D01*
X77581Y-34495D01*
X77455Y-34368D01*
X77289Y-34300D01*
X77140Y-34299D01*
X77140Y-34165D01*
X77140Y-33810D01*
X77140Y-33690D01*
X77140Y-33335D01*
X77105Y-33300D01*
X76917Y-33299D01*
X76862Y-33300D01*
X76810Y-33321D01*
X76771Y-33360D01*
X76749Y-33412D01*
X76750Y-33655D01*
X76785Y-33690D01*
X77140Y-33690D01*
X77140Y-33810D01*
X76785Y-33810D01*
X76750Y-33845D01*
X76749Y-34087D01*
X76771Y-34139D01*
X76810Y-34178D01*
X76862Y-34199D01*
X76917Y-34200D01*
X77105Y-34200D01*
X77140Y-34165D01*
X77140Y-34299D01*
X77110Y-34299D01*
X76945Y-34368D01*
X76853Y-34460D01*
X76810Y-34460D01*
X76788Y-34407D01*
X76692Y-34311D01*
X76686Y-34309D01*
X76686Y-31711D01*
X76686Y-31088D01*
X76653Y-30921D01*
X76558Y-30779D01*
X76417Y-30685D01*
X76250Y-30652D01*
X76082Y-30685D01*
X75941Y-30779D01*
X75846Y-30921D01*
X75813Y-31088D01*
X75813Y-31711D01*
X75846Y-31878D01*
X75941Y-32020D01*
X76082Y-32114D01*
X76250Y-32147D01*
X76417Y-32114D01*
X76558Y-32020D01*
X76653Y-31878D01*
X76686Y-31711D01*
X76686Y-34309D01*
X76567Y-34260D01*
X76432Y-34259D01*
X76307Y-34311D01*
X76211Y-34407D01*
X76189Y-34460D01*
X75358Y-34460D01*
X75358Y-34232D01*
X75358Y-33421D01*
X75357Y-33366D01*
X75336Y-33314D01*
X75297Y-33275D01*
X75245Y-33253D01*
X75194Y-33254D01*
X75159Y-33289D01*
X75159Y-33767D01*
X75323Y-33767D01*
X75358Y-33732D01*
X75358Y-33421D01*
X75358Y-34232D01*
X75358Y-33922D01*
X75323Y-33887D01*
X75159Y-33887D01*
X75159Y-34365D01*
X75194Y-34400D01*
X75245Y-34400D01*
X75297Y-34378D01*
X75336Y-34339D01*
X75357Y-34287D01*
X75358Y-34232D01*
X75358Y-34460D01*
X72999Y-34460D01*
X72928Y-34389D01*
X72954Y-34399D01*
X73009Y-34400D01*
X73245Y-34400D01*
X73297Y-34378D01*
X73336Y-34339D01*
X73350Y-34307D01*
X73363Y-34339D01*
X73402Y-34378D01*
X73454Y-34399D01*
X73509Y-34400D01*
X73745Y-34400D01*
X73797Y-34378D01*
X73836Y-34339D01*
X73850Y-34307D01*
X73863Y-34339D01*
X73902Y-34378D01*
X73954Y-34399D01*
X74009Y-34400D01*
X74245Y-34400D01*
X74297Y-34378D01*
X74336Y-34339D01*
X74350Y-34307D01*
X74363Y-34339D01*
X74402Y-34378D01*
X74454Y-34399D01*
X74509Y-34400D01*
X74745Y-34400D01*
X74797Y-34378D01*
X74836Y-34339D01*
X74850Y-34307D01*
X74863Y-34339D01*
X74902Y-34378D01*
X74954Y-34400D01*
X75006Y-34400D01*
X75041Y-34365D01*
X75041Y-33887D01*
X75032Y-33887D01*
X75032Y-33767D01*
X75041Y-33767D01*
X75041Y-33289D01*
X75006Y-33254D01*
X74954Y-33253D01*
X74902Y-33275D01*
X74863Y-33314D01*
X74849Y-33346D01*
X74840Y-33322D01*
X74840Y-32899D01*
X75419Y-32319D01*
X75419Y-32319D01*
X75471Y-32241D01*
X75489Y-32150D01*
X75490Y-32150D01*
X75490Y-32065D01*
X75558Y-32020D01*
X75653Y-31878D01*
X75686Y-31711D01*
X75686Y-31088D01*
X75653Y-30921D01*
X75558Y-30779D01*
X75470Y-30720D01*
X75939Y-30721D01*
X76756Y-30383D01*
X77101Y-30040D01*
X78090Y-30040D01*
X78090Y-47960D01*
G54D10*
G36*
X68460Y-38210D02*
X62750Y-38210D01*
X62500Y-38210D01*
X61000Y-38210D01*
X60750Y-38210D01*
X60000Y-38210D01*
X57540Y-38210D01*
X57540Y-33517D01*
X63515Y-28040D01*
X68460Y-28040D01*
X68460Y-29750D01*
X68460Y-30000D01*
X68460Y-38210D01*
X68460Y-38210D01*
G37*
G54D38*
X68460Y-38210D02*
X62750Y-38210D01*
X62500Y-38210D01*
X61000Y-38210D01*
X60750Y-38210D01*
X60000Y-38210D01*
X57540Y-38210D01*
X57540Y-33517D01*
X63515Y-28040D01*
X68460Y-28040D01*
X68460Y-29750D01*
X68460Y-30000D01*
X68460Y-38210D01*
G54D10*
G36*
X49486Y-29275D02*
X48110Y-32813D01*
X44139Y-34699D01*
X41898Y-34602D01*
X41800Y-31565D01*
X42260Y-30953D01*
X43012Y-30642D01*
X43640Y-30015D01*
X43980Y-29195D01*
X43981Y-28658D01*
X45065Y-27212D01*
X49486Y-29275D01*
X49486Y-29275D01*
G37*
G54D39*
X49486Y-29275D02*
X48110Y-32813D01*
X44139Y-34699D01*
X41898Y-34602D01*
X41800Y-31565D01*
X42260Y-30953D01*
X43012Y-30642D01*
X43640Y-30015D01*
X43980Y-29195D01*
X43981Y-28658D01*
X45065Y-27212D01*
X49486Y-29275D01*
G54D10*
G36*
X45210Y-43210D02*
X42790Y-43210D01*
X42790Y-42223D01*
X41008Y-41460D01*
X40618Y-41460D01*
X40500Y-41436D01*
X40381Y-41460D01*
X40319Y-41460D01*
X40319Y-40540D01*
X45210Y-40540D01*
X45210Y-43210D01*
X45210Y-43210D01*
G37*
G54D38*
X45210Y-43210D02*
X42790Y-43210D01*
X42790Y-42223D01*
X41008Y-41460D01*
X40618Y-41460D01*
X40500Y-41436D01*
X40381Y-41460D01*
X40319Y-41460D01*
X40319Y-40540D01*
X45210Y-40540D01*
X45210Y-43210D01*
G54D10*
G36*
X59710Y-51460D02*
X53475Y-51460D01*
X52725Y-52960D01*
X43971Y-52960D01*
X43971Y-52810D01*
X43633Y-51993D01*
X43009Y-51368D01*
X42193Y-51029D01*
X41310Y-51028D01*
X40493Y-51366D01*
X40319Y-51539D01*
X40319Y-44290D01*
X41936Y-44290D01*
X41936Y-44500D01*
X41960Y-44619D01*
X41959Y-45404D01*
X42269Y-46154D01*
X42842Y-46728D01*
X43592Y-47039D01*
X44404Y-47040D01*
X45154Y-46730D01*
X45728Y-46157D01*
X45802Y-45979D01*
X46126Y-46304D01*
X46692Y-46539D01*
X47304Y-46540D01*
X47871Y-46306D01*
X48304Y-45873D01*
X48449Y-45524D01*
X48891Y-45965D01*
X49034Y-46310D01*
X49436Y-46714D01*
X49963Y-46933D01*
X50533Y-46933D01*
X50692Y-46868D01*
X50693Y-46871D01*
X51126Y-47304D01*
X51692Y-47539D01*
X52304Y-47540D01*
X52871Y-47306D01*
X53304Y-46873D01*
X53539Y-46307D01*
X53540Y-45695D01*
X53306Y-45128D01*
X52873Y-44695D01*
X52307Y-44460D01*
X52221Y-44460D01*
X51993Y-44308D01*
X51902Y-44290D01*
X59710Y-44290D01*
X59710Y-51460D01*
X59710Y-51460D01*
G37*
G54D38*
X59710Y-51460D02*
X53475Y-51460D01*
X52725Y-52960D01*
X43971Y-52960D01*
X43971Y-52810D01*
X43633Y-51993D01*
X43009Y-51368D01*
X42193Y-51029D01*
X41310Y-51028D01*
X40493Y-51366D01*
X40319Y-51539D01*
X40319Y-44290D01*
X41936Y-44290D01*
X41936Y-44500D01*
X41960Y-44619D01*
X41959Y-45404D01*
X42269Y-46154D01*
X42842Y-46728D01*
X43592Y-47039D01*
X44404Y-47040D01*
X45154Y-46730D01*
X45728Y-46157D01*
X45802Y-45979D01*
X46126Y-46304D01*
X46692Y-46539D01*
X47304Y-46540D01*
X47871Y-46306D01*
X48304Y-45873D01*
X48449Y-45524D01*
X48891Y-45965D01*
X49034Y-46310D01*
X49436Y-46714D01*
X49963Y-46933D01*
X50533Y-46933D01*
X50692Y-46868D01*
X50693Y-46871D01*
X51126Y-47304D01*
X51692Y-47539D01*
X52304Y-47540D01*
X52871Y-47306D01*
X53304Y-46873D01*
X53539Y-46307D01*
X53540Y-45695D01*
X53306Y-45128D01*
X52873Y-44695D01*
X52307Y-44460D01*
X52221Y-44460D01*
X51993Y-44308D01*
X51902Y-44290D01*
X59710Y-44290D01*
X59710Y-51460D01*
M02*
