M48
;DRILL file {Pcbnew (2013-mar-13)-testing} date Tue 07 May 2013 10:03:13 PM CEST
;FORMAT={-:-/ absolute / metric / decimal}
FMAT,2
METRIC,TZ
T1C0.508
T2C0.813
T3C0.914
T4C0.998
T5C1.001
T6C1.016
T7C1.199
T8C1.397
T9C1.778
T10C1.999
T11C5.999
%
G90
G05
M71
T1
X127.635Y-107.315
X140.335Y-92.075
X181.102Y-115.824
X183.134Y-117.094
X183.388Y-118.618
X184.404Y-92.964
X184.404Y-105.918
X185.674Y-93.726
X185.674Y-117.856
X186.944Y-118.618
X188.087Y-92.964
X188.722Y-118.618
X189.484Y-92.837
X191.135Y-97.536
X191.135Y-116.205
X191.389Y-94.615
X191.897Y-96.139
X192.024Y-98.679
X193.04Y-89.408
X193.04Y-116.205
X194.31Y-87.884
T2
X175.26Y-108.585
X175.26Y-111.125
X175.26Y-113.665
X182.88Y-108.585
X182.88Y-111.125
X182.88Y-113.665
T3
X130.175Y-75.946
X135.255Y-77.724
T4
X180.975Y-79.756
X183.515Y-79.756
X186.055Y-79.756
X188.595Y-79.756
X191.135Y-79.756
X193.675Y-79.756
T5
X118.745Y-95.25
X118.745Y-110.49
X120.015Y-82.55
X122.555Y-95.25
X122.555Y-110.49
X127.635Y-95.25
X127.635Y-115.57
X135.255Y-82.55
X182.88Y-134.62
X195.58Y-126.365
T6
X119.38Y-114.3
X119.38Y-124.46
X120.015Y-88.265
X132.08Y-116.84
X132.08Y-132.08
X135.255Y-88.265
X192.722Y-107.95
X193.548Y-100.076
X193.548Y-100.076
X193.548Y-102.616
X193.548Y-105.156
X196.088Y-85.725
X196.088Y-88.265
X196.088Y-90.805
X196.088Y-93.345
X196.088Y-100.076
X196.088Y-102.616
X196.088Y-105.156
X196.088Y-111.76
X196.088Y-114.3
X196.088Y-116.84
X196.088Y-119.38
X196.215Y-107.95
T7
X142.88Y-134.62
X155.58Y-126.365
T8
X102.87Y-98.552
X102.87Y-104.14
X102.87Y-109.728
T9
X111.76Y-79.248
X111.76Y-86.868
X111.76Y-106.68
X111.76Y-114.3
T10
X150.81Y-94.3
X150.81Y-114.3
T11
X120.015Y-73.025
X144.78Y-73.025
X167.64Y-73.025
T0
M30
