M48
;DRILL file {KiCad no-vcs-found-f12b19d~59~ubuntu16.04.1} date Tue Aug 22 16:20:10 2017
;FORMAT={-:-/ absolute / metric / decimal}
FMAT,2
METRIC,TZ
T1C0.508
T2C0.650
T3C0.800
T4C0.800
T5C0.900
T6C0.914
T7C0.998
T8C1.000
T9C1.001
T10C1.097
T11C1.200
T12C1.400
T13C1.501
T14C1.778
T15C1.999
T16C3.500
%
G90
G05
M71
T1
X119.686Y-77.376
X158.025Y-60.995
X160.01Y-69.096
X170.819Y-84.54
X173.739Y-84.435
X174.266Y-82.057
X174.364Y-47.568
X174.373Y-36.624
X175.5Y-47.
X175.724Y-36.385
X176.921Y-44.61
X177.168Y-34.111
X178.242Y-44.717
X178.529Y-46.691
X179.5Y-61.5
X179.516Y-57.5
X180.77Y-65.15
X182.881Y-38.897
X182.898Y-65.143
X182.995Y-35.177
X183.Y-57.5
X183.Y-61.5
X183.247Y-44.453
X183.336Y-36.677
X184.494Y-34.156
X185.Y-46.
X185.922Y-44.836
X186.506Y-36.904
X188.501Y-38.5
X189.494Y-33.118
X190.696Y-32.355
T2
X152.Y-71.5
X154.Y-71.5
X189.Y-42.
X191.Y-42.
T3
X137.42Y-30.5
X147.58Y-30.5
X160.38Y-77.42
X160.38Y-79.96
X160.38Y-82.5
X168.Y-77.42
X168.Y-79.96
X168.Y-82.5
T4
X114.Y-66.38
X114.Y-81.62
T5
X190.Y-62.46
X190.Y-65.
X190.Y-54.96
X190.Y-57.5
T6
X122.111Y-45.04
X123.889Y-39.96
T7
X173.65Y-28.
X176.19Y-28.
X178.73Y-28.
X181.27Y-28.
X183.81Y-28.
X186.35Y-28.
T8
X108.5Y-73.5
X108.5Y-83.5
X168.96Y-38.
X168.96Y-40.54
X168.96Y-43.08
X171.5Y-38.
X171.5Y-40.54
X171.5Y-43.08
T9
X125.5Y-66.11
X125.5Y-83.89
X130.11Y-84.
X147.89Y-84.
T10
X196.5Y-78.88
X196.5Y-81.42
X196.5Y-83.96
X196.5Y-86.5
X196.5Y-31.42
X196.5Y-33.96
X196.5Y-36.5
X196.5Y-39.04
T11
X137.5Y-25.5
X152.5Y-25.5
X119.5Y-71.5
X119.5Y-86.5
T12
X130.5Y-25.5
X130.5Y-31.
X160.Y-25.5
X160.Y-31.
T13
X103.Y-54.475
X103.Y-60.
X103.Y-65.525
T14
X114.Y-25.948
X114.Y-33.568
X114.Y-53.38
X114.Y-61.
T15
X140.Y-47.5
X140.Y-67.5
T16
X105.001Y-24.999
X105.001Y-94.999
X195.001Y-24.999
X195.001Y-94.999
T0
M30
